  0
SECTION
  2
HEADER
  0
ENDSEC
  0
SECTION
  2
TABLES
  0
TABLE
  2
LTYPE
  70
0
  0
ENDTAB
  0
TABLE
  2
LAYER
  70
2
  0
LAYER
  2
node
  70
0
  62
7
  6
CONTINUOUS
  0
LAYER
  2
pipe
  70
0
  62
7
  6
CONTINUOUS
  0
ENDTAB
  0
TABLE
  2
STYLE
  70
0
  0
ENDTAB
  0
TABLE
  2
VIEW
  70
0
  0
ENDTAB
  0
TABLE
  2
UCS
  70
0
  0
ENDTAB
  0
TABLE
  2
VPORT
  70
0
  0
ENDTAB
  0
TABLE
  2
DIMSTYLE
  70
0
  0
ENDTAB
  0
TABLE
  2
APPID
  70
0
  0
ENDTAB
  0
ENDSEC
  0
SECTION
  2
BLOCKS
  0
BLOCK
  8
0
  2
CIRCLE_IN_SQUARE
  70
64
  10
0
  20
0
  30
0
  0
POLYLINE
  8
0
  62
0
  66
1
  10
0
  20
0
  70
1
 40
0
 41
0
 38
0
  0
VERTEX
  8
0
  10
-3
  20
3
  30
0
  0
VERTEX
  8
0
  10
-3
  20
-3
  30
0
  0
VERTEX
  8
0
  10
3
  20
-3
  30
0
  0
VERTEX
  8
0
  10
3
  20
3
  30
0
  0
SEQEND
  0
CIRCLE
  8
0
  62
0
  10
0
  20
0
  40
1.2
  0
ENDBLK
  0
BLOCK
  8
0
  2
SQUARE
  70
64
  10
0
  20
0
  30
0
  0
POLYLINE
  8
0
  62
0
  66
1
  10
0
  20
0
  70
1
 40
0
 41
0
 38
0
  0
VERTEX
  8
0
  10
-3
  20
3
  30
0
  0
VERTEX
  8
0
  10
-3
  20
-3
  30
0
  0
VERTEX
  8
0
  10
3
  20
-3
  30
0
  0
VERTEX
  8
0
  10
3
  20
3
  30
0
  0
SEQEND
  0
ENDBLK
  0
BLOCK
  8
0
  2
TRIANGLE
  70
64
  10
0
  20
0
  30
0
  0
POLYLINE
  8
0
  62
0
  66
1
  10
0
  20
0
  70
1
 40
0
 41
0
 38
0
  0
VERTEX
  8
0
  10
0
  20
2.5
  30
0
  0
VERTEX
  8
0
  10
-2.5
  20
-2.5
  30
0
  0
VERTEX
  8
0
  10
2.5
  20
-2.5
  30
0
  0
SEQEND
  0
ENDBLK
  0
BLOCK
  8
0
  2
TWO_CONCENTRIC_CIRCLES
  70
64
  10
0
  20
0
  30
0
  0
CIRCLE
  8
0
  62
0
  10
0
  20
0
  40
3
  0
CIRCLE
  8
0
  62
0
  10
0
  20
0
  40
1.2
  0
ENDBLK
  0
BLOCK
  8
0
  2
CROSS_WITH_SMALL_CIRCLE
  70
64
  10
0
  20
0
  30
0
  0
POLYLINE
  8
0
  62
0
  66
1
  10
0
  20
0
 40
0
 41
0
 38
0
  0
VERTEX
  8
0
  10
-3
  20
0
  30
0
  0
VERTEX
  8
0
  10
3
  20
0
  30
0
  0
SEQEND
  0
POLYLINE
  8
0
  62
0
  66
1
  10
0
  20
0
 40
0
 41
0
 38
0
  0
VERTEX
  8
0
  10
0
  20
-3
  30
0
  0
VERTEX
  8
0
  10
0
  20
3
  30
0
  0
SEQEND
  0
CIRCLE
  8
0
  62
0
  10
0
  20
0
  40
1.2
  0
ENDBLK
  0
BLOCK
  8
0
  2
FLOWARROW
  70
64
  10
0
  20
0
  30
0
  0
POLYLINE
  8
0
  62
0
  66
1
  10
0
  20
0
  70
1
 40
0
 41
0
 38
0
  0
VERTEX
  8
0
  10
3
  20
0
  30
0
  0
VERTEX
  8
0
  10
-3
  20
-3
  30
0
  0
VERTEX
  8
0
  10
-0.6
  20
0
  30
0
  0
VERTEX
  8
0
  10
-3
  20
3
  30
0
  0
SEQEND
  0
ENDBLK
  0
BLOCK
  8
0
  2
FILLED_TRIANGLE
  70
64
  10
0
  20
0
  30
0
  0
POLYLINE
  8
0
  62
0
  66
1
  10
0
  20
0
  70
1
 40
0
 41
0
 38
0
  0
VERTEX
  8
0
  10
0
  20
2.5
  30
0
  0
VERTEX
  8
0
  10
2.5
  20
-2.5
  30
0
  0
VERTEX
  8
0
  10
-2.5
  20
-2.5
  30
0
  0
SEQEND
  0
ENDBLK
  0
BLOCK
  8
0
  2
FILLED_CIRCLE
  70
64
  10
0
  20
0
  30
0
  0
CIRCLE
  8
0
  62
0
  10
0
  20
0
  40
3
  0
ENDBLK
  0
BLOCK
  8
0
  2
FILLED_DIAMOND
  70
64
  10
0
  20
0
  30
0
  0
POLYLINE
  8
0
  62
0
  66
1
  10
0
  20
0
  70
1
 40
0
 41
0
 38
0
  0
VERTEX
  8
0
  10
0
  20
3
  30
0
  0
VERTEX
  8
0
  10
3
  20
0
  30
0
  0
VERTEX
  8
0
  10
0
  20
-3
  30
0
  0
VERTEX
  8
0
  10
-3
  20
0
  30
0
  0
SEQEND
  0
ENDBLK
  0
BLOCK
  8
0
  2
FILLED_SQUARE
  70
64
  10
0
  20
0
  30
0
  0
POLYLINE
  8
0
  62
0
  66
1
  10
0
  20
0
  70
1
 40
0
 41
0
 38
0
  0
VERTEX
  8
0
  10
-3
  20
3
  30
0
  0
VERTEX
  8
0
  10
3
  20
3
  30
0
  0
VERTEX
  8
0
  10
3
  20
-3
  30
0
  0
VERTEX
  8
0
  10
-3
  20
-3
  30
0
  0
SEQEND
  0
ENDBLK
  0
BLOCK
  8
0
  2
FILLED_WATERMARK
  70
64
  10
0
  20
0
  30
0
  0
POLYLINE
  8
0
  62
0
  66
1
  10
0
  20
0
  70
1
 40
0
 41
0
 38
0
  0
VERTEX
  8
0
  10
0
  20
-3
  30
0
  0
VERTEX
  8
0
  10
3
  20
3
  30
0
  0
VERTEX
  8
0
  10
-3
  20
3
  30
0
  0
SEQEND
  0
ENDBLK
  0
BLOCK
  8
0
  2
DIAMOND
  70
64
  10
0
  20
0
  30
0
  0
POLYLINE
  8
0
  62
0
  66
1
  10
0
  20
0
  70
1
 40
0
 41
0
 38
0
  0
VERTEX
  8
0
  10
0
  20
3
  30
0
  0
VERTEX
  8
0
  10
3
  20
0
  30
0
  0
VERTEX
  8
0
  10
0
  20
-3
  30
0
  0
VERTEX
  8
0
  10
-3
  20
0
  30
0
  0
SEQEND
  0
ENDBLK
  0
BLOCK
  8
0
  2
WATERMARK
  70
64
  10
0
  20
0
  30
0
  0
POLYLINE
  8
0
  62
0
  66
1
  10
0
  20
0
  70
1
 40
0
 41
0
 38
0
  0
VERTEX
  8
0
  10
0
  20
-3
  30
0
  0
VERTEX
  8
0
  10
3
  20
3
  30
0
  0
VERTEX
  8
0
  10
-3
  20
3
  30
0
  0
SEQEND
  0
ENDBLK
  0
BLOCK
  8
0
  2
PUMP
  70
64
  10
0
  20
0
  30
0
  0
ARC
  8
0
  62
0
  10
-0.5
  20
0.5
  40
2.5
  50
90
  51
390
  0
POLYLINE
  8
0
  62
0
  66
1
  10
0
  20
0
 40
0
 41
0
 38
0
  0
VERTEX
  8
0
  10
-0.5
  20
3
  30
0
  0
VERTEX
  8
0
  10
3
  20
3
  30
0
  0
VERTEX
  8
0
  10
3
  20
1
  30
0
  0
VERTEX
  8
0
  10
2
  20
1
  30
0
  0
SEQEND
  0
ENDBLK
  0
BLOCK
  8
0
  2
WETWELL
  70
64
  10
0
  20
0
  30
0
  0
POLYLINE
  8
0
  62
0
  66
1
  10
0
  20
0
  70
1
 40
0
 41
0
 38
0
  0
VERTEX
  8
0
  10
-2.5
  20
3
  30
0
  0
VERTEX
  8
0
  10
-2.5
  20
-3
  30
0
  0
VERTEX
  8
0
  10
2.5
  20
-3
  30
0
  0
VERTEX
  8
0
  10
2.5
  20
3
  30
0
  0
SEQEND
  0
POLYLINE
  8
0
  62
0
  66
1
  10
0
  20
0
  70
1
 40
0
 41
0
 38
0
  0
VERTEX
  8
0
  10
-0.833333333333333
  20
2
  30
0
  0
VERTEX
  8
0
  10
0.833333333333333
  20
2
  30
0
  0
VERTEX
  8
0
  10
0
  20
1
  30
0
  0
SEQEND
  0
POLYLINE
  8
0
  62
0
  66
1
  10
0
  20
0
 40
0
 41
0
 38
0
  0
VERTEX
  8
0
  10
-2.5
  20
0.5
  30
0
  0
VERTEX
  8
0
  10
2.5
  20
0.5
  30
0
  0
SEQEND
  0
POLYLINE
  8
0
  62
0
  66
1
  10
0
  20
0
 40
0
 41
0
 38
0
  0
VERTEX
  8
0
  10
-0.833333333333333
  20
-0.25
  30
0
  0
VERTEX
  8
0
  10
0.833333333333333
  20
-0.25
  30
0
  0
SEQEND
  0
ENDBLK
  0
BLOCK
  8
0
  2
LINE
  70
64
  10
0
  20
0
  30
0
  0
POLYLINE
  8
0
  62
0
  66
1
  10
0
  20
0
 40
0
 41
0
 38
0
  0
VERTEX
  8
0
  10
-3
  20
0
  30
0
  0
VERTEX
  8
0
  10
3
  20
0
  30
0
  0
SEQEND
  0
ENDBLK
  0
BLOCK
  8
0
  2
POLYGON
  70
64
  10
0
  20
0
  30
0
  0
POLYLINE
  8
0
  62
0
  66
1
  10
0
  20
0
  70
1
 40
0
 41
0
 38
0
  0
VERTEX
  8
0
  10
-1.5
  20
-3
  30
0
  0
VERTEX
  8
0
  10
-3
  20
0
  30
0
  0
VERTEX
  8
0
  10
0
  20
3
  30
0
  0
VERTEX
  8
0
  10
3
  20
0
  30
0
  0
VERTEX
  8
0
  10
1.5
  20
-3
  30
0
  0
SEQEND
  0
ENDBLK
  0
BLOCK
  8
0
  2
SOLIDRING
  70
64
  10
0
  20
0
  30
0
  0
CIRCLE
  8
0
  62
0
  10
0
  20
0
  40
3
  0
CIRCLE
  8
0
  62
0
  10
0
  20
0
  40
1.8
  0
ENDBLK
  0
BLOCK
  8
0
  2
RESERVOIR
  70
64
  10
0
  20
0
  30
0
  0
POLYLINE
  8
0
  62
0
  66
1
  10
0
  20
0
 40
0
 41
0
 38
0
  0
VERTEX
  8
0
  10
-4.5
  20
2.25
  30
0
  0
VERTEX
  8
0
  10
-1.5
  20
-2.25
  30
0
  0
VERTEX
  8
0
  10
1.5
  20
-2.25
  30
0
  0
VERTEX
  8
0
  10
4.5
  20
2.25
  30
0
  0
SEQEND
  0
POLYLINE
  8
0
  62
0
  66
1
  10
0
  20
0
  70
1
 40
0
 41
0
 38
0
  0
VERTEX
  8
0
  10
-0.75
  20
2.25
  30
0
  0
VERTEX
  8
0
  10
0.75
  20
2.25
  30
0
  0
VERTEX
  8
0
  10
0
  20
1.5
  30
0
  0
SEQEND
  0
POLYLINE
  8
0
  62
0
  66
1
  10
0
  20
0
 40
0
 41
0
 38
0
  0
VERTEX
  8
0
  10
-4
  20
1.5
  30
0
  0
VERTEX
  8
0
  10
4
  20
1.5
  30
0
  0
SEQEND
  0
POLYLINE
  8
0
  62
0
  66
1
  10
0
  20
0
 40
0
 41
0
 38
0
  0
VERTEX
  8
0
  10
-0.375
  20
1.2
  30
0
  0
VERTEX
  8
0
  10
0.375
  20
1.2
  30
0
  0
SEQEND
  0
POLYLINE
  8
0
  62
0
  66
1
  10
0
  20
0
 40
0
 41
0
 38
0
  0
VERTEX
  8
0
  10
-0.1875
  20
1
  30
0
  0
VERTEX
  8
0
  10
0.1875
  20
1
  30
0
  0
SEQEND
  0
ENDBLK
  0
BLOCK
  8
0
  2
TANK
  70
64
  10
0
  20
0
  30
0
  0
POLYLINE
  8
0
  62
0
  66
1
  10
0
  20
0
  70
1
 40
0
 41
0
 38
0
  0
VERTEX
  8
0
  10
-2.5
  20
3
  30
0
  0
VERTEX
  8
0
  10
-2.5
  20
-3
  30
0
  0
VERTEX
  8
0
  10
2.5
  20
-3
  30
0
  0
VERTEX
  8
0
  10
2.5
  20
3
  30
0
  0
SEQEND
  0
POLYLINE
  8
0
  62
0
  66
1
  10
0
  20
0
  70
1
 40
0
 41
0
 38
0
  0
VERTEX
  8
0
  10
-0.833333333333333
  20
2
  30
0
  0
VERTEX
  8
0
  10
0.833333333333333
  20
2
  30
0
  0
VERTEX
  8
0
  10
0
  20
1
  30
0
  0
SEQEND
  0
POLYLINE
  8
0
  62
0
  66
1
  10
0
  20
0
 40
0
 41
0
 38
0
  0
VERTEX
  8
0
  10
-2.5
  20
1
  30
0
  0
VERTEX
  8
0
  10
2.5
  20
1
  30
0
  0
SEQEND
  0
POLYLINE
  8
0
  62
0
  66
1
  10
0
  20
0
 40
0
 41
0
 38
0
  0
VERTEX
  8
0
  10
-0.416666666666667
  20
0.8
  30
0
  0
VERTEX
  8
0
  10
0.416666666666667
  20
0.8
  30
0
  0
SEQEND
  0
POLYLINE
  8
0
  62
0
  66
1
  10
0
  20
0
 40
0
 41
0
 38
0
  0
VERTEX
  8
0
  10
-0.208333333333333
  20
0.666666666666667
  30
0
  0
VERTEX
  8
0
  10
0.208333333333333
  20
0.666666666666667
  30
0
  0
SEQEND
  0
ENDBLK
  0
BLOCK
  8
0
  2
VALVE
  70
64
  10
0
  20
0
  30
0
  0
POLYLINE
  8
0
  62
0
  66
1
  10
0
  20
0
  70
1
 40
0
 41
0
 38
0
  0
VERTEX
  8
0
  10
-3
  20
3
  30
0
  0
VERTEX
  8
0
  10
-3
  20
-3
  30
0
  0
VERTEX
  8
0
  10
0
  20
0
  30
0
  0
SEQEND
  0
POLYLINE
  8
0
  62
0
  66
1
  10
0
  20
0
  70
1
 40
0
 41
0
 38
0
  0
VERTEX
  8
0
  10
0
  20
0
  30
0
  0
VERTEX
  8
0
  10
3
  20
3
  30
0
  0
VERTEX
  8
0
  10
3
  20
-3
  30
0
  0
SEQEND
  0
ENDBLK
  0
BLOCK
  8
0
  2
X
  70
64
  10
0
  20
0
  30
0
  0
POLYLINE
  8
0
  62
0
  66
1
  10
0
  20
0
 40
0
 41
0
 38
0
  0
VERTEX
  8
0
  10
-2.5
  20
2.5
  30
0
  0
VERTEX
  8
0
  10
2.5
  20
-2.5
  30
0
  0
SEQEND
  0
POLYLINE
  8
0
  62
0
  66
1
  10
0
  20
0
 40
0
 41
0
 38
0
  0
VERTEX
  8
0
  10
2.5
  20
2.5
  30
0
  0
VERTEX
  8
0
  10
-2.5
  20
-2.5
  30
0
  0
SEQEND
  0
ENDBLK
  0
BLOCK
  8
0
  2
CHECKVALVE
  70
64
  10
0
  20
0
  30
0
  0
POLYLINE
  8
0
  62
0
  66
1
  10
0
  20
0
 40
0
 41
0
 38
0
  0
VERTEX
  8
0
  10
-3
  20
3
  30
0
  0
VERTEX
  8
0
  10
3
  20
0
  30
0
  0
VERTEX
  8
0
  10
-3
  20
-3
  30
0
  0
SEQEND
  0
POLYLINE
  8
0
  62
0
  66
1
  10
0
  20
0
 40
0
 41
0
 38
0
  0
VERTEX
  8
0
  10
3
  20
3
  30
0
  0
VERTEX
  8
0
  10
3
  20
-3
  30
0
  0
SEQEND
  0
ENDBLK
  0
BLOCK
  8
0
  2
CONSTITUENTSOURCE
  70
64
  10
0
  20
0
  30
0
  0
ARC
  8
0
  62
0
  10
2.75
  20
-0.75
  40
4
  50
90
  51
180
  0
POLYLINE
  8
0
  62
0
  66
1
  10
0
  20
0
  70
1
 40
0
 41
0
 38
0
  0
VERTEX
  8
0
  10
-3
  20
-0.5
  30
0
  0
VERTEX
  8
0
  10
0.5
  20
-0.5
  30
0
  0
VERTEX
  8
0
  10
-1.25
  20
-3
  30
0
  0
SEQEND
  0
ENDBLK
  0
BLOCK
  8
0
  2
CONTROLLEDELEMENT
  70
64
  10
0
  20
0
  30
0
  0
POLYLINE
  8
0
  62
0
  66
1
  10
0
  20
0
  70
1
 40
0
 41
0
 38
0
  0
VERTEX
  8
0
  10
-7
  20
2
  30
0
  0
VERTEX
  8
0
  10
-7
  20
1
  30
0
  0
VERTEX
  8
0
  10
-6
  20
1
  30
0
  0
VERTEX
  8
0
  10
-6
  20
2
  30
0
  0
SEQEND
  0
POLYLINE
  8
0
  62
0
  66
1
  10
0
  20
0
  70
1
 40
0
 41
0
 38
0
  0
VERTEX
  8
0
  10
-7
  20
-1
  30
0
  0
VERTEX
  8
0
  10
-7
  20
-2
  30
0
  0
VERTEX
  8
0
  10
-6
  20
-2
  30
0
  0
VERTEX
  8
0
  10
-6
  20
-1
  30
0
  0
SEQEND
  0
POLYLINE
  8
0
  62
0
  66
1
  10
0
  20
0
 40
0
 41
0
 38
0
  0
VERTEX
  8
0
  10
-6.5
  20
-1.5
  30
0
  0
VERTEX
  8
0
  10
-6.5
  20
1.5
  30
0
  0
SEQEND
  0
ENDBLK
  0
BLOCK
  8
0
  2
CLOSEDPIPE
  70
64
  10
0
  20
0
  30
0
  0
POLYLINE
  8
0
  62
0
  66
1
  10
0
  20
0
 40
0
 41
0
 38
0
  0
VERTEX
  8
0
  10
-1
  20
3
  30
0
  0
VERTEX
  8
0
  10
-1
  20
-3
  30
0
  0
SEQEND
  0
POLYLINE
  8
0
  62
0
  66
1
  10
0
  20
0
 40
0
 41
0
 38
0
  0
VERTEX
  8
0
  10
1
  20
3
  30
0
  0
VERTEX
  8
0
  10
1
  20
-3
  30
0
  0
SEQEND
  0
ENDBLK
  0
BLOCK
  8
0
  2
CIRCLE
  70
64
  10
0
  20
0
  30
0
  0
CIRCLE
  8
0
  62
0
  10
0
  20
0
  40
3
  0
ENDBLK
  0
BLOCK
  8
0
  2
CROSS
  70
64
  10
0
  20
0
  30
0
  0
POLYLINE
  8
0
  62
0
  66
1
  10
0
  20
0
 40
0
 41
0
 38
0
  0
VERTEX
  8
0
  10
-6
  20
0
  30
0
  0
VERTEX
  8
0
  10
6
  20
0
  30
0
  0
SEQEND
  0
POLYLINE
  8
0
  62
0
  66
1
  10
0
  20
0
 40
0
 41
0
 38
0
  0
VERTEX
  8
0
  10
0
  20
6
  30
0
  0
VERTEX
  8
0
  10
0
  20
-6
  30
0
  0
SEQEND
  0
ENDBLK
  0
BLOCK
  8
0
  2
HYDRANT
  70
64
  10
0
  20
0
  30
0
  0
POLYLINE
  8
0
  62
0
  66
1
  10
0
  20
0
  70
1
 40
0
 41
0
 38
0
  0
VERTEX
  8
0
  10
-3
  20
0.6
  30
0
  0
VERTEX
  8
0
  10
3
  20
0.6
  30
0
  0
VERTEX
  8
0
  10
3
  20
-0.6
  30
0
  0
VERTEX
  8
0
  10
-3
  20
-0.6
  30
0
  0
SEQEND
  0
POLYLINE
  8
0
  62
0
  66
1
  10
0
  20
0
  70
1
 40
0
 41
0
 38
0
  0
VERTEX
  8
0
  10
-0.6
  20
3
  30
0
  0
VERTEX
  8
0
  10
-0.6
  20
-3
  30
0
  0
VERTEX
  8
0
  10
0.6
  20
-3
  30
0
  0
VERTEX
  8
0
  10
0.6
  20
3
  30
0
  0
SEQEND
  0
CIRCLE
  8
0
  62
0
  10
0
  20
0
  40
2.1
  0
ENDBLK
  0
BLOCK
  8
0
  2
XINCIRCLE
  70
64
  10
0
  20
0
  30
0
  0
POLYLINE
  8
0
  62
0
  66
1
  10
0
  20
0
 40
0
 41
0
 38
0
  0
VERTEX
  8
0
  10
-1.95
  20
1.95
  30
0
  0
VERTEX
  8
0
  10
1.95
  20
-1.95
  30
0
  0
SEQEND
  0
POLYLINE
  8
0
  62
0
  66
1
  10
0
  20
0
 40
0
 41
0
 38
0
  0
VERTEX
  8
0
  10
1.95
  20
1.95
  30
0
  0
VERTEX
  8
0
  10
-1.95
  20
-1.95
  30
0
  0
SEQEND
  0
CIRCLE
  8
0
  62
0
  10
0
  20
0
  40
2.73
  0
ENDBLK
  0
BLOCK
  8
0
  2
VARIABLE_SPEED_PUMP_BATTERY
  70
64
  10
0
  20
0
  30
0
  0
ARC
  8
0
  62
0
  10
-0.5
  20
0.25
  40
1.25
  50
90
  51
390
  0
POLYLINE
  8
0
  62
0
  66
1
  10
0
  20
0
 40
0
 41
0
 38
0
  0
VERTEX
  8
0
  10
-0.5
  20
1.5
  30
0
  0
VERTEX
  8
0
  10
1.5
  20
1.5
  30
0
  0
VERTEX
  8
0
  10
1.5
  20
0.5
  30
0
  0
VERTEX
  8
0
  10
0.705882352941176
  20
0.5
  30
0
  0
SEQEND
  0
POLYLINE
  8
0
  62
0
  66
1
  10
0
  20
0
  70
1
 40
0
 41
0
 38
0
  0
VERTEX
  8
0
  10
-3
  20
-3
  30
0
  0
VERTEX
  8
0
  10
3
  20
-3
  30
0
  0
VERTEX
  8
0
  10
3
  20
3
  30
0
  0
VERTEX
  8
0
  10
-3
  20
3
  30
0
  0
SEQEND
  0
ENDBLK
  0
BLOCK
  8
0
  2
VALVETCV
  70
64
  10
0
  20
0
  30
0
  0
POLYLINE
  8
0
  62
0
  66
1
  10
0
  20
0
  70
1
 40
0
 41
0
 38
0
  0
VERTEX
  8
0
  10
-3
  20
3
  30
0
  0
VERTEX
  8
0
  10
-3
  20
-3
  30
0
  0
VERTEX
  8
0
  10
0
  20
0
  30
0
  0
SEQEND
  0
POLYLINE
  8
0
  62
0
  66
1
  10
0
  20
0
  70
1
 40
0
 41
0
 38
0
  0
VERTEX
  8
0
  10
0
  20
0
  30
0
  0
VERTEX
  8
0
  10
3
  20
3
  30
0
  0
VERTEX
  8
0
  10
3
  20
-3
  30
0
  0
SEQEND
  0
POLYLINE
  8
0
  62
0
  66
1
  10
0
  20
0
 40
0
 41
0
 38
0
  0
VERTEX
  8
0
  10
0
  20
0
  30
0
  0
VERTEX
  8
0
  10
0
  20
3.6
  30
0
  0
SEQEND
  0
POLYLINE
  8
0
  62
0
  66
1
  10
0
  20
0
 40
0
 41
0
 38
0
  0
VERTEX
  8
0
  10
-3
  20
3.6
  30
0
  0
VERTEX
  8
0
  10
3
  20
3.6
  30
0
  0
SEQEND
  0
ENDBLK
  0
BLOCK
  8
0
  2
VALVEFCV
  70
64
  10
0
  20
0
  30
0
  0
POLYLINE
  8
0
  62
0
  66
1
  10
0
  20
0
  70
1
 40
0
 41
0
 38
0
  0
VERTEX
  8
0
  10
-3
  20
3
  30
0
  0
VERTEX
  8
0
  10
-3
  20
-3
  30
0
  0
VERTEX
  8
0
  10
0
  20
0
  30
0
  0
SEQEND
  0
POLYLINE
  8
0
  62
0
  66
1
  10
0
  20
0
  70
1
 40
0
 41
0
 38
0
  0
VERTEX
  8
0
  10
0
  20
0
  30
0
  0
VERTEX
  8
0
  10
3
  20
3
  30
0
  0
VERTEX
  8
0
  10
3
  20
-3
  30
0
  0
SEQEND
  0
POLYLINE
  8
0
  62
0
  66
1
  10
0
  20
0
  70
1
 40
0
 41
0
 38
0
  0
VERTEX
  8
0
  10
0
  20
0
  30
0
  0
VERTEX
  8
0
  10
-0.9
  20
3.6
  30
0
  0
VERTEX
  8
0
  10
0.9
  20
3.6
  30
0
  0
SEQEND
  0
ENDBLK
  0
BLOCK
  8
0
  2
VALVEPBV
  70
64
  10
0
  20
0
  30
0
  0
POLYLINE
  8
0
  62
0
  66
1
  10
0
  20
0
  70
1
 40
0
 41
0
 38
0
  0
VERTEX
  8
0
  10
-3
  20
3
  30
0
  0
VERTEX
  8
0
  10
-3
  20
-3
  30
0
  0
VERTEX
  8
0
  10
0
  20
0
  30
0
  0
SEQEND
  0
POLYLINE
  8
0
  62
0
  66
1
  10
0
  20
0
  70
1
 40
0
 41
0
 38
0
  0
VERTEX
  8
0
  10
0
  20
0
  30
0
  0
VERTEX
  8
0
  10
3
  20
3
  30
0
  0
VERTEX
  8
0
  10
3
  20
-3
  30
0
  0
SEQEND
  0
POLYLINE
  8
0
  62
0
  66
1
  10
0
  20
0
 40
0
 41
0
 38
0
  0
VERTEX
  8
0
  10
0
  20
-4.5
  30
0
  0
VERTEX
  8
0
  10
0
  20
4.5
  30
0
  0
SEQEND
  0
ENDBLK
  0
BLOCK
  8
0
  2
VALVEPSV
  70
64
  10
0
  20
0
  30
0
  0
POLYLINE
  8
0
  62
0
  66
1
  10
0
  20
0
  70
1
 40
0
 41
0
 38
0
  0
VERTEX
  8
0
  10
-3
  20
3
  30
0
  0
VERTEX
  8
0
  10
-3
  20
-3
  30
0
  0
VERTEX
  8
0
  10
0
  20
0
  30
0
  0
SEQEND
  0
POLYLINE
  8
0
  62
0
  66
1
  10
0
  20
0
  70
1
 40
0
 41
0
 38
0
  0
VERTEX
  8
0
  10
0
  20
0
  30
0
  0
VERTEX
  8
0
  10
3
  20
3
  30
0
  0
VERTEX
  8
0
  10
3
  20
-3
  30
0
  0
SEQEND
  0
POLYLINE
  8
0
  62
0
  66
1
  10
0
  20
0
  70
1
 40
0
 41
0
 38
0
  0
VERTEX
  8
0
  10
0
  20
0
  30
0
  0
VERTEX
  8
0
  10
0
  20
3.6
  30
0
  0
VERTEX
  8
0
  10
-4.5
  20
3.6
  30
0
  0
VERTEX
  8
0
  10
-4.5
  20
0
  30
0
  0
SEQEND
  0
ENDBLK
  0
BLOCK
  8
0
  2
VALVEPRV
  70
64
  10
0
  20
0
  30
0
  0
POLYLINE
  8
0
  62
0
  66
1
  10
0
  20
0
  70
1
 40
0
 41
0
 38
0
  0
VERTEX
  8
0
  10
-3
  20
3
  30
0
  0
VERTEX
  8
0
  10
-3
  20
-3
  30
0
  0
VERTEX
  8
0
  10
0
  20
0
  30
0
  0
SEQEND
  0
POLYLINE
  8
0
  62
0
  66
1
  10
0
  20
0
  70
1
 40
0
 41
0
 38
0
  0
VERTEX
  8
0
  10
0
  20
0
  30
0
  0
VERTEX
  8
0
  10
3
  20
3
  30
0
  0
VERTEX
  8
0
  10
3
  20
-3
  30
0
  0
SEQEND
  0
POLYLINE
  8
0
  62
0
  66
1
  10
0
  20
0
  70
1
 40
0
 41
0
 38
0
  0
VERTEX
  8
0
  10
0
  20
0
  30
0
  0
VERTEX
  8
0
  10
0
  20
3.6
  30
0
  0
VERTEX
  8
0
  10
4.5
  20
3.6
  30
0
  0
VERTEX
  8
0
  10
4.5
  20
0
  30
0
  0
SEQEND
  0
ENDBLK
  0
BLOCK
  8
0
  2
DIVERSIONLINKDECORATION
  70
64
  10
0
  20
0
  30
0
  0
ARC
  8
0
  62
0
  10
-1.2
  20
0.3
  40
3
  50
0
  51
180
  0
POLYLINE
  8
0
  62
0
  66
1
  10
0
  20
0
 40
0
 41
0
 38
0
  0
VERTEX
  8
0
  10
0.6
  20
1.5
  30
0
  0
VERTEX
  8
0
  10
1.8
  20
0.3
  30
0
  0
VERTEX
  8
0
  10
3
  20
1.5
  30
0
  0
SEQEND
  0
ENDBLK
  0
BLOCK
  8
0
  2
AIRVALVE
  70
64
  10
0
  20
0
  30
0
  0
POLYLINE
  8
0
  62
0
  66
1
  10
0
  20
0
 40
0
 41
0
 38
0
  0
VERTEX
  8
0
  10
-2.25
  20
3.42857142857143
  30
0
  0
VERTEX
  8
0
  10
-2.25
  20
2.57142857142857
  30
0
  0
VERTEX
  8
0
  10
-3
  20
2.57142857142857
  30
0
  0
VERTEX
  8
0
  10
-3
  20
0.857142857142857
  30
0
  0
VERTEX
  8
0
  10
-2.25
  20
-0.857142857142857
  30
0
  0
VERTEX
  8
0
  10
-0.75
  20
-1.71428571428571
  30
0
  0
VERTEX
  8
0
  10
-0.75
  20
-2.57142857142857
  30
0
  0
SEQEND
  0
POLYLINE
  8
0
  62
0
  66
1
  10
0
  20
0
 40
0
 41
0
 38
0
  0
VERTEX
  8
0
  10
-0.75
  20
3.42857142857143
  30
0
  0
VERTEX
  8
0
  10
-0.75
  20
2.57142857142857
  30
0
  0
VERTEX
  8
0
  10
3
  20
2.57142857142857
  30
0
  0
VERTEX
  8
0
  10
3
  20
0.857142857142857
  30
0
  0
VERTEX
  8
0
  10
2.25
  20
-0.857142857142857
  30
0
  0
VERTEX
  8
0
  10
0.75
  20
-1.71428571428571
  30
0
  0
VERTEX
  8
0
  10
0.75
  20
-2.57142857142857
  30
0
  0
SEQEND
  0
POLYLINE
  8
0
  62
0
  66
1
  10
0
  20
0
 40
0
 41
0
 38
0
  0
VERTEX
  8
0
  10
-2.625
  20
1.71428571428571
  30
0
  0
VERTEX
  8
0
  10
-0.375
  20
1.71428571428571
  30
0
  0
SEQEND
  0
POLYLINE
  8
0
  62
0
  66
1
  10
0
  20
0
 40
0
 41
0
 38
0
  0
VERTEX
  8
0
  10
-1.5
  20
3
  30
0
  0
VERTEX
  8
0
  10
-1.5
  20
1.71428571428571
  30
0
  0
SEQEND
  0
ENDBLK
  0
BLOCK
  8
0
  2
SAV_SRV
  70
64
  10
0
  20
0
  30
0
  0
POLYLINE
  8
0
  62
0
  66
1
  10
0
  20
0
 40
0
 41
0
 38
0
  0
VERTEX
  8
0
  10
-0.6
  20
0
  30
0
  0
VERTEX
  8
0
  10
-0.6
  20
-3
  30
0
  0
SEQEND
  0
POLYLINE
  8
0
  62
0
  66
1
  10
0
  20
0
 40
0
 41
0
 38
0
  0
VERTEX
  8
0
  10
-3
  20
1.5
  30
0
  0
VERTEX
  8
0
  10
3
  20
1.5
  30
0
  0
SEQEND
  0
POLYLINE
  8
0
  62
0
  66
1
  10
0
  20
0
 40
0
 41
0
 38
0
  0
VERTEX
  8
0
  10
-3
  20
0.125
  30
0
  0
VERTEX
  8
0
  10
-2.4
  20
2.875
  30
0
  0
SEQEND
  0
POLYLINE
  8
0
  62
0
  66
1
  10
0
  20
0
 40
0
 41
0
 38
0
  0
VERTEX
  8
0
  10
-1.8
  20
0.125
  30
0
  0
VERTEX
  8
0
  10
-1.2
  20
2.875
  30
0
  0
SEQEND
  0
POLYLINE
  8
0
  62
0
  66
1
  10
0
  20
0
 40
0
 41
0
 38
0
  0
VERTEX
  8
0
  10
-0.6
  20
0.125
  30
0
  0
VERTEX
  8
0
  10
0
  20
2.875
  30
0
  0
SEQEND
  0
POLYLINE
  8
0
  62
0
  66
1
  10
0
  20
0
  70
1
 40
0
 41
0
 38
0
  0
VERTEX
  8
0
  10
-2.4
  20
0
  30
0
  0
VERTEX
  8
0
  10
1.2
  20
0
  30
0
  0
VERTEX
  8
0
  10
-0.6
  20
1.5
  30
0
  0
SEQEND
  0
POLYLINE
  8
0
  62
0
  66
1
  10
0
  20
0
  70
1
 40
0
 41
0
 38
0
  0
VERTEX
  8
0
  10
0
  20
1.5
  30
0
  0
VERTEX
  8
0
  10
1.8
  20
0
  30
0
  0
VERTEX
  8
0
  10
1.8
  20
3
  30
0
  0
SEQEND
  0
ENDBLK
  0
BLOCK
  8
0
  2
HYDROPNEUMATICTANK
  70
64
  10
0
  20
0
  30
0
  0
POLYLINE
  8
0
  62
0
  66
1
  10
0
  20
0
 40
0
 41
0
 38
0
  0
VERTEX
  8
0
  10
-2.5
  20
2
  30
0
  0
VERTEX
  8
0
  10
-2.5
  20
-2
  30
0
  0
SEQEND
  0
POLYLINE
  8
0
  62
0
  66
1
  10
0
  20
0
 40
0
 41
0
 38
0
  0
VERTEX
  8
0
  10
2.5
  20
-2
  30
0
  0
VERTEX
  8
0
  10
2.5
  20
2
  30
0
  0
SEQEND
  0
POLYLINE
  8
0
  62
0
  66
1
  10
0
  20
0
  70
1
 40
0
 41
0
 38
0
  0
VERTEX
  8
0
  10
-0.833333333333333
  20
2
  30
0
  0
VERTEX
  8
0
  10
0.833333333333333
  20
2
  30
0
  0
VERTEX
  8
0
  10
0
  20
1
  30
0
  0
SEQEND
  0
POLYLINE
  8
0
  62
0
  66
1
  10
0
  20
0
 40
0
 41
0
 38
0
  0
VERTEX
  8
0
  10
-2.5
  20
1
  30
0
  0
VERTEX
  8
0
  10
2.5
  20
1
  30
0
  0
SEQEND
  0
POLYLINE
  8
0
  62
0
  66
1
  10
0
  20
0
 40
0
 41
0
 38
0
  0
VERTEX
  8
0
  10
-0.416666666666667
  20
0.8
  30
0
  0
VERTEX
  8
0
  10
0.416666666666667
  20
0.8
  30
0
  0
SEQEND
  0
ARC
  8
0
  62
0
  10
0
  20
2
  40
2.5
  50
0
  51
180
  0
ARC
  8
0
  62
0
  10
0
  20
-2
  40
2.5
  50
180
  51
360
  0
ENDBLK
  0
BLOCK
  8
0
  2
RUPTUREDISK
  70
64
  10
0
  20
0
  30
0
  0
POLYLINE
  8
0
  62
0
  66
1
  10
0
  20
0
  70
1
 40
0
 41
0
 38
0
  0
VERTEX
  8
0
  10
2
  20
3
  30
0
  0
VERTEX
  8
0
  10
-2
  20
3
  30
0
  0
VERTEX
  8
0
  10
-2
  20
-3
  30
0
  0
VERTEX
  8
0
  10
2
  20
-3
  30
0
  0
SEQEND
  0
POLYLINE
  8
0
  62
0
  66
1
  10
0
  20
0
 40
0
 41
0
 38
0
  0
VERTEX
  8
0
  10
-3
  20
0
  30
0
  0
VERTEX
  8
0
  10
-2
  20
0
  30
0
  0
SEQEND
  0
POLYLINE
  8
0
  62
0
  66
1
  10
0
  20
0
 40
0
 41
0
 38
0
  0
VERTEX
  8
0
  10
2
  20
0
  30
0
  0
VERTEX
  8
0
  10
3
  20
1
  30
0
  0
SEQEND
  0
POLYLINE
  8
0
  62
0
  66
1
  10
0
  20
0
 40
0
 41
0
 38
0
  0
VERTEX
  8
0
  10
2
  20
0
  30
0
  0
VERTEX
  8
0
  10
3
  20
-1
  30
0
  0
SEQEND
  0
POLYLINE
  8
0
  62
0
  66
1
  10
0
  20
0
 40
0
 41
0
 38
0
  0
VERTEX
  8
0
  10
2
  20
0
  30
0
  0
VERTEX
  8
0
  10
3
  20
0
  30
0
  0
SEQEND
  0
POLYLINE
  8
0
  62
0
  66
1
  10
0
  20
0
 40
0
 41
0
 38
0
  0
VERTEX
  8
0
  10
0
  20
3
  30
0
  0
VERTEX
  8
0
  10
0
  20
1.8
  30
0
  0
SEQEND
  0
POLYLINE
  8
0
  62
0
  66
1
  10
0
  20
0
 40
0
 41
0
 38
0
  0
VERTEX
  8
0
  10
0
  20
0.6
  30
0
  0
VERTEX
  8
0
  10
0
  20
-0.6
  30
0
  0
SEQEND
  0
POLYLINE
  8
0
  62
0
  66
1
  10
0
  20
0
 40
0
 41
0
 38
0
  0
VERTEX
  8
0
  10
0
  20
-1.8
  30
0
  0
VERTEX
  8
0
  10
0
  20
-3
  30
0
  0
SEQEND
  0
ENDBLK
  0
BLOCK
  8
0
  2
TURBINE
  70
64
  10
0
  20
0
  30
0
  0
ARC
  8
0
  62
0
  10
0
  20
0
  40
2.5
  50
150
  51
270
  0
ARC
  8
0
  62
0
  10
0
  20
0
  40
2.5
  50
330
  51
450
  0
POLYLINE
  8
0
  62
0
  66
1
  10
0
  20
0
 40
0
 41
0
 38
0
  0
VERTEX
  8
0
  10
0
  20
2.5
  30
0
  0
VERTEX
  8
0
  10
-3
  20
2.5
  30
0
  0
VERTEX
  8
0
  10
-3
  20
0.833333333333333
  30
0
  0
VERTEX
  8
0
  10
-2.41666666666667
  20
0.833333333333333
  30
0
  0
SEQEND
  0
POLYLINE
  8
0
  62
0
  66
1
  10
0
  20
0
 40
0
 41
0
 38
0
  0
VERTEX
  8
0
  10
0
  20
-2.5
  30
0
  0
VERTEX
  8
0
  10
3
  20
-2.5
  30
0
  0
VERTEX
  8
0
  10
3
  20
-0.833333333333333
  30
0
  0
VERTEX
  8
0
  10
2.41666666666667
  20
-0.833333333333333
  30
0
  0
SEQEND
  0
CIRCLE
  8
0
  62
0
  10
0
  20
0
  40
0.25
  0
ENDBLK
  0
BLOCK
  8
0
  2
PERIODIC
  70
64
  10
0
  20
0
  30
0
  0
POLYLINE
  8
0
  62
0
  66
1
  10
0
  20
0
 40
0
 41
0
 38
0
  0
VERTEX
  8
0
  10
-3
  20
0
  30
0
  0
VERTEX
  8
0
  10
-2.25
  20
3
  30
0
  0
VERTEX
  8
0
  10
-0.75
  20
-3
  30
0
  0
VERTEX
  8
0
  10
0.75
  20
3
  30
0
  0
VERTEX
  8
0
  10
2.25
  20
-3
  30
0
  0
VERTEX
  8
0
  10
3
  20
0
  30
0
  0
SEQEND
  0
ENDBLK
  0
BLOCK
  8
0
  2
HAMMERMANHOLE
  70
64
  10
0
  20
0
  30
0
  0
POLYLINE
  8
0
  62
0
  66
1
  10
0
  20
0
 40
0
 41
0
 38
0
  0
VERTEX
  8
0
  10
3
  20
-2.625
  30
0
  0
VERTEX
  8
0
  10
3
  20
1
  30
0
  0
SEQEND
  0
POLYLINE
  8
0
  62
0
  66
1
  10
0
  20
0
 40
0
 41
0
 38
0
  0
VERTEX
  8
0
  10
-0.75
  20
-2.625
  30
0
  0
VERTEX
  8
0
  10
-0.75
  20
1
  30
0
  0
SEQEND
  0
POLYLINE
  8
0
  62
0
  66
1
  10
0
  20
0
 40
0
 41
0
 38
0
  0
VERTEX
  8
0
  10
-0.75
  20
-2.25
  30
0
  0
VERTEX
  8
0
  10
-3
  20
-2.25
  30
0
  0
SEQEND
  0
POLYLINE
  8
0
  62
0
  66
1
  10
0
  20
0
 40
0
 41
0
 38
0
  0
VERTEX
  8
0
  10
-0.75
  20
1
  30
0
  0
VERTEX
  8
0
  10
0
  20
2.625
  30
0
  0
SEQEND
  0
POLYLINE
  8
0
  62
0
  66
1
  10
0
  20
0
 40
0
 41
0
 38
0
  0
VERTEX
  8
0
  10
3
  20
1
  30
0
  0
VERTEX
  8
0
  10
2.625
  20
2.625
  30
0
  0
SEQEND
  0
POLYLINE
  8
0
  62
0
  66
1
  10
0
  20
0
 40
0
 41
0
 38
0
  0
VERTEX
  8
0
  10
-0.75
  20
-2.625
  30
0
  0
VERTEX
  8
0
  10
-0.726915638615883
  20
-2.68366292439009
  30
0
  0
VERTEX
  8
0
  10
-0.658230968053413
  20
-2.74088137289061
  30
0
  0
VERTEX
  8
0
  10
-0.54563723285319
  20
-2.79524643740233
  30
0
  0
VERTEX
  8
0
  10
-0.391906864453027
  20
-2.84541946960968
  30
0
  0
VERTEX
  8
0
  10
-0.200825214724777
  20
-2.89016504294496
  30
0
  0
VERTEX
  8
0
  10
0.0229026519516127
  20
-2.92838137289061
  30
0
  0
VERTEX
  8
0
  10
0.27376781298835
  20
-2.95912744657064
  30
0
  0
VERTEX
  8
0
  10
0.545593135546973
  20
-2.98164619361068
  30
0
  0
VERTEX
  8
0
  10
0.831685378049567
  20
-2.99538312772318
  30
0
  0
VERTEX
  8
0
  10
1.125
  20
-3
  30
0
  0
VERTEX
  8
0
  10
1.41831462195043
  20
-2.99538312772318
  30
0
  0
VERTEX
  8
0
  10
1.70440686445303
  20
-2.98164619361068
  30
0
  0
VERTEX
  8
0
  10
1.97623218701165
  20
-2.95912744657064
  30
0
  0
VERTEX
  8
0
  10
2.22709734804839
  20
-2.92838137289061
  30
0
  0
VERTEX
  8
0
  10
2.45082521472478
  20
-2.89016504294496
  30
0
  0
VERTEX
  8
0
  10
2.64190686445303
  20
-2.84541946960968
  30
0
  0
VERTEX
  8
0
  10
2.79563723285319
  20
-2.79524643740233
  30
0
  0
VERTEX
  8
0
  10
2.90823096805341
  20
-2.74088137289061
  30
0
  0
VERTEX
  8
0
  10
2.97691563861588
  20
-2.68366292439009
  30
0
  0
SEQEND
  0
POLYLINE
  8
0
  62
0
  66
1
  10
0
  20
0
 40
0
 41
0
 38
0
  0
VERTEX
  8
0
  10
-0.75
  20
1
  30
0
  0
VERTEX
  8
0
  10
-0.726915638615883
  20
0.941337075609914
  30
0
  0
VERTEX
  8
0
  10
-0.658230968053413
  20
0.884118627109395
  30
0
  0
VERTEX
  8
0
  10
-0.54563723285319
  20
0.82975356259767
  30
0
  0
VERTEX
  8
0
  10
-0.391906864453027
  20
0.779580530390323
  30
0
  0
VERTEX
  8
0
  10
-0.200825214724777
  20
0.734834957055045
  30
0
  0
VERTEX
  8
0
  10
0.0229026519516127
  20
0.696618627109395
  30
0
  0
VERTEX
  8
0
  10
0.27376781298835
  20
0.665872553429362
  30
0
  0
VERTEX
  8
0
  10
0.545593135546973
  20
0.643353806389317
  30
0
  0
VERTEX
  8
0
  10
0.831685378049567
  20
0.629616872276823
  30
0
  0
VERTEX
  8
0
  10
1.125
  20
0.625
  30
0
  0
VERTEX
  8
0
  10
1.41831462195043
  20
0.629616872276823
  30
0
  0
VERTEX
  8
0
  10
1.70440686445303
  20
0.643353806389317
  30
0
  0
VERTEX
  8
0
  10
1.97623218701165
  20
0.665872553429362
  30
0
  0
VERTEX
  8
0
  10
2.22709734804839
  20
0.696618627109395
  30
0
  0
VERTEX
  8
0
  10
2.45082521472478
  20
0.734834957055045
  30
0
  0
VERTEX
  8
0
  10
2.64190686445303
  20
0.779580530390322
  30
0
  0
VERTEX
  8
0
  10
2.79563723285319
  20
0.82975356259767
  30
0
  0
VERTEX
  8
0
  10
2.90823096805341
  20
0.884118627109395
  30
0
  0
VERTEX
  8
0
  10
2.97691563861588
  20
0.941337075609913
  30
0
  0
SEQEND
  0
POLYLINE
  8
0
  62
0
  66
1
  10
0
  20
0
  70
1
 40
0
 41
0
 38
0
  0
VERTEX
  8
0
  10
2.625
  20
2.625
  30
0
  0
VERTEX
  8
0
  10
2.60884094703112
  20
2.68366292439009
  30
0
  0
VERTEX
  8
0
  10
2.56076167763739
  20
2.74088137289061
  30
0
  0
VERTEX
  8
0
  10
2.48194606299723
  20
2.79524643740233
  30
0
  0
VERTEX
  8
0
  10
2.37433480511712
  20
2.84541946960968
  30
0
  0
VERTEX
  8
0
  10
2.24057765030734
  20
2.89016504294496
  30
0
  0
VERTEX
  8
0
  10
2.08396814363387
  20
2.92838137289061
  30
0
  0
VERTEX
  8
0
  10
1.90836253090816
  20
2.95912744657064
  30
0
  0
VERTEX
  8
0
  10
1.71808480511712
  20
2.98164619361068
  30
0
  0
VERTEX
  8
0
  10
1.5178202353653
  20
2.99538312772318
  30
0
  0
VERTEX
  8
0
  10
1.3125
  20
3
  30
0
  0
VERTEX
  8
0
  10
1.1071797646347
  20
2.99538312772318
  30
0
  0
VERTEX
  8
0
  10
0.906915194882882
  20
2.98164619361068
  30
0
  0
VERTEX
  8
0
  10
0.716637469091845
  20
2.95912744657064
  30
0
  0
VERTEX
  8
0
  10
0.541031856366129
  20
2.92838137289061
  30
0
  0
VERTEX
  8
0
  10
0.384422349692656
  20
2.89016504294496
  30
0
  0
VERTEX
  8
0
  10
0.250665194882882
  20
2.84541946960968
  30
0
  0
VERTEX
  8
0
  10
0.143053937002767
  20
2.79524643740233
  30
0
  0
VERTEX
  8
0
  10
0.0642383223626111
  20
2.74088137289061
  30
0
  0
VERTEX
  8
0
  10
0.0161590529688818
  20
2.68366292439009
  30
0
  0
VERTEX
  8
0
  10
0
  20
2.625
  30
0
  0
VERTEX
  8
0
  10
0.0161590529688818
  20
2.56633707560991
  30
0
  0
VERTEX
  8
0
  10
0.0642383223626108
  20
2.50911862710939
  30
0
  0
VERTEX
  8
0
  10
0.143053937002767
  20
2.45475356259767
  30
0
  0
VERTEX
  8
0
  10
0.250665194882881
  20
2.40458053039032
  30
0
  0
VERTEX
  8
0
  10
0.384422349692656
  20
2.35983495705504
  30
0
  0
VERTEX
  8
0
  10
0.541031856366129
  20
2.32161862710939
  30
0
  0
VERTEX
  8
0
  10
0.716637469091845
  20
2.29087255342936
  30
0
  0
VERTEX
  8
0
  10
0.906915194882881
  20
2.26835380638932
  30
0
  0
VERTEX
  8
0
  10
1.1071797646347
  20
2.25461687227682
  30
0
  0
VERTEX
  8
0
  10
1.3125
  20
2.25
  30
0
  0
VERTEX
  8
0
  10
1.5178202353653
  20
2.25461687227682
  30
0
  0
VERTEX
  8
0
  10
1.71808480511712
  20
2.26835380638932
  30
0
  0
VERTEX
  8
0
  10
1.90836253090816
  20
2.29087255342936
  30
0
  0
VERTEX
  8
0
  10
2.08396814363387
  20
2.32161862710939
  30
0
  0
VERTEX
  8
0
  10
2.24057765030734
  20
2.35983495705504
  30
0
  0
VERTEX
  8
0
  10
2.37433480511712
  20
2.40458053039032
  30
0
  0
VERTEX
  8
0
  10
2.48194606299723
  20
2.45475356259767
  30
0
  0
VERTEX
  8
0
  10
2.56076167763739
  20
2.50911862710939
  30
0
  0
VERTEX
  8
0
  10
2.60884094703112
  20
2.56633707560991
  30
0
  0
SEQEND
  0
ENDBLK
  0
BLOCK
  8
0
  2
ORIFICE
  70
64
  10
0
  20
0
  30
0
  0
POLYLINE
  8
0
  62
0
  66
1
  10
0
  20
0
 40
0
 41
0
 38
0
  0
VERTEX
  8
0
  10
2.5
  20
0.6
  30
0
  0
VERTEX
  8
0
  10
1.66666666666667
  20
0.6
  30
0
  0
VERTEX
  8
0
  10
1.66666666666667
  20
3
  30
0
  0
VERTEX
  8
0
  10
-1.66666666666667
  20
3
  30
0
  0
VERTEX
  8
0
  10
-1.66666666666667
  20
0.6
  30
0
  0
VERTEX
  8
0
  10
-2.5
  20
0.6
  30
0
  0
SEQEND
  0
POLYLINE
  8
0
  62
0
  66
1
  10
0
  20
0
 40
0
 41
0
 38
0
  0
VERTEX
  8
0
  10
2.5
  20
-0.6
  30
0
  0
VERTEX
  8
0
  10
1.66666666666667
  20
-0.6
  30
0
  0
VERTEX
  8
0
  10
1.66666666666667
  20
-3
  30
0
  0
VERTEX
  8
0
  10
-1.66666666666667
  20
-3
  30
0
  0
VERTEX
  8
0
  10
-1.66666666666667
  20
-0.6
  30
0
  0
VERTEX
  8
0
  10
-2.5
  20
-0.6
  30
0
  0
SEQEND
  0
POLYLINE
  8
0
  62
0
  66
1
  10
0
  20
0
 40
0
 41
0
 38
0
  0
VERTEX
  8
0
  10
0
  20
3
  30
0
  0
VERTEX
  8
0
  10
0
  20
1
  30
0
  0
SEQEND
  0
POLYLINE
  8
0
  62
0
  66
1
  10
0
  20
0
 40
0
 41
0
 38
0
  0
VERTEX
  8
0
  10
0
  20
-3
  30
0
  0
VERTEX
  8
0
  10
0
  20
-1
  30
0
  0
SEQEND
  0
ENDBLK
  0
BLOCK
  8
0
  2
HAMMERVALVETOATMOSPHERE
  70
64
  10
0
  20
0
  30
0
  0
POLYLINE
  8
0
  62
0
  66
1
  10
0
  20
0
  70
1
 40
0
 41
0
 38
0
  0
VERTEX
  8
0
  10
-3
  20
3
  30
0
  0
VERTEX
  8
0
  10
-3
  20
-3
  30
0
  0
VERTEX
  8
0
  10
0
  20
0
  30
0
  0
SEQEND
  0
POLYLINE
  8
0
  62
0
  66
1
  10
0
  20
0
  70
1
 40
0
 41
0
 38
0
  0
VERTEX
  8
0
  10
0
  20
0
  30
0
  0
VERTEX
  8
0
  10
3
  20
3
  30
0
  0
VERTEX
  8
0
  10
3
  20
-3
  30
0
  0
SEQEND
  0
POLYLINE
  8
0
  62
0
  66
1
  10
0
  20
0
 40
0
 41
0
 38
0
  0
VERTEX
  8
0
  10
3
  20
0
  30
0
  0
VERTEX
  8
0
  10
4.5
  20
0
  30
0
  0
SEQEND
  0
POLYLINE
  8
0
  62
0
  66
1
  10
0
  20
0
 40
0
 41
0
 38
0
  0
VERTEX
  8
0
  10
-3
  20
0
  30
0
  0
VERTEX
  8
0
  10
-4.5
  20
0
  30
0
  0
SEQEND
  0
POLYLINE
  8
0
  62
0
  66
1
  10
0
  20
0
 40
0
 41
0
 38
0
  0
VERTEX
  8
0
  10
4.5
  20
0.75
  30
0
  0
VERTEX
  8
0
  10
3.75
  20
0
  30
0
  0
VERTEX
  8
0
  10
4.5
  20
-0.75
  30
0
  0
SEQEND
  0
ENDBLK
  0
BLOCK
  8
0
  2
HAMMERCHECKVALVE
  70
64
  10
0
  20
0
  30
0
  0
POLYLINE
  8
0
  62
0
  66
1
  10
0
  20
0
 40
0
 41
0
 38
0
  0
VERTEX
  8
0
  10
3
  20
0.6
  30
0
  0
VERTEX
  8
0
  10
2
  20
0.6
  30
0
  0
VERTEX
  8
0
  10
2
  20
3
  30
0
  0
VERTEX
  8
0
  10
-2
  20
3
  30
0
  0
VERTEX
  8
0
  10
-2
  20
0.6
  30
0
  0
VERTEX
  8
0
  10
-3
  20
0.6
  30
0
  0
SEQEND
  0
POLYLINE
  8
0
  62
0
  66
1
  10
0
  20
0
 40
0
 41
0
 38
0
  0
VERTEX
  8
0
  10
3
  20
-0.6
  30
0
  0
VERTEX
  8
0
  10
2
  20
-0.6
  30
0
  0
VERTEX
  8
0
  10
2
  20
-3
  30
0
  0
VERTEX
  8
0
  10
-2
  20
-3
  30
0
  0
VERTEX
  8
0
  10
-2
  20
-0.6
  30
0
  0
VERTEX
  8
0
  10
-3
  20
-0.6
  30
0
  0
SEQEND
  0
POLYLINE
  8
0
  62
0
  66
1
  10
0
  20
0
 40
0
 41
0
 38
0
  0
VERTEX
  8
0
  10
-2
  20
3
  30
0
  0
VERTEX
  8
0
  10
2
  20
-3
  30
0
  0
SEQEND
  0
ENDBLK
  0
BLOCK
  8
0
  2
SURGETANK
  70
64
  10
0
  20
0
  30
0
  0
POLYLINE
  8
0
  62
0
  66
1
  10
0
  20
0
 40
0
 41
0
 38
0
  0
VERTEX
  8
0
  10
-2.5
  20
3.25
  30
0
  0
VERTEX
  8
0
  10
-2.5
  20
-2
  30
0
  0
SEQEND
  0
POLYLINE
  8
0
  62
0
  66
1
  10
0
  20
0
 40
0
 41
0
 38
0
  0
VERTEX
  8
0
  10
2.5
  20
-2
  30
0
  0
VERTEX
  8
0
  10
2.5
  20
3.25
  30
0
  0
SEQEND
  0
POLYLINE
  8
0
  62
0
  66
1
  10
0
  20
0
  70
1
 40
0
 41
0
 38
0
  0
VERTEX
  8
0
  10
-0.833333333333333
  20
2
  30
0
  0
VERTEX
  8
0
  10
0.833333333333333
  20
2
  30
0
  0
VERTEX
  8
0
  10
0
  20
1
  30
0
  0
SEQEND
  0
POLYLINE
  8
0
  62
0
  66
1
  10
0
  20
0
 40
0
 41
0
 38
0
  0
VERTEX
  8
0
  10
-2.5
  20
1
  30
0
  0
VERTEX
  8
0
  10
2.5
  20
1
  30
0
  0
SEQEND
  0
POLYLINE
  8
0
  62
0
  66
1
  10
0
  20
0
 40
0
 41
0
 38
0
  0
VERTEX
  8
0
  10
-0.416666666666667
  20
0.8
  30
0
  0
VERTEX
  8
0
  10
0.416666666666667
  20
0.8
  30
0
  0
SEQEND
  0
POLYLINE
  8
0
  62
0
  66
1
  10
0
  20
0
 40
0
 41
0
 38
0
  0
VERTEX
  8
0
  10
-2.5
  20
3.25
  30
0
  0
VERTEX
  8
0
  10
2.5
  20
3.25
  30
0
  0
SEQEND
  0
ARC
  8
0
  62
0
  10
0
  20
-2
  40
2.5
  50
180
  51
360
  0
ENDBLK
  0
BLOCK
  8
0
  2
VALVEWITHLINEARAREACHANGE
  70
64
  10
0
  20
0
  30
0
  0
POLYLINE
  8
0
  62
0
  66
1
  10
0
  20
0
  70
1
 40
0
 41
0
 38
0
  0
VERTEX
  8
0
  10
-3
  20
3
  30
0
  0
VERTEX
  8
0
  10
-3
  20
-3
  30
0
  0
VERTEX
  8
0
  10
0
  20
0
  30
0
  0
SEQEND
  0
POLYLINE
  8
0
  62
0
  66
1
  10
0
  20
0
  70
1
 40
0
 41
0
 38
0
  0
VERTEX
  8
0
  10
0
  20
0
  30
0
  0
VERTEX
  8
0
  10
3
  20
3
  30
0
  0
VERTEX
  8
0
  10
3
  20
-3
  30
0
  0
SEQEND
  0
POLYLINE
  8
0
  62
0
  66
1
  10
0
  20
0
 40
0
 41
0
 38
0
  0
VERTEX
  8
0
  10
-0.9
  20
0.9
  30
0
  0
VERTEX
  8
0
  10
-0.9
  20
3.6
  30
0
  0
VERTEX
  8
0
  10
0.9
  20
3.6
  30
0
  0
VERTEX
  8
0
  10
0.9
  20
0.9
  30
0
  0
SEQEND
  0
ENDBLK
  0
BLOCK
  8
0
  2
HEADWALL
  70
64
  10
0
  20
0
  30
0
  0
POLYLINE
  8
0
  62
0
  66
1
  10
0
  20
0
 40
0
 41
0
 38
0
  0
VERTEX
  8
0
  10
-1.2
  20
-3
  30
0
  0
VERTEX
  8
0
  10
2
  20
-0.75
  30
0
  0
SEQEND
  0
POLYLINE
  8
0
  62
0
  66
1
  10
0
  20
0
 40
0
 41
0
 38
0
  0
VERTEX
  8
0
  10
-1.2
  20
3
  30
0
  0
VERTEX
  8
0
  10
2
  20
0.75
  30
0
  0
SEQEND
  0
POLYLINE
  8
0
  62
0
  66
1
  10
0
  20
0
 40
0
 41
0
 38
0
  0
VERTEX
  8
0
  10
2
  20
-0.75
  30
0
  0
VERTEX
  8
0
  10
2
  20
0.75
  30
0
  0
SEQEND
  0
ENDBLK
  0
BLOCK
  8
0
  2
CUSTOMER
  70
64
  10
0
  20
0
  30
0
  0
POLYLINE
  8
0
  62
0
  66
1
  10
0
  20
0
  70
1
 40
0
 41
0
 38
0
  0
VERTEX
  8
0
  10
-3.5
  20
-0.416363501240312
  30
0
  0
VERTEX
  8
0
  10
-2.86421257159897
  20
-0.416363501240312
  30
0
  0
VERTEX
  8
0
  10
-2.86421257159897
  20
-3.25
  30
0
  0
VERTEX
  8
0
  10
2.86421257159901
  20
-3.25
  30
0
  0
VERTEX
  8
0
  10
2.86421257159901
  20
-0.416363501240312
  30
0
  0
VERTEX
  8
0
  10
3.5
  20
-0.416363501240312
  30
0
  0
VERTEX
  8
0
  10
-4.44089209850063E-16
  20
3.25
  30
0
  0
VERTEX
  8
0
  10
-1.32484963526635
  20
1.86217704360794
  30
0
  0
VERTEX
  8
0
  10
-1.32484963526635
  20
2.72722580882371
  30
0
  0
VERTEX
  8
0
  10
-2.4866329834419
  20
2.72722580882371
  30
0
  0
VERTEX
  8
0
  10
-2.4866329834419
  20
0.645171311008057
  30
0
  0
VERTEX
  8
0
  10
-3.5
  20
-0.416363501240312
  30
0
  0
SEQEND
  0
ENDBLK
  0
BLOCK
  8
0
  2
SCADAELEMENT
  70
64
  10
0
  20
0
  30
0
  0
POLYLINE
  8
0
  62
0
  66
1
  10
0
  20
0
  70
1
 40
0
 41
0
 38
0
  0
VERTEX
  8
0
  10
0
  20
1.91713567364732
  30
0
  0
VERTEX
  8
0
  10
0
  20
3
  30
0
  0
VERTEX
  8
0
  10
-3
  20
3
  30
0
  0
VERTEX
  8
0
  10
-3
  20
-3
  30
0
  0
VERTEX
  8
0
  10
0
  20
-3
  30
0
  0
VERTEX
  8
0
  10
0
  20
-2.1340323576012
  30
0
  0
VERTEX
  8
0
  10
-0.0470106955888369
  20
-2.13157925918268
  30
0
  0
VERTEX
  8
0
  10
-0.0962996436561475
  20
-2.1236469929938
  30
0
  0
VERTEX
  8
0
  10
-0.157075664359468
  20
-2.1058392813787
  30
0
  0
VERTEX
  8
0
  10
-0.211430333113993
  20
-2.08148920344326
  30
0
  0
VERTEX
  8
0
  10
-0.267417489093601
  20
-2.04635717020209
  30
0
  0
VERTEX
  8
0
  10
-0.319371867148948
  20
-2.00174462783641
  30
0
  0
VERTEX
  8
0
  10
-0.364794028965477
  20
-1.9486847575277
  30
0
  0
VERTEX
  8
0
  10
-0.403455377481408
  20
-1.88540101143776
  30
0
  0
VERTEX
  8
0
  10
-0.430728785009296
  20
-1.81827472323902
  30
0
  0
VERTEX
  8
0
  10
-0.446634311574839
  20
-1.74956139057942
  30
0
  0
VERTEX
  8
0
  10
-0.451659596913739
  20
-1.68237379650271
  30
0
  0
VERTEX
  8
0
  10
-0.447433781104369
  20
-1.62073456989659
  30
0
  0
VERTEX
  8
0
  10
-0.433947779947748
  20
-1.55713131540958
  30
0
  0
VERTEX
  8
0
  10
-0.417451820945673
  20
-1.50994903665787
  30
0
  0
VERTEX
  8
0
  10
-0.381184020544528
  20
-1.44010331137
  30
0
  0
VERTEX
  8
0
  10
-0.333817041535503
  20
-1.37813321712754
  30
0
  0
VERTEX
  8
0
  10
-0.272718254106163
  20
-1.32234494396277
  30
0
  0
VERTEX
  8
0
  10
-0.199696946734622
  20
-1.27726023344212
  30
0
  0
VERTEX
  8
0
  10
-0.127801432038139
  20
-1.24917347962975
  30
0
  0
VERTEX
  8
0
  10
-0.0607889535933684
  20
-1.23482459823981
  30
0
  0
VERTEX
  8
0
  10
0
  20
-1.23071523540422
  30
0
  0
VERTEX
  8
0
  10
0
  20
-0.363822893396559
  30
0
  0
VERTEX
  8
0
  10
-0.131810444754927
  20
-0.369643186971265
  30
0
  0
VERTEX
  8
0
  10
-0.290889092899581
  20
-0.390907614678772
  30
0
  0
VERTEX
  8
0
  10
-0.429610074221232
  20
-0.422636941976737
  30
0
  0
VERTEX
  8
0
  10
-0.618129086537295
  20
-0.486914180685657
  30
0
  0
VERTEX
  8
0
  10
-0.802933831932317
  20
-0.576531309425407
  30
0
  0
VERTEX
  8
0
  10
-0.977500260864244
  20
-0.690209230456477
  30
0
  0
VERTEX
  8
0
  10
-1.16048062480929
  20
-0.848797248862784
  30
0
  0
VERTEX
  8
0
  10
-1.64221425968752
  20
-0.339889178679556
  30
0
  0
VERTEX
  8
0
  10
-1.50453897027223
  20
-0.214398379162644
  30
0
  0
VERTEX
  8
0
  10
-1.32495568844728
  20
-0.0775044464974532
  30
0
  0
VERTEX
  8
0
  10
-1.11956364660338
  20
0.0489310143144967
  30
0
  0
VERTEX
  8
0
  10
-0.881889754123368
  20
0.162072751648919
  30
0
  0
VERTEX
  8
0
  10
-0.628510132863042
  20
0.249169355825186
  30
0
  0
VERTEX
  8
0
  10
-0.416488505020075
  20
0.298277328780763
  30
0
  0
VERTEX
  8
0
  10
-0.176226244063866
  20
0.329588671143345
  30
0
  0
VERTEX
  8
0
  10
0
  20
0.336707859893276
  30
0
  0
VERTEX
  8
0
  10
0
  20
1.12849827746807
  30
0
  0
VERTEX
  8
0
  10
-0.339795421590807
  20
1.10861646787871
  30
0
  0
VERTEX
  8
0
  10
-0.649142654152356
  20
1.05786613057046
  30
0
  0
VERTEX
  8
0
  10
-1.04695817261463
  20
0.944111446587548
  30
0
  0
VERTEX
  8
0
  10
-1.37773988568312
  20
0.803576921692814
  30
0
  0
VERTEX
  8
0
  10
-1.65643212604041
  20
0.647720571557876
  30
0
  0
VERTEX
  8
0
  10
-1.92660753965681
  20
0.457498635279747
  30
0
  0
VERTEX
  8
0
  10
-2.18011264302888
  20
0.235231041324221
  30
0
  0
VERTEX
  8
0
  10
-2.72231961956566
  20
0.808023734404429
  30
0
  0
VERTEX
  8
0
  10
-2.46061081470045
  20
1.04029402313579
  30
0
  0
VERTEX
  8
0
  10
-2.21203249610563
  20
1.22606719003666
  30
0
  0
VERTEX
  8
0
  10
-1.93706445438285
  20
1.39881537457675
  30
0
  0
VERTEX
  8
0
  10
-1.51994088981423
  20
1.60562270027602
  30
0
  0
VERTEX
  8
0
  10
-1.10159414430992
  20
1.75566495410494
  30
0
  0
VERTEX
  8
0
  10
-0.73648730022736
  20
1.84496952862765
  30
0
  0
VERTEX
  8
0
  10
-0.311610069279907
  20
1.90371400005568
  30
0
  0
VERTEX
  8
0
  10
0
  20
1.91713567364732
  30
0
  0
SEQEND
  0
POLYLINE
  8
0
  62
0
  66
1
  10
0
  20
0
  70
1
 40
0
 41
0
 38
0
  0
VERTEX
  8
0
  10
0
  20
1.91713567364732
  30
0
  0
VERTEX
  8
0
  10
0
  20
3
  30
0
  0
VERTEX
  8
0
  10
3
  20
3
  30
0
  0
VERTEX
  8
0
  10
3
  20
-3
  30
0
  0
VERTEX
  8
0
  10
0
  20
-3
  30
0
  0
VERTEX
  8
0
  10
0
  20
-2.1340323576012
  30
0
  0
VERTEX
  8
0
  10
0.0470106955888369
  20
-2.13157925918268
  30
0
  0
VERTEX
  8
0
  10
0.0962996436561475
  20
-2.1236469929938
  30
0
  0
VERTEX
  8
0
  10
0.157075664359468
  20
-2.1058392813787
  30
0
  0
VERTEX
  8
0
  10
0.211430333113993
  20
-2.08148920344326
  30
0
  0
VERTEX
  8
0
  10
0.267417489093601
  20
-2.04635717020209
  30
0
  0
VERTEX
  8
0
  10
0.319371867148948
  20
-2.00174462783641
  30
0
  0
VERTEX
  8
0
  10
0.364794028965477
  20
-1.9486847575277
  30
0
  0
VERTEX
  8
0
  10
0.403455377481408
  20
-1.88540101143776
  30
0
  0
VERTEX
  8
0
  10
0.430728785009296
  20
-1.81827472323902
  30
0
  0
VERTEX
  8
0
  10
0.446634311574839
  20
-1.74956139057942
  30
0
  0
VERTEX
  8
0
  10
0.451659596913739
  20
-1.68237379650271
  30
0
  0
VERTEX
  8
0
  10
0.447433781104369
  20
-1.62073456989659
  30
0
  0
VERTEX
  8
0
  10
0.433947779947748
  20
-1.55713131540958
  30
0
  0
VERTEX
  8
0
  10
0.417451820945673
  20
-1.50994903665787
  30
0
  0
VERTEX
  8
0
  10
0.381184020544528
  20
-1.44010331137
  30
0
  0
VERTEX
  8
0
  10
0.333817041535503
  20
-1.37813321712754
  30
0
  0
VERTEX
  8
0
  10
0.272718254106163
  20
-1.32234494396277
  30
0
  0
VERTEX
  8
0
  10
0.199696946734622
  20
-1.27726023344212
  30
0
  0
VERTEX
  8
0
  10
0.127801432038139
  20
-1.24917347962975
  30
0
  0
VERTEX
  8
0
  10
0.0607889535933684
  20
-1.23482459823981
  30
0
  0
VERTEX
  8
0
  10
0
  20
-1.23071523540422
  30
0
  0
VERTEX
  8
0
  10
0
  20
-0.363822893396559
  30
0
  0
VERTEX
  8
0
  10
0.131810444754927
  20
-0.369643186971265
  30
0
  0
VERTEX
  8
0
  10
0.290889092899581
  20
-0.390907614678772
  30
0
  0
VERTEX
  8
0
  10
0.429610074221232
  20
-0.422636941976737
  30
0
  0
VERTEX
  8
0
  10
0.618129086537295
  20
-0.486914180685657
  30
0
  0
VERTEX
  8
0
  10
0.802933831932317
  20
-0.576531309425407
  30
0
  0
VERTEX
  8
0
  10
0.977500260864244
  20
-0.690209230456477
  30
0
  0
VERTEX
  8
0
  10
1.16048062480929
  20
-0.848797248862784
  30
0
  0
VERTEX
  8
0
  10
1.64221425968752
  20
-0.339889178679556
  30
0
  0
VERTEX
  8
0
  10
1.50453897027223
  20
-0.214398379162644
  30
0
  0
VERTEX
  8
0
  10
1.32495568844728
  20
-0.0775044464974532
  30
0
  0
VERTEX
  8
0
  10
1.11956364660338
  20
0.0489310143144967
  30
0
  0
VERTEX
  8
0
  10
0.881889754123368
  20
0.162072751648919
  30
0
  0
VERTEX
  8
0
  10
0.628510132863042
  20
0.249169355825186
  30
0
  0
VERTEX
  8
0
  10
0.416488505020075
  20
0.298277328780763
  30
0
  0
VERTEX
  8
0
  10
0.176226244063866
  20
0.329588671143345
  30
0
  0
VERTEX
  8
0
  10
0
  20
0.336707859893276
  30
0
  0
VERTEX
  8
0
  10
0
  20
1.12849827746807
  30
0
  0
VERTEX
  8
0
  10
0.339795421590807
  20
1.10861646787871
  30
0
  0
VERTEX
  8
0
  10
0.649142654152356
  20
1.05786613057046
  30
0
  0
VERTEX
  8
0
  10
1.04695817261463
  20
0.944111446587548
  30
0
  0
VERTEX
  8
0
  10
1.37773988568312
  20
0.803576921692814
  30
0
  0
VERTEX
  8
0
  10
1.65643212604041
  20
0.647720571557876
  30
0
  0
VERTEX
  8
0
  10
1.92660753965681
  20
0.457498635279747
  30
0
  0
VERTEX
  8
0
  10
2.18011264302888
  20
0.235231041324221
  30
0
  0
VERTEX
  8
0
  10
2.72231961956566
  20
0.808023734404429
  30
0
  0
VERTEX
  8
0
  10
2.46061081470045
  20
1.04029402313579
  30
0
  0
VERTEX
  8
0
  10
2.21203249610563
  20
1.22606719003666
  30
0
  0
VERTEX
  8
0
  10
1.93706445438285
  20
1.39881537457675
  30
0
  0
VERTEX
  8
0
  10
1.51994088981423
  20
1.60562270027602
  30
0
  0
VERTEX
  8
0
  10
1.10159414430992
  20
1.75566495410494
  30
0
  0
VERTEX
  8
0
  10
0.73648730022736
  20
1.84496952862765
  30
0
  0
VERTEX
  8
0
  10
0.311610069279907
  20
1.90371400005568
  30
0
  0
VERTEX
  8
0
  10
0
  20
1.91713567364732
  30
0
  0
SEQEND
  0
ENDBLK
  0
BLOCK
  8
0
  2
TAPNODE
  70
64
  10
0
  20
0
  30
0
  0
CIRCLE
  8
0
  62
0
  10
0
  20
0
  40
1.2
  0
ENDBLK
  0
BLOCK
  8
0
  2
FIRE
  70
64
  10
0
  20
0
  30
0
  0
POLYLINE
  8
0
  62
0
  66
1
  10
0
  20
0
  70
1
 40
0
 41
0
 38
0
  0
VERTEX
  8
0
  10
3.14
  20
0.06
  30
0
  0
VERTEX
  8
0
  10
3.1
  20
0.2
  30
0
  0
VERTEX
  8
0
  10
3.02
  20
0.46
  30
0
  0
VERTEX
  8
0
  10
2.98
  20
0.62
  30
0
  0
VERTEX
  8
0
  10
2.92
  20
0.9
  30
0
  0
VERTEX
  8
0
  10
2.86
  20
1.28
  30
0
  0
VERTEX
  8
0
  10
2.82
  20
1.56
  30
0
  0
VERTEX
  8
0
  10
2.82
  20
1.74
  30
0
  0
VERTEX
  8
0
  10
2.86
  20
2.14
  30
0
  0
VERTEX
  8
0
  10
2.94
  20
2.42
  30
0
  0
VERTEX
  8
0
  10
3
  20
2.64
  30
0
  0
VERTEX
  8
0
  10
3.12
  20
2.8
  30
0
  0
VERTEX
  8
0
  10
3.16
  20
2.84
  30
0
  0
VERTEX
  8
0
  10
2.96
  20
2.78
  30
0
  0
VERTEX
  8
0
  10
2.8
  20
2.72
  30
0
  0
VERTEX
  8
0
  10
2.46
  20
2.52
  30
0
  0
VERTEX
  8
0
  10
2.22
  20
2.34
  30
0
  0
VERTEX
  8
0
  10
2.06
  20
2.2
  30
0
  0
VERTEX
  8
0
  10
1.92
  20
2.04
  30
0
  0
VERTEX
  8
0
  10
1.66
  20
1.7
  30
0
  0
VERTEX
  8
0
  10
1.54
  20
1.5
  30
0
  0
VERTEX
  8
0
  10
1.4
  20
1.12
  30
0
  0
VERTEX
  8
0
  10
1.32
  20
0.76
  30
0
  0
VERTEX
  8
0
  10
1.32
  20
0.54
  30
0
  0
VERTEX
  8
0
  10
1.36
  20
0.38
  30
0
  0
VERTEX
  8
0
  10
1.06
  20
0.64
  30
0
  0
VERTEX
  8
0
  10
0.76
  20
0.96
  30
0
  0
VERTEX
  8
0
  10
0.44
  20
1.32
  30
0
  0
VERTEX
  8
0
  10
0.16
  20
1.7
  30
0
  0
VERTEX
  8
0
  10
0.06
  20
1.86
  30
0
  0
VERTEX
  8
0
  10
0
  20
1.96
  30
0
  0
VERTEX
  8
0
  10
-0.06
  20
2.04
  30
0
  0
VERTEX
  8
0
  10
-0.28
  20
2.52
  30
0
  0
VERTEX
  8
0
  10
-0.58
  20
3.42
  30
0
  0
VERTEX
  8
0
  10
-0.64
  20
4.26
  30
0
  0
VERTEX
  8
0
  10
-0.58
  20
4.78
  30
0
  0
VERTEX
  8
0
  10
-0.48
  20
5.22
  30
0
  0
VERTEX
  8
0
  10
-0.3
  20
5.68
  30
0
  0
VERTEX
  8
0
  10
-0.18
  20
5.98
  30
0
  0
VERTEX
  8
0
  10
-0.3
  20
5.96
  30
0
  0
VERTEX
  8
0
  10
-0.68
  20
5.76
  30
0
  0
VERTEX
  8
0
  10
-1.32
  20
5.24
  30
0
  0
VERTEX
  8
0
  10
-1.76
  20
4.68
  30
0
  0
VERTEX
  8
0
  10
-2.26
  20
3.56
  30
0
  0
VERTEX
  8
0
  10
-2.38
  20
2.8
  30
0
  0
VERTEX
  8
0
  10
-2.34
  20
1.98
  30
0
  0
VERTEX
  8
0
  10
-2.26
  20
1.64
  30
0
  0
VERTEX
  8
0
  10
-2.14
  20
1.1
  30
0
  0
VERTEX
  8
0
  10
-1.96
  20
0.48
  30
0
  0
VERTEX
  8
0
  10
-1.96
  20
0.1
  30
0
  0
VERTEX
  8
0
  10
-1.96
  20
-0.08
  30
0
  0
VERTEX
  8
0
  10
-2
  20
-0.26
  30
0
  0
VERTEX
  8
0
  10
-2.06
  20
-0.46
  30
0
  0
VERTEX
  8
0
  10
-2.1
  20
-0.62
  30
0
  0
VERTEX
  8
0
  10
-2.18
  20
-0.9
  30
0
  0
VERTEX
  8
0
  10
-2.26
  20
-1.04
  30
0
  0
VERTEX
  8
0
  10
-2.36
  20
-1.12
  30
0
  0
VERTEX
  8
0
  10
-2.46
  20
-1.18
  30
0
  0
VERTEX
  8
0
  10
-2.42
  20
-0.84
  30
0
  0
VERTEX
  8
0
  10
-2.4
  20
-0.7
  30
0
  0
VERTEX
  8
0
  10
-2.38
  20
-0.52
  30
0
  0
VERTEX
  8
0
  10
-2.38
  20
-0.34
  30
0
  0
VERTEX
  8
0
  10
-2.38
  20
-0.24
  30
0
  0
VERTEX
  8
0
  10
-2.39
  20
-0.14
  30
0
  0
VERTEX
  8
0
  10
-2.4
  20
-0.04
  30
0
  0
VERTEX
  8
0
  10
-2.42
  20
0.1
  30
0
  0
VERTEX
  8
0
  10
-2.44
  20
0.28
  30
0
  0
VERTEX
  8
0
  10
-2.46
  20
0.36
  30
0
  0
VERTEX
  8
0
  10
-2.54
  20
0.62
  30
0
  0
VERTEX
  8
0
  10
-2.62
  20
0.78
  30
0
  0
VERTEX
  8
0
  10
-2.84
  20
1.14
  30
0
  0
VERTEX
  8
0
  10
-2.9
  20
1.24
  30
0
  0
VERTEX
  8
0
  10
-3.04
  20
1.38
  30
0
  0
VERTEX
  8
0
  10
-3.3
  20
1.64
  30
0
  0
VERTEX
  8
0
  10
-3.64
  20
1.86
  30
0
  0
VERTEX
  8
0
  10
-3.74
  20
1.9
  30
0
  0
VERTEX
  8
0
  10
-3.74
  20
1.76
  30
0
  0
VERTEX
  8
0
  10
-3.7
  20
1.54
  30
0
  0
VERTEX
  8
0
  10
-3.68
  20
1.34
  30
0
  0
VERTEX
  8
0
  10
-3.64
  20
0.74
  30
0
  0
VERTEX
  8
0
  10
-3.66
  20
0.38
  30
0
  0
VERTEX
  8
0
  10
-3.7
  20
0.16
  30
0
  0
VERTEX
  8
0
  10
-3.72
  20
0.02
  30
0
  0
VERTEX
  8
0
  10
-3.76
  20
-0.16
  30
0
  0
VERTEX
  8
0
  10
-3.82
  20
-0.34
  30
0
  0
VERTEX
  8
0
  10
-3.9
  20
-0.48
  30
0
  0
VERTEX
  8
0
  10
-3.98
  20
-0.58
  30
0
  0
VERTEX
  8
0
  10
-4.04
  20
-0.64
  30
0
  0
VERTEX
  8
0
  10
-4.12
  20
-0.74
  30
0
  0
VERTEX
  8
0
  10
-4.22
  20
-0.86
  30
0
  0
VERTEX
  8
0
  10
-4.32
  20
-1.02
  30
0
  0
VERTEX
  8
0
  10
-4.38
  20
-1.1
  30
0
  0
VERTEX
  8
0
  10
-4.44
  20
-1.2
  30
0
  0
VERTEX
  8
0
  10
-4.7
  20
-1.74
  30
0
  0
VERTEX
  8
0
  10
-4.98
  20
-2.8
  30
0
  0
VERTEX
  8
0
  10
-4.96
  20
-3.26
  30
0
  0
VERTEX
  8
0
  10
-4.66
  20
-4.12
  30
0
  0
VERTEX
  8
0
  10
-4.4
  20
-4.5
  30
0
  0
VERTEX
  8
0
  10
-4.18
  20
-4.8
  30
0
  0
VERTEX
  8
0
  10
-3.94
  20
-4.96
  30
0
  0
VERTEX
  8
0
  10
-3.76
  20
-5.1
  30
0
  0
VERTEX
  8
0
  10
-3.4
  20
-5.3
  30
0
  0
VERTEX
  8
0
  10
-2.94
  20
-5.5
  30
0
  0
VERTEX
  8
0
  10
-2.36
  20
-5.7
  30
0
  0
VERTEX
  8
0
  10
-1.76
  20
-5.88
  30
0
  0
VERTEX
  8
0
  10
-0.96
  20
-6
  30
0
  0
VERTEX
  8
0
  10
-0.4
  20
-6.04
  30
0
  0
VERTEX
  8
0
  10
0
  20
-6.05
  30
0
  0
VERTEX
  8
0
  10
0.32
  20
-6
  30
0
  0
VERTEX
  8
0
  10
0.62
  20
-5.92
  30
0
  0
VERTEX
  8
0
  10
1.06
  20
-5.8
  30
0
  0
VERTEX
  8
0
  10
1.4
  20
-5.68
  30
0
  0
VERTEX
  8
0
  10
1.9
  20
-5.46
  30
0
  0
VERTEX
  8
0
  10
2.72
  20
-5.02
  30
0
  0
VERTEX
  8
0
  10
3.32
  20
-4.48
  30
0
  0
VERTEX
  8
0
  10
3.7
  20
-3.96
  30
0
  0
VERTEX
  8
0
  10
3.92
  20
-3.36
  30
0
  0
VERTEX
  8
0
  10
4.02
  20
-2.9
  30
0
  0
VERTEX
  8
0
  10
4.02
  20
-2.78
  30
0
  0
VERTEX
  8
0
  10
4
  20
-2.46
  30
0
  0
VERTEX
  8
0
  10
3.94
  20
-1.96
  30
0
  0
VERTEX
  8
0
  10
3.7
  20
-1.22
  30
0
  0
VERTEX
  8
0
  10
3.4
  20
-0.56
  30
0
  0
VERTEX
  8
0
  10
3.18
  20
-0.04
  30
0
  0
SEQEND
  0
ENDBLK
  0
BLOCK
  8
0
  2
PIPEBREAK
  70
64
  10
0
  20
0
  30
0
  0
POLYLINE
  8
0
  62
0
  66
1
  10
0
  20
0
  70
1
 40
0
 41
0
 38
0
  0
VERTEX
  8
0
  10
0.5
  20
1.5
  30
0
  0
VERTEX
  8
0
  10
3.3
  20
1.5
  30
0
  0
VERTEX
  8
0
  10
3.38
  20
1.4
  30
0
  0
VERTEX
  8
0
  10
3.46
  20
1.3
  30
0
  0
VERTEX
  8
0
  10
3.5
  20
1.2
  30
0
  0
VERTEX
  8
0
  10
3.5
  20
-1.2
  30
0
  0
VERTEX
  8
0
  10
3.46
  20
-1.3
  30
0
  0
VERTEX
  8
0
  10
3.38
  20
-1.4
  30
0
  0
VERTEX
  8
0
  10
3.3
  20
-1.5
  30
0
  0
VERTEX
  8
0
  10
0.5
  20
-1.5
  30
0
  0
SEQEND
  0
POLYLINE
  8
0
  62
0
  66
1
  10
0
  20
0
  70
1
 40
0
 41
0
 38
0
  0
VERTEX
  8
0
  10
-0.5
  20
1.5
  30
0
  0
VERTEX
  8
0
  10
-3.3
  20
1.5
  30
0
  0
VERTEX
  8
0
  10
-3.38
  20
1.4
  30
0
  0
VERTEX
  8
0
  10
-3.46
  20
1.3
  30
0
  0
VERTEX
  8
0
  10
-3.5
  20
1.2
  30
0
  0
VERTEX
  8
0
  10
-3.5
  20
-1.2
  30
0
  0
VERTEX
  8
0
  10
-3.46
  20
-1.3
  30
0
  0
VERTEX
  8
0
  10
-3.38
  20
-1.4
  30
0
  0
VERTEX
  8
0
  10
-3.3
  20
-1.5
  30
0
  0
VERTEX
  8
0
  10
-0.5
  20
-1.5
  30
0
  0
SEQEND
  0
POLYLINE
  8
0
  62
0
  66
1
  10
0
  20
0
  70
1
 40
0
 41
0
 38
0
  0
VERTEX
  8
0
  10
-0.2
  20
2
  30
0
  0
VERTEX
  8
0
  10
0.2
  20
2
  30
0
  0
VERTEX
  8
0
  10
0.2
  20
4
  30
0
  0
VERTEX
  8
0
  10
-0.2
  20
4
  30
0
  0
SEQEND
  0
POLYLINE
  8
0
  62
0
  66
1
  10
0
  20
0
  70
1
 40
0
 41
0
 38
0
  0
VERTEX
  8
0
  10
0.8
  20
2
  30
0
  0
VERTEX
  8
0
  10
1.2
  20
2
  30
0
  0
VERTEX
  8
0
  10
2.7
  20
3.8
  30
0
  0
VERTEX
  8
0
  10
2.3
  20
3.8
  30
0
  0
SEQEND
  0
POLYLINE
  8
0
  62
0
  66
1
  10
0
  20
0
  70
1
 40
0
 41
0
 38
0
  0
VERTEX
  8
0
  10
-1.2
  20
2
  30
0
  0
VERTEX
  8
0
  10
-0.8
  20
2
  30
0
  0
VERTEX
  8
0
  10
-2.3
  20
3.8
  30
0
  0
VERTEX
  8
0
  10
-2.7
  20
3.8
  30
0
  0
SEQEND
  0
POLYLINE
  8
0
  62
0
  66
1
  10
0
  20
0
  70
1
 40
0
 41
0
 38
0
  0
VERTEX
  8
0
  10
-0.2
  20
-2
  30
0
  0
VERTEX
  8
0
  10
0.2
  20
-2
  30
0
  0
VERTEX
  8
0
  10
0.2
  20
-4
  30
0
  0
VERTEX
  8
0
  10
-0.2
  20
-4
  30
0
  0
SEQEND
  0
POLYLINE
  8
0
  62
0
  66
1
  10
0
  20
0
  70
1
 40
0
 41
0
 38
0
  0
VERTEX
  8
0
  10
0.8
  20
-2
  30
0
  0
VERTEX
  8
0
  10
1.2
  20
-2
  30
0
  0
VERTEX
  8
0
  10
2.7
  20
-3.8
  30
0
  0
VERTEX
  8
0
  10
2.3
  20
-3.8
  30
0
  0
SEQEND
  0
POLYLINE
  8
0
  62
0
  66
1
  10
0
  20
0
  70
1
 40
0
 41
0
 38
0
  0
VERTEX
  8
0
  10
-1.2
  20
-2
  30
0
  0
VERTEX
  8
0
  10
-0.8
  20
-2
  30
0
  0
VERTEX
  8
0
  10
-2.3
  20
-3.8
  30
0
  0
VERTEX
  8
0
  10
-2.7
  20
-3.8
  30
0
  0
SEQEND
  0
ENDBLK
  0
BLOCK
  8
0
  2
ISOLATEBREAK
  70
64
  10
0
  20
0
  30
0
  0
POLYLINE
  8
0
  62
0
  66
1
  10
0
  20
0
  70
1
 40
0
 41
0
 38
0
  0
VERTEX
  8
0
  10
2.12132034355964
  20
2.12132034355964
  30
0
  0
VERTEX
  8
0
  10
2.28121789680009
  20
1.94834414499055
  30
0
  0
VERTEX
  8
0
  10
2.42705098312484
  20
1.76335575687742
  30
0
  0
VERTEX
  8
0
  10
2.55792049306228
  20
1.56749569414785
  30
0
  0
VERTEX
  8
0
  10
2.6730195725651
  20
1.36197149921864
  30
0
  0
VERTEX
  8
0
  10
2.77163859753386
  20
1.14805029709527
  30
0
  0
VERTEX
  8
0
  10
2.85316954888546
  20
0.927050983124842
  30
0
  0
VERTEX
  8
0
  10
2.91710976119303
  20
0.700336091567716
  30
0
  0
VERTEX
  8
0
  10
2.96306502178541
  20
0.469303395120693
  30
0
  0
VERTEX
  8
0
  10
2.99075200119938
  20
0.235377287183535
  30
0
  0
VERTEX
  8
0
  10
3
  20
1.83690953073357E-16
  30
0
  0
VERTEX
  8
0
  10
2.99075200119938
  20
-0.235377287183535
  30
0
  0
VERTEX
  8
0
  10
2.96306502178541
  20
-0.469303395120692
  30
0
  0
VERTEX
  8
0
  10
2.91710976119303
  20
-0.700336091567716
  30
0
  0
VERTEX
  8
0
  10
2.85316954888546
  20
-0.927050983124842
  30
0
  0
VERTEX
  8
0
  10
2.77163859753386
  20
-1.14805029709527
  30
0
  0
VERTEX
  8
0
  10
2.6730195725651
  20
-1.36197149921864
  30
0
  0
VERTEX
  8
0
  10
2.55792049306228
  20
-1.56749569414785
  30
0
  0
VERTEX
  8
0
  10
2.42705098312484
  20
-1.76335575687742
  30
0
  0
VERTEX
  8
0
  10
2.28121789680009
  20
-1.94834414499055
  30
0
  0
VERTEX
  8
0
  10
0
  20
0
  30
0
  0
SEQEND
  0
POLYLINE
  8
0
  62
0
  66
1
  10
0
  20
0
  70
1
 40
0
 41
0
 38
0
  0
VERTEX
  8
0
  10
-2.12132034355964
  20
2.12132034355964
  30
0
  0
VERTEX
  8
0
  10
-2.28121789680009
  20
1.94834414499055
  30
0
  0
VERTEX
  8
0
  10
-2.42705098312484
  20
1.76335575687742
  30
0
  0
VERTEX
  8
0
  10
-2.55792049306228
  20
1.56749569414785
  30
0
  0
VERTEX
  8
0
  10
-2.6730195725651
  20
1.36197149921864
  30
0
  0
VERTEX
  8
0
  10
-2.77163859753386
  20
1.14805029709527
  30
0
  0
VERTEX
  8
0
  10
-2.85316954888546
  20
0.927050983124842
  30
0
  0
VERTEX
  8
0
  10
-2.91710976119303
  20
0.700336091567716
  30
0
  0
VERTEX
  8
0
  10
-2.96306502178541
  20
0.469303395120693
  30
0
  0
VERTEX
  8
0
  10
-2.99075200119938
  20
0.235377287183535
  30
0
  0
VERTEX
  8
0
  10
-3
  20
1.83690953073357E-16
  30
0
  0
VERTEX
  8
0
  10
-2.99075200119938
  20
-0.235377287183535
  30
0
  0
VERTEX
  8
0
  10
-2.96306502178541
  20
-0.469303395120692
  30
0
  0
VERTEX
  8
0
  10
-2.91710976119303
  20
-0.700336091567716
  30
0
  0
VERTEX
  8
0
  10
-2.85316954888546
  20
-0.927050983124842
  30
0
  0
VERTEX
  8
0
  10
-2.77163859753386
  20
-1.14805029709527
  30
0
  0
VERTEX
  8
0
  10
-2.6730195725651
  20
-1.36197149921864
  30
0
  0
VERTEX
  8
0
  10
-2.55792049306228
  20
-1.56749569414785
  30
0
  0
VERTEX
  8
0
  10
-2.42705098312484
  20
-1.76335575687742
  30
0
  0
VERTEX
  8
0
  10
-2.28121789680009
  20
-1.94834414499055
  30
0
  0
VERTEX
  8
0
  10
0
  20
0
  30
0
  0
SEQEND
  0
CIRCLE
  8
0
  62
0
  10
0
  20
0
  40
3
  0
ENDBLK
  0
BLOCK
  8
0
  2
FILLED_LIGHTNINGBOLT
  70
64
  10
0
  20
0
  30
0
  0
POLYLINE
  8
0
  62
0
  66
1
  10
0
  20
0
  70
1
 40
0
 41
0
 38
0
  0
VERTEX
  8
0
  10
0.8
  20
1.5
  30
0
  0
VERTEX
  8
0
  10
-0.5
  20
-0.6
  30
0
  0
VERTEX
  8
0
  10
2
  20
-0.6
  30
0
  0
VERTEX
  8
0
  10
-0.8
  20
-3.5
  30
0
  0
VERTEX
  8
0
  10
0
  20
-1.4
  30
0
  0
VERTEX
  8
0
  10
-2
  20
-1.4
  30
0
  0
SEQEND
  0
ENDBLK
  0
BLOCK
  8
0
  2
CONTROL_STRUCTURE_START
  70
64
  10
0
  20
0
  30
0
  0
POLYLINE
  8
0
  62
0
  66
1
  10
0
  20
0
  70
1
 40
0
 41
0
 38
0
  0
VERTEX
  8
0
  10
-0.75
  20
3
  30
0
  0
VERTEX
  8
0
  10
-0.75
  20
1.5
  30
0
  0
VERTEX
  8
0
  10
0.75
  20
1.5
  30
0
  0
VERTEX
  8
0
  10
0.75
  20
3
  30
0
  0
SEQEND
  0
POLYLINE
  8
0
  62
0
  66
1
  10
0
  20
0
  70
1
 40
0
 41
0
 38
0
  0
VERTEX
  8
0
  10
-0.75
  20
-1.5
  30
0
  0
VERTEX
  8
0
  10
-0.75
  20
-3
  30
0
  0
VERTEX
  8
0
  10
0.75
  20
-3
  30
0
  0
VERTEX
  8
0
  10
0.75
  20
-1.5
  30
0
  0
SEQEND
  0
POLYLINE
  8
0
  62
0
  66
1
  10
0
  20
0
 40
0
 41
0
 38
0
  0
VERTEX
  8
0
  10
0
  20
-2.25
  30
0
  0
VERTEX
  8
0
  10
0
  20
2.25
  30
0
  0
SEQEND
  0
ENDBLK
  0
BLOCK
  8
0
  2
CONTROL_STRUCTURE_STOP
  70
64
  10
0
  20
0
  30
0
  0
POLYLINE
  8
0
  62
0
  66
1
  10
0
  20
0
  70
1
 40
0
 41
0
 38
0
  0
VERTEX
  8
0
  10
-0.75
  20
3
  30
0
  0
VERTEX
  8
0
  10
-0.75
  20
1.5
  30
0
  0
VERTEX
  8
0
  10
0.75
  20
1.5
  30
0
  0
VERTEX
  8
0
  10
0.75
  20
3
  30
0
  0
SEQEND
  0
POLYLINE
  8
0
  62
0
  66
1
  10
0
  20
0
  70
1
 40
0
 41
0
 38
0
  0
VERTEX
  8
0
  10
-0.75
  20
-1.5
  30
0
  0
VERTEX
  8
0
  10
-0.75
  20
-3
  30
0
  0
VERTEX
  8
0
  10
0.75
  20
-3
  30
0
  0
VERTEX
  8
0
  10
0.75
  20
-1.5
  30
0
  0
SEQEND
  0
POLYLINE
  8
0
  62
0
  66
1
  10
0
  20
0
 40
0
 41
0
 38
0
  0
VERTEX
  8
0
  10
0
  20
-2.25
  30
0
  0
VERTEX
  8
0
  10
0
  20
2.25
  30
0
  0
SEQEND
  0
ENDBLK
  0
BLOCK
  8
0
  2
CONTROL_STRUCTURE_FLAPGATE
  70
64
  10
0
  20
0
  30
0
  0
POLYLINE
  8
0
  62
0
  66
1
  10
0
  20
0
  70
1
 40
0
 41
0
 38
0
  0
VERTEX
  8
0
  10
0
  20
0
  30
0
  0
VERTEX
  8
0
  10
-3
  20
1.5
  30
0
  0
VERTEX
  8
0
  10
-3
  20
-1.5
  30
0
  0
SEQEND
  0
POLYLINE
  8
0
  62
0
  66
1
  10
0
  20
0
 40
0
 41
0
 38
0
  0
VERTEX
  8
0
  10
0
  20
-3
  30
0
  0
VERTEX
  8
0
  10
0
  20
3
  30
0
  0
SEQEND
  0
ENDBLK
  0
BLOCK
  8
0
  2
CONTROL_STRUCTURE_CENTER
  70
64
  10
0
  20
0
  30
0
  0
POLYLINE
  8
0
  62
0
  66
1
  10
0
  20
0
  70
1
 40
0
 41
0
 38
0
  0
VERTEX
  8
0
  10
-0.75
  20
3
  30
0
  0
VERTEX
  8
0
  10
-0.75
  20
1.5
  30
0
  0
VERTEX
  8
0
  10
0.75
  20
1.5
  30
0
  0
VERTEX
  8
0
  10
0.75
  20
3
  30
0
  0
SEQEND
  0
POLYLINE
  8
0
  62
0
  66
1
  10
0
  20
0
  70
1
 40
0
 41
0
 38
0
  0
VERTEX
  8
0
  10
-0.75
  20
-1.5
  30
0
  0
VERTEX
  8
0
  10
-0.75
  20
-3
  30
0
  0
VERTEX
  8
0
  10
0.75
  20
-3
  30
0
  0
VERTEX
  8
0
  10
0.75
  20
-1.5
  30
0
  0
SEQEND
  0
POLYLINE
  8
0
  62
0
  66
1
  10
0
  20
0
 40
0
 41
0
 38
0
  0
VERTEX
  8
0
  10
0
  20
-2.25
  30
0
  0
VERTEX
  8
0
  10
0
  20
2.25
  30
0
  0
SEQEND
  0
ENDBLK
  0
BLOCK
  8
0
  2
CONTROL_STRUCTURE_STOPFLAPGATE
  70
64
  10
0
  20
0
  30
0
  0
POLYLINE
  8
0
  62
0
  66
1
  10
0
  20
0
  70
1
 40
0
 41
0
 38
0
  0
VERTEX
  8
0
  10
-0.75
  20
3
  30
0
  0
VERTEX
  8
0
  10
-0.75
  20
1.5
  30
0
  0
VERTEX
  8
0
  10
0.75
  20
1.5
  30
0
  0
VERTEX
  8
0
  10
0.75
  20
3
  30
0
  0
SEQEND
  0
POLYLINE
  8
0
  62
0
  66
1
  10
0
  20
0
  70
1
 40
0
 41
0
 38
0
  0
VERTEX
  8
0
  10
-0.75
  20
-1.5
  30
0
  0
VERTEX
  8
0
  10
-0.75
  20
-3
  30
0
  0
VERTEX
  8
0
  10
0.75
  20
-3
  30
0
  0
VERTEX
  8
0
  10
0.75
  20
-1.5
  30
0
  0
SEQEND
  0
POLYLINE
  8
0
  62
0
  66
1
  10
0
  20
0
 40
0
 41
0
 38
0
  0
VERTEX
  8
0
  10
0
  20
-2.25
  30
0
  0
VERTEX
  8
0
  10
0
  20
2.25
  30
0
  0
SEQEND
  0
POLYLINE
  8
0
  62
0
  66
1
  10
0
  20
0
  70
1
 40
0
 41
0
 38
0
  0
VERTEX
  8
0
  10
0
  20
0
  30
0
  0
VERTEX
  8
0
  10
-3
  20
1.5
  30
0
  0
VERTEX
  8
0
  10
-3
  20
-1.5
  30
0
  0
SEQEND
  0
ENDBLK
  0
ENDSEC
  0
SECTION
  2
ENTITIES
  0
INSERT
  8
node
  2
RESERVOIR
  10
685575.778135288
  20
2763065.84211845
  30
0
  50
0
  41
0.31750000000127
  42
0.31750000000127
  43
1
  62
0
  0
TEXT
  8
node
  62
0
  10
685578.216535288
  20
2763068.28051845
  40
1.27000000000508
  50
0
  72
0
  73
1
  11
685578.216535288
  21
2763068.28051845
  1
R-1
  0
INSERT
  8
node
  2
PUMP
  10
685577.785663478
  20
2763065.59451388
  30
0
  50
354.180532635376
  41
0.31750000000127
  42
0.31750000000127
  43
1
  62
0
  0
TEXT
  8
node
  62
0
  10
685580.224063478
  20
2763068.03291388
  40
1.27000000000508
  50
0
  72
0
  73
1
  11
685580.224063478
  21
2763068.03291388
  1
PMP-1
  0
INSERT
  8
node
  2
FILLED_CIRCLE
  10
685604.203259162
  20
2763062.90204355
  30
0
  50
0
  41
0.31750000000127
  42
0.31750000000127
  43
1
  62
0
  0
TEXT
  8
node
  62
0
  10
685606.641659162
  20
2763065.34044355
  40
1.27000000000508
  50
0
  72
0
  73
1
  11
685606.641659162
  21
2763065.34044355
  1
J-2
  0
INSERT
  8
node
  2
FILLED_CIRCLE
  10
685606.240022591
  20
2763082.58993809
  30
0
  50
0
  41
0.31750000000127
  42
0.31750000000127
  43
1
  62
0
  0
TEXT
  8
node
  62
0
  10
685608.678422591
  20
2763085.02833809
  40
1.27000000000508
  50
0
  72
0
  73
1
  11
685608.678422591
  21
2763085.02833809
  1
SP 2
  0
POLYLINE
  8
pipe
  62
6
  66
1
  10
685605.221640877
  20
2763072.74599082
 40
1
 41
1
 38
0
  0
VERTEX
  8
pipe
  10
685606.240022591
  20
2763082.58993809
  30
0
  0
VERTEX
  8
pipe
  10
685604.203259162
  20
2763062.90204355
  30
0
  0
SEQEND
  0
TEXT
  8
pipe
  62
6
  10
685602.955738821
  20
2763068.55909843
  40
1.27000000000508
  50
84.0933870851535
  72
0
  73
1
  11
685602.955738821
  21
2763068.55909843
  1
pipe 75 mm
  0
INSERT
  8
pipe
  2
FLOWARROW
  10
685605.221640877
  20
2763072.74599082
  30
0
  50
84.0936150501872
  41
0.31750000000127
  42
0.31750000000127
  43
1
  62
6
  0
POLYLINE
  8
pipe
  62
6
  66
1
  10
685576.781899383
  20
2763065.71831617
 40
1
 41
1
 38
0
  0
VERTEX
  8
pipe
  10
685575.778135288
  20
2763065.84211845
  30
0
  0
VERTEX
  8
pipe
  10
685577.785663478
  20
2763065.59451388
  30
0
  0
SEQEND
  0
TEXT
  8
pipe
  62
6
  10
685572.640286733
  20
2763068.06595853
  40
1.27000000000508
  50
352.968761647896
  72
0
  73
1
  11
685572.640286733
  21
2763068.06595853
  1
pipe 75 mm
  0
INSERT
  8
pipe
  2
FLOWARROW
  10
685576.781899383
  20
2763065.71831617
  30
0
  50
352.968761647896
  41
0.31750000000127
  42
0.31750000000127
  43
1
  62
6
  0
POLYLINE
  8
pipe
  62
6
  66
1
  10
685590.99446132
  20
2763064.24827871
 40
1
 41
1
 38
0
  0
VERTEX
  8
pipe
  10
685577.785663478
  20
2763065.59451388
  30
0
  0
VERTEX
  8
pipe
  10
685604.203259162
  20
2763062.90204355
  30
0
  0
SEQEND
  0
TEXT
  8
pipe
  62
6
  10
685586.80412739
  20
2763066.50780999
  40
1.27000000000508
  50
354.180532635376
  72
0
  73
1
  11
685586.80412739
  21
2763066.50780999
  1
pipe 75 mm
  0
INSERT
  8
pipe
  2
FLOWARROW
  10
685590.99446132
  20
2763064.24827871
  30
0
  50
354.180532635376
  41
0.31750000000127
  42
0.31750000000127
  43
1
  62
6
  0
ENDSEC
  0
EOF
