  0
SECTION
  2
HEADER
  0
ENDSEC
  0
SECTION
  2
TABLES
  0
TABLE
  2
LTYPE
  70
0
  0
ENDTAB
  0
TABLE
  2
LAYER
  70
2
  0
LAYER
  2
node
  70
0
  62
7
  6
CONTINUOUS
  0
LAYER
  2
pipe
  70
0
  62
7
  6
CONTINUOUS
  0
ENDTAB
  0
TABLE
  2
STYLE
  70
0
  0
ENDTAB
  0
TABLE
  2
VIEW
  70
0
  0
ENDTAB
  0
TABLE
  2
UCS
  70
0
  0
ENDTAB
  0
TABLE
  2
VPORT
  70
0
  0
ENDTAB
  0
TABLE
  2
DIMSTYLE
  70
0
  0
ENDTAB
  0
TABLE
  2
APPID
  70
0
  0
ENDTAB
  0
ENDSEC
  0
SECTION
  2
BLOCKS
  0
BLOCK
  8
0
  2
CIRCLE_IN_SQUARE
  70
64
  10
0
  20
0
  30
0
  0
POLYLINE
  8
0
  62
0
  66
1
  10
0
  20
0
  70
1
 40
0
 41
0
 38
0
  0
VERTEX
  8
0
  10
-3
  20
3
  30
0
  0
VERTEX
  8
0
  10
-3
  20
-3
  30
0
  0
VERTEX
  8
0
  10
3
  20
-3
  30
0
  0
VERTEX
  8
0
  10
3
  20
3
  30
0
  0
SEQEND
  0
CIRCLE
  8
0
  62
0
  10
0
  20
0
  40
1.2
  0
ENDBLK
  0
BLOCK
  8
0
  2
SQUARE
  70
64
  10
0
  20
0
  30
0
  0
POLYLINE
  8
0
  62
0
  66
1
  10
0
  20
0
  70
1
 40
0
 41
0
 38
0
  0
VERTEX
  8
0
  10
-3
  20
3
  30
0
  0
VERTEX
  8
0
  10
-3
  20
-3
  30
0
  0
VERTEX
  8
0
  10
3
  20
-3
  30
0
  0
VERTEX
  8
0
  10
3
  20
3
  30
0
  0
SEQEND
  0
ENDBLK
  0
BLOCK
  8
0
  2
TRIANGLE
  70
64
  10
0
  20
0
  30
0
  0
POLYLINE
  8
0
  62
0
  66
1
  10
0
  20
0
  70
1
 40
0
 41
0
 38
0
  0
VERTEX
  8
0
  10
0
  20
2.5
  30
0
  0
VERTEX
  8
0
  10
-2.5
  20
-2.5
  30
0
  0
VERTEX
  8
0
  10
2.5
  20
-2.5
  30
0
  0
SEQEND
  0
ENDBLK
  0
BLOCK
  8
0
  2
TWO_CONCENTRIC_CIRCLES
  70
64
  10
0
  20
0
  30
0
  0
CIRCLE
  8
0
  62
0
  10
0
  20
0
  40
3
  0
CIRCLE
  8
0
  62
0
  10
0
  20
0
  40
1.2
  0
ENDBLK
  0
BLOCK
  8
0
  2
CROSS_WITH_SMALL_CIRCLE
  70
64
  10
0
  20
0
  30
0
  0
POLYLINE
  8
0
  62
0
  66
1
  10
0
  20
0
 40
0
 41
0
 38
0
  0
VERTEX
  8
0
  10
-3
  20
0
  30
0
  0
VERTEX
  8
0
  10
3
  20
0
  30
0
  0
SEQEND
  0
POLYLINE
  8
0
  62
0
  66
1
  10
0
  20
0
 40
0
 41
0
 38
0
  0
VERTEX
  8
0
  10
0
  20
-3
  30
0
  0
VERTEX
  8
0
  10
0
  20
3
  30
0
  0
SEQEND
  0
CIRCLE
  8
0
  62
0
  10
0
  20
0
  40
1.2
  0
ENDBLK
  0
BLOCK
  8
0
  2
FLOWARROW
  70
64
  10
0
  20
0
  30
0
  0
POLYLINE
  8
0
  62
0
  66
1
  10
0
  20
0
  70
1
 40
0
 41
0
 38
0
  0
VERTEX
  8
0
  10
3
  20
0
  30
0
  0
VERTEX
  8
0
  10
-3
  20
-3
  30
0
  0
VERTEX
  8
0
  10
-0.6
  20
0
  30
0
  0
VERTEX
  8
0
  10
-3
  20
3
  30
0
  0
SEQEND
  0
ENDBLK
  0
BLOCK
  8
0
  2
FILLED_TRIANGLE
  70
64
  10
0
  20
0
  30
0
  0
POLYLINE
  8
0
  62
0
  66
1
  10
0
  20
0
  70
1
 40
0
 41
0
 38
0
  0
VERTEX
  8
0
  10
0
  20
2.5
  30
0
  0
VERTEX
  8
0
  10
2.5
  20
-2.5
  30
0
  0
VERTEX
  8
0
  10
-2.5
  20
-2.5
  30
0
  0
SEQEND
  0
ENDBLK
  0
BLOCK
  8
0
  2
FILLED_CIRCLE
  70
64
  10
0
  20
0
  30
0
  0
CIRCLE
  8
0
  62
0
  10
0
  20
0
  40
3
  0
ENDBLK
  0
BLOCK
  8
0
  2
FILLED_DIAMOND
  70
64
  10
0
  20
0
  30
0
  0
POLYLINE
  8
0
  62
0
  66
1
  10
0
  20
0
  70
1
 40
0
 41
0
 38
0
  0
VERTEX
  8
0
  10
0
  20
3
  30
0
  0
VERTEX
  8
0
  10
3
  20
0
  30
0
  0
VERTEX
  8
0
  10
0
  20
-3
  30
0
  0
VERTEX
  8
0
  10
-3
  20
0
  30
0
  0
SEQEND
  0
ENDBLK
  0
BLOCK
  8
0
  2
FILLED_SQUARE
  70
64
  10
0
  20
0
  30
0
  0
POLYLINE
  8
0
  62
0
  66
1
  10
0
  20
0
  70
1
 40
0
 41
0
 38
0
  0
VERTEX
  8
0
  10
-3
  20
3
  30
0
  0
VERTEX
  8
0
  10
3
  20
3
  30
0
  0
VERTEX
  8
0
  10
3
  20
-3
  30
0
  0
VERTEX
  8
0
  10
-3
  20
-3
  30
0
  0
SEQEND
  0
ENDBLK
  0
BLOCK
  8
0
  2
FILLED_WATERMARK
  70
64
  10
0
  20
0
  30
0
  0
POLYLINE
  8
0
  62
0
  66
1
  10
0
  20
0
  70
1
 40
0
 41
0
 38
0
  0
VERTEX
  8
0
  10
0
  20
-3
  30
0
  0
VERTEX
  8
0
  10
3
  20
3
  30
0
  0
VERTEX
  8
0
  10
-3
  20
3
  30
0
  0
SEQEND
  0
ENDBLK
  0
BLOCK
  8
0
  2
DIAMOND
  70
64
  10
0
  20
0
  30
0
  0
POLYLINE
  8
0
  62
0
  66
1
  10
0
  20
0
  70
1
 40
0
 41
0
 38
0
  0
VERTEX
  8
0
  10
0
  20
3
  30
0
  0
VERTEX
  8
0
  10
3
  20
0
  30
0
  0
VERTEX
  8
0
  10
0
  20
-3
  30
0
  0
VERTEX
  8
0
  10
-3
  20
0
  30
0
  0
SEQEND
  0
ENDBLK
  0
BLOCK
  8
0
  2
WATERMARK
  70
64
  10
0
  20
0
  30
0
  0
POLYLINE
  8
0
  62
0
  66
1
  10
0
  20
0
  70
1
 40
0
 41
0
 38
0
  0
VERTEX
  8
0
  10
0
  20
-3
  30
0
  0
VERTEX
  8
0
  10
3
  20
3
  30
0
  0
VERTEX
  8
0
  10
-3
  20
3
  30
0
  0
SEQEND
  0
ENDBLK
  0
BLOCK
  8
0
  2
PUMP
  70
64
  10
0
  20
0
  30
0
  0
ARC
  8
0
  62
0
  10
-0.5
  20
0.5
  40
2.5
  50
90
  51
390
  0
POLYLINE
  8
0
  62
0
  66
1
  10
0
  20
0
 40
0
 41
0
 38
0
  0
VERTEX
  8
0
  10
-0.5
  20
3
  30
0
  0
VERTEX
  8
0
  10
3
  20
3
  30
0
  0
VERTEX
  8
0
  10
3
  20
1
  30
0
  0
VERTEX
  8
0
  10
2
  20
1
  30
0
  0
SEQEND
  0
ENDBLK
  0
BLOCK
  8
0
  2
WETWELL
  70
64
  10
0
  20
0
  30
0
  0
POLYLINE
  8
0
  62
0
  66
1
  10
0
  20
0
  70
1
 40
0
 41
0
 38
0
  0
VERTEX
  8
0
  10
-2.5
  20
3
  30
0
  0
VERTEX
  8
0
  10
-2.5
  20
-3
  30
0
  0
VERTEX
  8
0
  10
2.5
  20
-3
  30
0
  0
VERTEX
  8
0
  10
2.5
  20
3
  30
0
  0
SEQEND
  0
POLYLINE
  8
0
  62
0
  66
1
  10
0
  20
0
  70
1
 40
0
 41
0
 38
0
  0
VERTEX
  8
0
  10
-0.833333333333333
  20
2
  30
0
  0
VERTEX
  8
0
  10
0.833333333333333
  20
2
  30
0
  0
VERTEX
  8
0
  10
0
  20
1
  30
0
  0
SEQEND
  0
POLYLINE
  8
0
  62
0
  66
1
  10
0
  20
0
 40
0
 41
0
 38
0
  0
VERTEX
  8
0
  10
-2.5
  20
0.5
  30
0
  0
VERTEX
  8
0
  10
2.5
  20
0.5
  30
0
  0
SEQEND
  0
POLYLINE
  8
0
  62
0
  66
1
  10
0
  20
0
 40
0
 41
0
 38
0
  0
VERTEX
  8
0
  10
-0.833333333333333
  20
-0.25
  30
0
  0
VERTEX
  8
0
  10
0.833333333333333
  20
-0.25
  30
0
  0
SEQEND
  0
ENDBLK
  0
BLOCK
  8
0
  2
LINE
  70
64
  10
0
  20
0
  30
0
  0
POLYLINE
  8
0
  62
0
  66
1
  10
0
  20
0
 40
0
 41
0
 38
0
  0
VERTEX
  8
0
  10
-3
  20
0
  30
0
  0
VERTEX
  8
0
  10
3
  20
0
  30
0
  0
SEQEND
  0
ENDBLK
  0
BLOCK
  8
0
  2
POLYGON
  70
64
  10
0
  20
0
  30
0
  0
POLYLINE
  8
0
  62
0
  66
1
  10
0
  20
0
  70
1
 40
0
 41
0
 38
0
  0
VERTEX
  8
0
  10
-1.5
  20
-3
  30
0
  0
VERTEX
  8
0
  10
-3
  20
0
  30
0
  0
VERTEX
  8
0
  10
0
  20
3
  30
0
  0
VERTEX
  8
0
  10
3
  20
0
  30
0
  0
VERTEX
  8
0
  10
1.5
  20
-3
  30
0
  0
SEQEND
  0
ENDBLK
  0
BLOCK
  8
0
  2
SOLIDRING
  70
64
  10
0
  20
0
  30
0
  0
CIRCLE
  8
0
  62
0
  10
0
  20
0
  40
3
  0
CIRCLE
  8
0
  62
0
  10
0
  20
0
  40
1.8
  0
ENDBLK
  0
BLOCK
  8
0
  2
RESERVOIR
  70
64
  10
0
  20
0
  30
0
  0
POLYLINE
  8
0
  62
0
  66
1
  10
0
  20
0
 40
0
 41
0
 38
0
  0
VERTEX
  8
0
  10
-4.5
  20
2.25
  30
0
  0
VERTEX
  8
0
  10
-1.5
  20
-2.25
  30
0
  0
VERTEX
  8
0
  10
1.5
  20
-2.25
  30
0
  0
VERTEX
  8
0
  10
4.5
  20
2.25
  30
0
  0
SEQEND
  0
POLYLINE
  8
0
  62
0
  66
1
  10
0
  20
0
  70
1
 40
0
 41
0
 38
0
  0
VERTEX
  8
0
  10
-0.75
  20
2.25
  30
0
  0
VERTEX
  8
0
  10
0.75
  20
2.25
  30
0
  0
VERTEX
  8
0
  10
0
  20
1.5
  30
0
  0
SEQEND
  0
POLYLINE
  8
0
  62
0
  66
1
  10
0
  20
0
 40
0
 41
0
 38
0
  0
VERTEX
  8
0
  10
-4
  20
1.5
  30
0
  0
VERTEX
  8
0
  10
4
  20
1.5
  30
0
  0
SEQEND
  0
POLYLINE
  8
0
  62
0
  66
1
  10
0
  20
0
 40
0
 41
0
 38
0
  0
VERTEX
  8
0
  10
-0.375
  20
1.2
  30
0
  0
VERTEX
  8
0
  10
0.375
  20
1.2
  30
0
  0
SEQEND
  0
POLYLINE
  8
0
  62
0
  66
1
  10
0
  20
0
 40
0
 41
0
 38
0
  0
VERTEX
  8
0
  10
-0.1875
  20
1
  30
0
  0
VERTEX
  8
0
  10
0.1875
  20
1
  30
0
  0
SEQEND
  0
ENDBLK
  0
BLOCK
  8
0
  2
TANK
  70
64
  10
0
  20
0
  30
0
  0
POLYLINE
  8
0
  62
0
  66
1
  10
0
  20
0
  70
1
 40
0
 41
0
 38
0
  0
VERTEX
  8
0
  10
-2.5
  20
3
  30
0
  0
VERTEX
  8
0
  10
-2.5
  20
-3
  30
0
  0
VERTEX
  8
0
  10
2.5
  20
-3
  30
0
  0
VERTEX
  8
0
  10
2.5
  20
3
  30
0
  0
SEQEND
  0
POLYLINE
  8
0
  62
0
  66
1
  10
0
  20
0
  70
1
 40
0
 41
0
 38
0
  0
VERTEX
  8
0
  10
-0.833333333333333
  20
2
  30
0
  0
VERTEX
  8
0
  10
0.833333333333333
  20
2
  30
0
  0
VERTEX
  8
0
  10
0
  20
1
  30
0
  0
SEQEND
  0
POLYLINE
  8
0
  62
0
  66
1
  10
0
  20
0
 40
0
 41
0
 38
0
  0
VERTEX
  8
0
  10
-2.5
  20
1
  30
0
  0
VERTEX
  8
0
  10
2.5
  20
1
  30
0
  0
SEQEND
  0
POLYLINE
  8
0
  62
0
  66
1
  10
0
  20
0
 40
0
 41
0
 38
0
  0
VERTEX
  8
0
  10
-0.416666666666667
  20
0.8
  30
0
  0
VERTEX
  8
0
  10
0.416666666666667
  20
0.8
  30
0
  0
SEQEND
  0
POLYLINE
  8
0
  62
0
  66
1
  10
0
  20
0
 40
0
 41
0
 38
0
  0
VERTEX
  8
0
  10
-0.208333333333333
  20
0.666666666666667
  30
0
  0
VERTEX
  8
0
  10
0.208333333333333
  20
0.666666666666667
  30
0
  0
SEQEND
  0
ENDBLK
  0
BLOCK
  8
0
  2
VALVE
  70
64
  10
0
  20
0
  30
0
  0
POLYLINE
  8
0
  62
0
  66
1
  10
0
  20
0
  70
1
 40
0
 41
0
 38
0
  0
VERTEX
  8
0
  10
-3
  20
3
  30
0
  0
VERTEX
  8
0
  10
-3
  20
-3
  30
0
  0
VERTEX
  8
0
  10
0
  20
0
  30
0
  0
SEQEND
  0
POLYLINE
  8
0
  62
0
  66
1
  10
0
  20
0
  70
1
 40
0
 41
0
 38
0
  0
VERTEX
  8
0
  10
0
  20
0
  30
0
  0
VERTEX
  8
0
  10
3
  20
3
  30
0
  0
VERTEX
  8
0
  10
3
  20
-3
  30
0
  0
SEQEND
  0
ENDBLK
  0
BLOCK
  8
0
  2
X
  70
64
  10
0
  20
0
  30
0
  0
POLYLINE
  8
0
  62
0
  66
1
  10
0
  20
0
 40
0
 41
0
 38
0
  0
VERTEX
  8
0
  10
-2.5
  20
2.5
  30
0
  0
VERTEX
  8
0
  10
2.5
  20
-2.5
  30
0
  0
SEQEND
  0
POLYLINE
  8
0
  62
0
  66
1
  10
0
  20
0
 40
0
 41
0
 38
0
  0
VERTEX
  8
0
  10
2.5
  20
2.5
  30
0
  0
VERTEX
  8
0
  10
-2.5
  20
-2.5
  30
0
  0
SEQEND
  0
ENDBLK
  0
BLOCK
  8
0
  2
CHECKVALVE
  70
64
  10
0
  20
0
  30
0
  0
POLYLINE
  8
0
  62
0
  66
1
  10
0
  20
0
 40
0
 41
0
 38
0
  0
VERTEX
  8
0
  10
-3
  20
3
  30
0
  0
VERTEX
  8
0
  10
3
  20
0
  30
0
  0
VERTEX
  8
0
  10
-3
  20
-3
  30
0
  0
SEQEND
  0
POLYLINE
  8
0
  62
0
  66
1
  10
0
  20
0
 40
0
 41
0
 38
0
  0
VERTEX
  8
0
  10
3
  20
3
  30
0
  0
VERTEX
  8
0
  10
3
  20
-3
  30
0
  0
SEQEND
  0
ENDBLK
  0
BLOCK
  8
0
  2
CONSTITUENTSOURCE
  70
64
  10
0
  20
0
  30
0
  0
ARC
  8
0
  62
0
  10
2.75
  20
-0.75
  40
4
  50
90
  51
180
  0
POLYLINE
  8
0
  62
0
  66
1
  10
0
  20
0
  70
1
 40
0
 41
0
 38
0
  0
VERTEX
  8
0
  10
-3
  20
-0.5
  30
0
  0
VERTEX
  8
0
  10
0.5
  20
-0.5
  30
0
  0
VERTEX
  8
0
  10
-1.25
  20
-3
  30
0
  0
SEQEND
  0
ENDBLK
  0
BLOCK
  8
0
  2
CONTROLLEDELEMENT
  70
64
  10
0
  20
0
  30
0
  0
POLYLINE
  8
0
  62
0
  66
1
  10
0
  20
0
  70
1
 40
0
 41
0
 38
0
  0
VERTEX
  8
0
  10
-7
  20
2
  30
0
  0
VERTEX
  8
0
  10
-7
  20
1
  30
0
  0
VERTEX
  8
0
  10
-6
  20
1
  30
0
  0
VERTEX
  8
0
  10
-6
  20
2
  30
0
  0
SEQEND
  0
POLYLINE
  8
0
  62
0
  66
1
  10
0
  20
0
  70
1
 40
0
 41
0
 38
0
  0
VERTEX
  8
0
  10
-7
  20
-1
  30
0
  0
VERTEX
  8
0
  10
-7
  20
-2
  30
0
  0
VERTEX
  8
0
  10
-6
  20
-2
  30
0
  0
VERTEX
  8
0
  10
-6
  20
-1
  30
0
  0
SEQEND
  0
POLYLINE
  8
0
  62
0
  66
1
  10
0
  20
0
 40
0
 41
0
 38
0
  0
VERTEX
  8
0
  10
-6.5
  20
-1.5
  30
0
  0
VERTEX
  8
0
  10
-6.5
  20
1.5
  30
0
  0
SEQEND
  0
ENDBLK
  0
BLOCK
  8
0
  2
CLOSEDPIPE
  70
64
  10
0
  20
0
  30
0
  0
POLYLINE
  8
0
  62
0
  66
1
  10
0
  20
0
 40
0
 41
0
 38
0
  0
VERTEX
  8
0
  10
-1
  20
3
  30
0
  0
VERTEX
  8
0
  10
-1
  20
-3
  30
0
  0
SEQEND
  0
POLYLINE
  8
0
  62
0
  66
1
  10
0
  20
0
 40
0
 41
0
 38
0
  0
VERTEX
  8
0
  10
1
  20
3
  30
0
  0
VERTEX
  8
0
  10
1
  20
-3
  30
0
  0
SEQEND
  0
ENDBLK
  0
BLOCK
  8
0
  2
CIRCLE
  70
64
  10
0
  20
0
  30
0
  0
CIRCLE
  8
0
  62
0
  10
0
  20
0
  40
3
  0
ENDBLK
  0
BLOCK
  8
0
  2
CROSS
  70
64
  10
0
  20
0
  30
0
  0
POLYLINE
  8
0
  62
0
  66
1
  10
0
  20
0
 40
0
 41
0
 38
0
  0
VERTEX
  8
0
  10
-6
  20
0
  30
0
  0
VERTEX
  8
0
  10
6
  20
0
  30
0
  0
SEQEND
  0
POLYLINE
  8
0
  62
0
  66
1
  10
0
  20
0
 40
0
 41
0
 38
0
  0
VERTEX
  8
0
  10
0
  20
6
  30
0
  0
VERTEX
  8
0
  10
0
  20
-6
  30
0
  0
SEQEND
  0
ENDBLK
  0
BLOCK
  8
0
  2
HYDRANT
  70
64
  10
0
  20
0
  30
0
  0
POLYLINE
  8
0
  62
0
  66
1
  10
0
  20
0
  70
1
 40
0
 41
0
 38
0
  0
VERTEX
  8
0
  10
-3
  20
0.6
  30
0
  0
VERTEX
  8
0
  10
3
  20
0.6
  30
0
  0
VERTEX
  8
0
  10
3
  20
-0.6
  30
0
  0
VERTEX
  8
0
  10
-3
  20
-0.6
  30
0
  0
SEQEND
  0
POLYLINE
  8
0
  62
0
  66
1
  10
0
  20
0
  70
1
 40
0
 41
0
 38
0
  0
VERTEX
  8
0
  10
-0.6
  20
3
  30
0
  0
VERTEX
  8
0
  10
-0.6
  20
-3
  30
0
  0
VERTEX
  8
0
  10
0.6
  20
-3
  30
0
  0
VERTEX
  8
0
  10
0.6
  20
3
  30
0
  0
SEQEND
  0
CIRCLE
  8
0
  62
0
  10
0
  20
0
  40
2.1
  0
ENDBLK
  0
BLOCK
  8
0
  2
XINCIRCLE
  70
64
  10
0
  20
0
  30
0
  0
POLYLINE
  8
0
  62
0
  66
1
  10
0
  20
0
 40
0
 41
0
 38
0
  0
VERTEX
  8
0
  10
-1.95
  20
1.95
  30
0
  0
VERTEX
  8
0
  10
1.95
  20
-1.95
  30
0
  0
SEQEND
  0
POLYLINE
  8
0
  62
0
  66
1
  10
0
  20
0
 40
0
 41
0
 38
0
  0
VERTEX
  8
0
  10
1.95
  20
1.95
  30
0
  0
VERTEX
  8
0
  10
-1.95
  20
-1.95
  30
0
  0
SEQEND
  0
CIRCLE
  8
0
  62
0
  10
0
  20
0
  40
2.73
  0
ENDBLK
  0
BLOCK
  8
0
  2
VARIABLE_SPEED_PUMP_BATTERY
  70
64
  10
0
  20
0
  30
0
  0
ARC
  8
0
  62
0
  10
-0.5
  20
0.25
  40
1.25
  50
90
  51
390
  0
POLYLINE
  8
0
  62
0
  66
1
  10
0
  20
0
 40
0
 41
0
 38
0
  0
VERTEX
  8
0
  10
-0.5
  20
1.5
  30
0
  0
VERTEX
  8
0
  10
1.5
  20
1.5
  30
0
  0
VERTEX
  8
0
  10
1.5
  20
0.5
  30
0
  0
VERTEX
  8
0
  10
0.705882352941176
  20
0.5
  30
0
  0
SEQEND
  0
POLYLINE
  8
0
  62
0
  66
1
  10
0
  20
0
  70
1
 40
0
 41
0
 38
0
  0
VERTEX
  8
0
  10
-3
  20
-3
  30
0
  0
VERTEX
  8
0
  10
3
  20
-3
  30
0
  0
VERTEX
  8
0
  10
3
  20
3
  30
0
  0
VERTEX
  8
0
  10
-3
  20
3
  30
0
  0
SEQEND
  0
ENDBLK
  0
BLOCK
  8
0
  2
VALVETCV
  70
64
  10
0
  20
0
  30
0
  0
POLYLINE
  8
0
  62
0
  66
1
  10
0
  20
0
  70
1
 40
0
 41
0
 38
0
  0
VERTEX
  8
0
  10
-3
  20
3
  30
0
  0
VERTEX
  8
0
  10
-3
  20
-3
  30
0
  0
VERTEX
  8
0
  10
0
  20
0
  30
0
  0
SEQEND
  0
POLYLINE
  8
0
  62
0
  66
1
  10
0
  20
0
  70
1
 40
0
 41
0
 38
0
  0
VERTEX
  8
0
  10
0
  20
0
  30
0
  0
VERTEX
  8
0
  10
3
  20
3
  30
0
  0
VERTEX
  8
0
  10
3
  20
-3
  30
0
  0
SEQEND
  0
POLYLINE
  8
0
  62
0
  66
1
  10
0
  20
0
 40
0
 41
0
 38
0
  0
VERTEX
  8
0
  10
0
  20
0
  30
0
  0
VERTEX
  8
0
  10
0
  20
3.6
  30
0
  0
SEQEND
  0
POLYLINE
  8
0
  62
0
  66
1
  10
0
  20
0
 40
0
 41
0
 38
0
  0
VERTEX
  8
0
  10
-3
  20
3.6
  30
0
  0
VERTEX
  8
0
  10
3
  20
3.6
  30
0
  0
SEQEND
  0
ENDBLK
  0
BLOCK
  8
0
  2
VALVEFCV
  70
64
  10
0
  20
0
  30
0
  0
POLYLINE
  8
0
  62
0
  66
1
  10
0
  20
0
  70
1
 40
0
 41
0
 38
0
  0
VERTEX
  8
0
  10
-3
  20
3
  30
0
  0
VERTEX
  8
0
  10
-3
  20
-3
  30
0
  0
VERTEX
  8
0
  10
0
  20
0
  30
0
  0
SEQEND
  0
POLYLINE
  8
0
  62
0
  66
1
  10
0
  20
0
  70
1
 40
0
 41
0
 38
0
  0
VERTEX
  8
0
  10
0
  20
0
  30
0
  0
VERTEX
  8
0
  10
3
  20
3
  30
0
  0
VERTEX
  8
0
  10
3
  20
-3
  30
0
  0
SEQEND
  0
POLYLINE
  8
0
  62
0
  66
1
  10
0
  20
0
  70
1
 40
0
 41
0
 38
0
  0
VERTEX
  8
0
  10
0
  20
0
  30
0
  0
VERTEX
  8
0
  10
-0.9
  20
3.6
  30
0
  0
VERTEX
  8
0
  10
0.9
  20
3.6
  30
0
  0
SEQEND
  0
ENDBLK
  0
BLOCK
  8
0
  2
VALVEPBV
  70
64
  10
0
  20
0
  30
0
  0
POLYLINE
  8
0
  62
0
  66
1
  10
0
  20
0
  70
1
 40
0
 41
0
 38
0
  0
VERTEX
  8
0
  10
-3
  20
3
  30
0
  0
VERTEX
  8
0
  10
-3
  20
-3
  30
0
  0
VERTEX
  8
0
  10
0
  20
0
  30
0
  0
SEQEND
  0
POLYLINE
  8
0
  62
0
  66
1
  10
0
  20
0
  70
1
 40
0
 41
0
 38
0
  0
VERTEX
  8
0
  10
0
  20
0
  30
0
  0
VERTEX
  8
0
  10
3
  20
3
  30
0
  0
VERTEX
  8
0
  10
3
  20
-3
  30
0
  0
SEQEND
  0
POLYLINE
  8
0
  62
0
  66
1
  10
0
  20
0
 40
0
 41
0
 38
0
  0
VERTEX
  8
0
  10
0
  20
-4.5
  30
0
  0
VERTEX
  8
0
  10
0
  20
4.5
  30
0
  0
SEQEND
  0
ENDBLK
  0
BLOCK
  8
0
  2
VALVEPSV
  70
64
  10
0
  20
0
  30
0
  0
POLYLINE
  8
0
  62
0
  66
1
  10
0
  20
0
  70
1
 40
0
 41
0
 38
0
  0
VERTEX
  8
0
  10
-3
  20
3
  30
0
  0
VERTEX
  8
0
  10
-3
  20
-3
  30
0
  0
VERTEX
  8
0
  10
0
  20
0
  30
0
  0
SEQEND
  0
POLYLINE
  8
0
  62
0
  66
1
  10
0
  20
0
  70
1
 40
0
 41
0
 38
0
  0
VERTEX
  8
0
  10
0
  20
0
  30
0
  0
VERTEX
  8
0
  10
3
  20
3
  30
0
  0
VERTEX
  8
0
  10
3
  20
-3
  30
0
  0
SEQEND
  0
POLYLINE
  8
0
  62
0
  66
1
  10
0
  20
0
  70
1
 40
0
 41
0
 38
0
  0
VERTEX
  8
0
  10
0
  20
0
  30
0
  0
VERTEX
  8
0
  10
0
  20
3.6
  30
0
  0
VERTEX
  8
0
  10
-4.5
  20
3.6
  30
0
  0
VERTEX
  8
0
  10
-4.5
  20
0
  30
0
  0
SEQEND
  0
ENDBLK
  0
BLOCK
  8
0
  2
VALVEPRV
  70
64
  10
0
  20
0
  30
0
  0
POLYLINE
  8
0
  62
0
  66
1
  10
0
  20
0
  70
1
 40
0
 41
0
 38
0
  0
VERTEX
  8
0
  10
-3
  20
3
  30
0
  0
VERTEX
  8
0
  10
-3
  20
-3
  30
0
  0
VERTEX
  8
0
  10
0
  20
0
  30
0
  0
SEQEND
  0
POLYLINE
  8
0
  62
0
  66
1
  10
0
  20
0
  70
1
 40
0
 41
0
 38
0
  0
VERTEX
  8
0
  10
0
  20
0
  30
0
  0
VERTEX
  8
0
  10
3
  20
3
  30
0
  0
VERTEX
  8
0
  10
3
  20
-3
  30
0
  0
SEQEND
  0
POLYLINE
  8
0
  62
0
  66
1
  10
0
  20
0
  70
1
 40
0
 41
0
 38
0
  0
VERTEX
  8
0
  10
0
  20
0
  30
0
  0
VERTEX
  8
0
  10
0
  20
3.6
  30
0
  0
VERTEX
  8
0
  10
4.5
  20
3.6
  30
0
  0
VERTEX
  8
0
  10
4.5
  20
0
  30
0
  0
SEQEND
  0
ENDBLK
  0
BLOCK
  8
0
  2
DIVERSIONLINKDECORATION
  70
64
  10
0
  20
0
  30
0
  0
ARC
  8
0
  62
0
  10
-1.2
  20
0.3
  40
3
  50
0
  51
180
  0
POLYLINE
  8
0
  62
0
  66
1
  10
0
  20
0
 40
0
 41
0
 38
0
  0
VERTEX
  8
0
  10
0.6
  20
1.5
  30
0
  0
VERTEX
  8
0
  10
1.8
  20
0.3
  30
0
  0
VERTEX
  8
0
  10
3
  20
1.5
  30
0
  0
SEQEND
  0
ENDBLK
  0
BLOCK
  8
0
  2
AIRVALVE
  70
64
  10
0
  20
0
  30
0
  0
POLYLINE
  8
0
  62
0
  66
1
  10
0
  20
0
 40
0
 41
0
 38
0
  0
VERTEX
  8
0
  10
-2.25
  20
3.42857142857143
  30
0
  0
VERTEX
  8
0
  10
-2.25
  20
2.57142857142857
  30
0
  0
VERTEX
  8
0
  10
-3
  20
2.57142857142857
  30
0
  0
VERTEX
  8
0
  10
-3
  20
0.857142857142857
  30
0
  0
VERTEX
  8
0
  10
-2.25
  20
-0.857142857142857
  30
0
  0
VERTEX
  8
0
  10
-0.75
  20
-1.71428571428571
  30
0
  0
VERTEX
  8
0
  10
-0.75
  20
-2.57142857142857
  30
0
  0
SEQEND
  0
POLYLINE
  8
0
  62
0
  66
1
  10
0
  20
0
 40
0
 41
0
 38
0
  0
VERTEX
  8
0
  10
-0.75
  20
3.42857142857143
  30
0
  0
VERTEX
  8
0
  10
-0.75
  20
2.57142857142857
  30
0
  0
VERTEX
  8
0
  10
3
  20
2.57142857142857
  30
0
  0
VERTEX
  8
0
  10
3
  20
0.857142857142857
  30
0
  0
VERTEX
  8
0
  10
2.25
  20
-0.857142857142857
  30
0
  0
VERTEX
  8
0
  10
0.75
  20
-1.71428571428571
  30
0
  0
VERTEX
  8
0
  10
0.75
  20
-2.57142857142857
  30
0
  0
SEQEND
  0
POLYLINE
  8
0
  62
0
  66
1
  10
0
  20
0
 40
0
 41
0
 38
0
  0
VERTEX
  8
0
  10
-2.625
  20
1.71428571428571
  30
0
  0
VERTEX
  8
0
  10
-0.375
  20
1.71428571428571
  30
0
  0
SEQEND
  0
POLYLINE
  8
0
  62
0
  66
1
  10
0
  20
0
 40
0
 41
0
 38
0
  0
VERTEX
  8
0
  10
-1.5
  20
3
  30
0
  0
VERTEX
  8
0
  10
-1.5
  20
1.71428571428571
  30
0
  0
SEQEND
  0
ENDBLK
  0
BLOCK
  8
0
  2
SAV_SRV
  70
64
  10
0
  20
0
  30
0
  0
POLYLINE
  8
0
  62
0
  66
1
  10
0
  20
0
 40
0
 41
0
 38
0
  0
VERTEX
  8
0
  10
-0.6
  20
0
  30
0
  0
VERTEX
  8
0
  10
-0.6
  20
-3
  30
0
  0
SEQEND
  0
POLYLINE
  8
0
  62
0
  66
1
  10
0
  20
0
 40
0
 41
0
 38
0
  0
VERTEX
  8
0
  10
-3
  20
1.5
  30
0
  0
VERTEX
  8
0
  10
3
  20
1.5
  30
0
  0
SEQEND
  0
POLYLINE
  8
0
  62
0
  66
1
  10
0
  20
0
 40
0
 41
0
 38
0
  0
VERTEX
  8
0
  10
-3
  20
0.125
  30
0
  0
VERTEX
  8
0
  10
-2.4
  20
2.875
  30
0
  0
SEQEND
  0
POLYLINE
  8
0
  62
0
  66
1
  10
0
  20
0
 40
0
 41
0
 38
0
  0
VERTEX
  8
0
  10
-1.8
  20
0.125
  30
0
  0
VERTEX
  8
0
  10
-1.2
  20
2.875
  30
0
  0
SEQEND
  0
POLYLINE
  8
0
  62
0
  66
1
  10
0
  20
0
 40
0
 41
0
 38
0
  0
VERTEX
  8
0
  10
-0.6
  20
0.125
  30
0
  0
VERTEX
  8
0
  10
0
  20
2.875
  30
0
  0
SEQEND
  0
POLYLINE
  8
0
  62
0
  66
1
  10
0
  20
0
  70
1
 40
0
 41
0
 38
0
  0
VERTEX
  8
0
  10
-2.4
  20
0
  30
0
  0
VERTEX
  8
0
  10
1.2
  20
0
  30
0
  0
VERTEX
  8
0
  10
-0.6
  20
1.5
  30
0
  0
SEQEND
  0
POLYLINE
  8
0
  62
0
  66
1
  10
0
  20
0
  70
1
 40
0
 41
0
 38
0
  0
VERTEX
  8
0
  10
0
  20
1.5
  30
0
  0
VERTEX
  8
0
  10
1.8
  20
0
  30
0
  0
VERTEX
  8
0
  10
1.8
  20
3
  30
0
  0
SEQEND
  0
ENDBLK
  0
BLOCK
  8
0
  2
HYDROPNEUMATICTANK
  70
64
  10
0
  20
0
  30
0
  0
POLYLINE
  8
0
  62
0
  66
1
  10
0
  20
0
 40
0
 41
0
 38
0
  0
VERTEX
  8
0
  10
-2.5
  20
2
  30
0
  0
VERTEX
  8
0
  10
-2.5
  20
-2
  30
0
  0
SEQEND
  0
POLYLINE
  8
0
  62
0
  66
1
  10
0
  20
0
 40
0
 41
0
 38
0
  0
VERTEX
  8
0
  10
2.5
  20
-2
  30
0
  0
VERTEX
  8
0
  10
2.5
  20
2
  30
0
  0
SEQEND
  0
POLYLINE
  8
0
  62
0
  66
1
  10
0
  20
0
  70
1
 40
0
 41
0
 38
0
  0
VERTEX
  8
0
  10
-0.833333333333333
  20
2
  30
0
  0
VERTEX
  8
0
  10
0.833333333333333
  20
2
  30
0
  0
VERTEX
  8
0
  10
0
  20
1
  30
0
  0
SEQEND
  0
POLYLINE
  8
0
  62
0
  66
1
  10
0
  20
0
 40
0
 41
0
 38
0
  0
VERTEX
  8
0
  10
-2.5
  20
1
  30
0
  0
VERTEX
  8
0
  10
2.5
  20
1
  30
0
  0
SEQEND
  0
POLYLINE
  8
0
  62
0
  66
1
  10
0
  20
0
 40
0
 41
0
 38
0
  0
VERTEX
  8
0
  10
-0.416666666666667
  20
0.8
  30
0
  0
VERTEX
  8
0
  10
0.416666666666667
  20
0.8
  30
0
  0
SEQEND
  0
ARC
  8
0
  62
0
  10
0
  20
2
  40
2.5
  50
0
  51
180
  0
ARC
  8
0
  62
0
  10
0
  20
-2
  40
2.5
  50
180
  51
360
  0
ENDBLK
  0
BLOCK
  8
0
  2
RUPTUREDISK
  70
64
  10
0
  20
0
  30
0
  0
POLYLINE
  8
0
  62
0
  66
1
  10
0
  20
0
  70
1
 40
0
 41
0
 38
0
  0
VERTEX
  8
0
  10
2
  20
3
  30
0
  0
VERTEX
  8
0
  10
-2
  20
3
  30
0
  0
VERTEX
  8
0
  10
-2
  20
-3
  30
0
  0
VERTEX
  8
0
  10
2
  20
-3
  30
0
  0
SEQEND
  0
POLYLINE
  8
0
  62
0
  66
1
  10
0
  20
0
 40
0
 41
0
 38
0
  0
VERTEX
  8
0
  10
-3
  20
0
  30
0
  0
VERTEX
  8
0
  10
-2
  20
0
  30
0
  0
SEQEND
  0
POLYLINE
  8
0
  62
0
  66
1
  10
0
  20
0
 40
0
 41
0
 38
0
  0
VERTEX
  8
0
  10
2
  20
0
  30
0
  0
VERTEX
  8
0
  10
3
  20
1
  30
0
  0
SEQEND
  0
POLYLINE
  8
0
  62
0
  66
1
  10
0
  20
0
 40
0
 41
0
 38
0
  0
VERTEX
  8
0
  10
2
  20
0
  30
0
  0
VERTEX
  8
0
  10
3
  20
-1
  30
0
  0
SEQEND
  0
POLYLINE
  8
0
  62
0
  66
1
  10
0
  20
0
 40
0
 41
0
 38
0
  0
VERTEX
  8
0
  10
2
  20
0
  30
0
  0
VERTEX
  8
0
  10
3
  20
0
  30
0
  0
SEQEND
  0
POLYLINE
  8
0
  62
0
  66
1
  10
0
  20
0
 40
0
 41
0
 38
0
  0
VERTEX
  8
0
  10
0
  20
3
  30
0
  0
VERTEX
  8
0
  10
0
  20
1.8
  30
0
  0
SEQEND
  0
POLYLINE
  8
0
  62
0
  66
1
  10
0
  20
0
 40
0
 41
0
 38
0
  0
VERTEX
  8
0
  10
0
  20
0.6
  30
0
  0
VERTEX
  8
0
  10
0
  20
-0.6
  30
0
  0
SEQEND
  0
POLYLINE
  8
0
  62
0
  66
1
  10
0
  20
0
 40
0
 41
0
 38
0
  0
VERTEX
  8
0
  10
0
  20
-1.8
  30
0
  0
VERTEX
  8
0
  10
0
  20
-3
  30
0
  0
SEQEND
  0
ENDBLK
  0
BLOCK
  8
0
  2
TURBINE
  70
64
  10
0
  20
0
  30
0
  0
ARC
  8
0
  62
0
  10
0
  20
0
  40
2.5
  50
150
  51
270
  0
ARC
  8
0
  62
0
  10
0
  20
0
  40
2.5
  50
330
  51
450
  0
POLYLINE
  8
0
  62
0
  66
1
  10
0
  20
0
 40
0
 41
0
 38
0
  0
VERTEX
  8
0
  10
0
  20
2.5
  30
0
  0
VERTEX
  8
0
  10
-3
  20
2.5
  30
0
  0
VERTEX
  8
0
  10
-3
  20
0.833333333333333
  30
0
  0
VERTEX
  8
0
  10
-2.41666666666667
  20
0.833333333333333
  30
0
  0
SEQEND
  0
POLYLINE
  8
0
  62
0
  66
1
  10
0
  20
0
 40
0
 41
0
 38
0
  0
VERTEX
  8
0
  10
0
  20
-2.5
  30
0
  0
VERTEX
  8
0
  10
3
  20
-2.5
  30
0
  0
VERTEX
  8
0
  10
3
  20
-0.833333333333333
  30
0
  0
VERTEX
  8
0
  10
2.41666666666667
  20
-0.833333333333333
  30
0
  0
SEQEND
  0
CIRCLE
  8
0
  62
0
  10
0
  20
0
  40
0.25
  0
ENDBLK
  0
BLOCK
  8
0
  2
PERIODIC
  70
64
  10
0
  20
0
  30
0
  0
POLYLINE
  8
0
  62
0
  66
1
  10
0
  20
0
 40
0
 41
0
 38
0
  0
VERTEX
  8
0
  10
-3
  20
0
  30
0
  0
VERTEX
  8
0
  10
-2.25
  20
3
  30
0
  0
VERTEX
  8
0
  10
-0.75
  20
-3
  30
0
  0
VERTEX
  8
0
  10
0.75
  20
3
  30
0
  0
VERTEX
  8
0
  10
2.25
  20
-3
  30
0
  0
VERTEX
  8
0
  10
3
  20
0
  30
0
  0
SEQEND
  0
ENDBLK
  0
BLOCK
  8
0
  2
HAMMERMANHOLE
  70
64
  10
0
  20
0
  30
0
  0
POLYLINE
  8
0
  62
0
  66
1
  10
0
  20
0
 40
0
 41
0
 38
0
  0
VERTEX
  8
0
  10
3
  20
-2.625
  30
0
  0
VERTEX
  8
0
  10
3
  20
1
  30
0
  0
SEQEND
  0
POLYLINE
  8
0
  62
0
  66
1
  10
0
  20
0
 40
0
 41
0
 38
0
  0
VERTEX
  8
0
  10
-0.75
  20
-2.625
  30
0
  0
VERTEX
  8
0
  10
-0.75
  20
1
  30
0
  0
SEQEND
  0
POLYLINE
  8
0
  62
0
  66
1
  10
0
  20
0
 40
0
 41
0
 38
0
  0
VERTEX
  8
0
  10
-0.75
  20
-2.25
  30
0
  0
VERTEX
  8
0
  10
-3
  20
-2.25
  30
0
  0
SEQEND
  0
POLYLINE
  8
0
  62
0
  66
1
  10
0
  20
0
 40
0
 41
0
 38
0
  0
VERTEX
  8
0
  10
-0.75
  20
1
  30
0
  0
VERTEX
  8
0
  10
0
  20
2.625
  30
0
  0
SEQEND
  0
POLYLINE
  8
0
  62
0
  66
1
  10
0
  20
0
 40
0
 41
0
 38
0
  0
VERTEX
  8
0
  10
3
  20
1
  30
0
  0
VERTEX
  8
0
  10
2.625
  20
2.625
  30
0
  0
SEQEND
  0
POLYLINE
  8
0
  62
0
  66
1
  10
0
  20
0
 40
0
 41
0
 38
0
  0
VERTEX
  8
0
  10
-0.75
  20
-2.625
  30
0
  0
VERTEX
  8
0
  10
-0.726915638615883
  20
-2.68366292439009
  30
0
  0
VERTEX
  8
0
  10
-0.658230968053413
  20
-2.74088137289061
  30
0
  0
VERTEX
  8
0
  10
-0.54563723285319
  20
-2.79524643740233
  30
0
  0
VERTEX
  8
0
  10
-0.391906864453027
  20
-2.84541946960968
  30
0
  0
VERTEX
  8
0
  10
-0.200825214724777
  20
-2.89016504294496
  30
0
  0
VERTEX
  8
0
  10
0.0229026519516127
  20
-2.92838137289061
  30
0
  0
VERTEX
  8
0
  10
0.27376781298835
  20
-2.95912744657064
  30
0
  0
VERTEX
  8
0
  10
0.545593135546973
  20
-2.98164619361068
  30
0
  0
VERTEX
  8
0
  10
0.831685378049567
  20
-2.99538312772318
  30
0
  0
VERTEX
  8
0
  10
1.125
  20
-3
  30
0
  0
VERTEX
  8
0
  10
1.41831462195043
  20
-2.99538312772318
  30
0
  0
VERTEX
  8
0
  10
1.70440686445303
  20
-2.98164619361068
  30
0
  0
VERTEX
  8
0
  10
1.97623218701165
  20
-2.95912744657064
  30
0
  0
VERTEX
  8
0
  10
2.22709734804839
  20
-2.92838137289061
  30
0
  0
VERTEX
  8
0
  10
2.45082521472478
  20
-2.89016504294496
  30
0
  0
VERTEX
  8
0
  10
2.64190686445303
  20
-2.84541946960968
  30
0
  0
VERTEX
  8
0
  10
2.79563723285319
  20
-2.79524643740233
  30
0
  0
VERTEX
  8
0
  10
2.90823096805341
  20
-2.74088137289061
  30
0
  0
VERTEX
  8
0
  10
2.97691563861588
  20
-2.68366292439009
  30
0
  0
SEQEND
  0
POLYLINE
  8
0
  62
0
  66
1
  10
0
  20
0
 40
0
 41
0
 38
0
  0
VERTEX
  8
0
  10
-0.75
  20
1
  30
0
  0
VERTEX
  8
0
  10
-0.726915638615883
  20
0.941337075609914
  30
0
  0
VERTEX
  8
0
  10
-0.658230968053413
  20
0.884118627109395
  30
0
  0
VERTEX
  8
0
  10
-0.54563723285319
  20
0.82975356259767
  30
0
  0
VERTEX
  8
0
  10
-0.391906864453027
  20
0.779580530390323
  30
0
  0
VERTEX
  8
0
  10
-0.200825214724777
  20
0.734834957055045
  30
0
  0
VERTEX
  8
0
  10
0.0229026519516127
  20
0.696618627109395
  30
0
  0
VERTEX
  8
0
  10
0.27376781298835
  20
0.665872553429362
  30
0
  0
VERTEX
  8
0
  10
0.545593135546973
  20
0.643353806389317
  30
0
  0
VERTEX
  8
0
  10
0.831685378049567
  20
0.629616872276823
  30
0
  0
VERTEX
  8
0
  10
1.125
  20
0.625
  30
0
  0
VERTEX
  8
0
  10
1.41831462195043
  20
0.629616872276823
  30
0
  0
VERTEX
  8
0
  10
1.70440686445303
  20
0.643353806389317
  30
0
  0
VERTEX
  8
0
  10
1.97623218701165
  20
0.665872553429362
  30
0
  0
VERTEX
  8
0
  10
2.22709734804839
  20
0.696618627109395
  30
0
  0
VERTEX
  8
0
  10
2.45082521472478
  20
0.734834957055045
  30
0
  0
VERTEX
  8
0
  10
2.64190686445303
  20
0.779580530390322
  30
0
  0
VERTEX
  8
0
  10
2.79563723285319
  20
0.82975356259767
  30
0
  0
VERTEX
  8
0
  10
2.90823096805341
  20
0.884118627109395
  30
0
  0
VERTEX
  8
0
  10
2.97691563861588
  20
0.941337075609913
  30
0
  0
SEQEND
  0
POLYLINE
  8
0
  62
0
  66
1
  10
0
  20
0
  70
1
 40
0
 41
0
 38
0
  0
VERTEX
  8
0
  10
2.625
  20
2.625
  30
0
  0
VERTEX
  8
0
  10
2.60884094703112
  20
2.68366292439009
  30
0
  0
VERTEX
  8
0
  10
2.56076167763739
  20
2.74088137289061
  30
0
  0
VERTEX
  8
0
  10
2.48194606299723
  20
2.79524643740233
  30
0
  0
VERTEX
  8
0
  10
2.37433480511712
  20
2.84541946960968
  30
0
  0
VERTEX
  8
0
  10
2.24057765030734
  20
2.89016504294496
  30
0
  0
VERTEX
  8
0
  10
2.08396814363387
  20
2.92838137289061
  30
0
  0
VERTEX
  8
0
  10
1.90836253090816
  20
2.95912744657064
  30
0
  0
VERTEX
  8
0
  10
1.71808480511712
  20
2.98164619361068
  30
0
  0
VERTEX
  8
0
  10
1.5178202353653
  20
2.99538312772318
  30
0
  0
VERTEX
  8
0
  10
1.3125
  20
3
  30
0
  0
VERTEX
  8
0
  10
1.1071797646347
  20
2.99538312772318
  30
0
  0
VERTEX
  8
0
  10
0.906915194882882
  20
2.98164619361068
  30
0
  0
VERTEX
  8
0
  10
0.716637469091845
  20
2.95912744657064
  30
0
  0
VERTEX
  8
0
  10
0.541031856366129
  20
2.92838137289061
  30
0
  0
VERTEX
  8
0
  10
0.384422349692656
  20
2.89016504294496
  30
0
  0
VERTEX
  8
0
  10
0.250665194882882
  20
2.84541946960968
  30
0
  0
VERTEX
  8
0
  10
0.143053937002767
  20
2.79524643740233
  30
0
  0
VERTEX
  8
0
  10
0.0642383223626111
  20
2.74088137289061
  30
0
  0
VERTEX
  8
0
  10
0.0161590529688818
  20
2.68366292439009
  30
0
  0
VERTEX
  8
0
  10
0
  20
2.625
  30
0
  0
VERTEX
  8
0
  10
0.0161590529688818
  20
2.56633707560991
  30
0
  0
VERTEX
  8
0
  10
0.0642383223626108
  20
2.50911862710939
  30
0
  0
VERTEX
  8
0
  10
0.143053937002767
  20
2.45475356259767
  30
0
  0
VERTEX
  8
0
  10
0.250665194882881
  20
2.40458053039032
  30
0
  0
VERTEX
  8
0
  10
0.384422349692656
  20
2.35983495705504
  30
0
  0
VERTEX
  8
0
  10
0.541031856366129
  20
2.32161862710939
  30
0
  0
VERTEX
  8
0
  10
0.716637469091845
  20
2.29087255342936
  30
0
  0
VERTEX
  8
0
  10
0.906915194882881
  20
2.26835380638932
  30
0
  0
VERTEX
  8
0
  10
1.1071797646347
  20
2.25461687227682
  30
0
  0
VERTEX
  8
0
  10
1.3125
  20
2.25
  30
0
  0
VERTEX
  8
0
  10
1.5178202353653
  20
2.25461687227682
  30
0
  0
VERTEX
  8
0
  10
1.71808480511712
  20
2.26835380638932
  30
0
  0
VERTEX
  8
0
  10
1.90836253090816
  20
2.29087255342936
  30
0
  0
VERTEX
  8
0
  10
2.08396814363387
  20
2.32161862710939
  30
0
  0
VERTEX
  8
0
  10
2.24057765030734
  20
2.35983495705504
  30
0
  0
VERTEX
  8
0
  10
2.37433480511712
  20
2.40458053039032
  30
0
  0
VERTEX
  8
0
  10
2.48194606299723
  20
2.45475356259767
  30
0
  0
VERTEX
  8
0
  10
2.56076167763739
  20
2.50911862710939
  30
0
  0
VERTEX
  8
0
  10
2.60884094703112
  20
2.56633707560991
  30
0
  0
SEQEND
  0
ENDBLK
  0
BLOCK
  8
0
  2
ORIFICE
  70
64
  10
0
  20
0
  30
0
  0
POLYLINE
  8
0
  62
0
  66
1
  10
0
  20
0
 40
0
 41
0
 38
0
  0
VERTEX
  8
0
  10
2.5
  20
0.6
  30
0
  0
VERTEX
  8
0
  10
1.66666666666667
  20
0.6
  30
0
  0
VERTEX
  8
0
  10
1.66666666666667
  20
3
  30
0
  0
VERTEX
  8
0
  10
-1.66666666666667
  20
3
  30
0
  0
VERTEX
  8
0
  10
-1.66666666666667
  20
0.6
  30
0
  0
VERTEX
  8
0
  10
-2.5
  20
0.6
  30
0
  0
SEQEND
  0
POLYLINE
  8
0
  62
0
  66
1
  10
0
  20
0
 40
0
 41
0
 38
0
  0
VERTEX
  8
0
  10
2.5
  20
-0.6
  30
0
  0
VERTEX
  8
0
  10
1.66666666666667
  20
-0.6
  30
0
  0
VERTEX
  8
0
  10
1.66666666666667
  20
-3
  30
0
  0
VERTEX
  8
0
  10
-1.66666666666667
  20
-3
  30
0
  0
VERTEX
  8
0
  10
-1.66666666666667
  20
-0.6
  30
0
  0
VERTEX
  8
0
  10
-2.5
  20
-0.6
  30
0
  0
SEQEND
  0
POLYLINE
  8
0
  62
0
  66
1
  10
0
  20
0
 40
0
 41
0
 38
0
  0
VERTEX
  8
0
  10
0
  20
3
  30
0
  0
VERTEX
  8
0
  10
0
  20
1
  30
0
  0
SEQEND
  0
POLYLINE
  8
0
  62
0
  66
1
  10
0
  20
0
 40
0
 41
0
 38
0
  0
VERTEX
  8
0
  10
0
  20
-3
  30
0
  0
VERTEX
  8
0
  10
0
  20
-1
  30
0
  0
SEQEND
  0
ENDBLK
  0
BLOCK
  8
0
  2
HAMMERVALVETOATMOSPHERE
  70
64
  10
0
  20
0
  30
0
  0
POLYLINE
  8
0
  62
0
  66
1
  10
0
  20
0
  70
1
 40
0
 41
0
 38
0
  0
VERTEX
  8
0
  10
-3
  20
3
  30
0
  0
VERTEX
  8
0
  10
-3
  20
-3
  30
0
  0
VERTEX
  8
0
  10
0
  20
0
  30
0
  0
SEQEND
  0
POLYLINE
  8
0
  62
0
  66
1
  10
0
  20
0
  70
1
 40
0
 41
0
 38
0
  0
VERTEX
  8
0
  10
0
  20
0
  30
0
  0
VERTEX
  8
0
  10
3
  20
3
  30
0
  0
VERTEX
  8
0
  10
3
  20
-3
  30
0
  0
SEQEND
  0
POLYLINE
  8
0
  62
0
  66
1
  10
0
  20
0
 40
0
 41
0
 38
0
  0
VERTEX
  8
0
  10
3
  20
0
  30
0
  0
VERTEX
  8
0
  10
4.5
  20
0
  30
0
  0
SEQEND
  0
POLYLINE
  8
0
  62
0
  66
1
  10
0
  20
0
 40
0
 41
0
 38
0
  0
VERTEX
  8
0
  10
-3
  20
0
  30
0
  0
VERTEX
  8
0
  10
-4.5
  20
0
  30
0
  0
SEQEND
  0
POLYLINE
  8
0
  62
0
  66
1
  10
0
  20
0
 40
0
 41
0
 38
0
  0
VERTEX
  8
0
  10
4.5
  20
0.75
  30
0
  0
VERTEX
  8
0
  10
3.75
  20
0
  30
0
  0
VERTEX
  8
0
  10
4.5
  20
-0.75
  30
0
  0
SEQEND
  0
ENDBLK
  0
BLOCK
  8
0
  2
HAMMERCHECKVALVE
  70
64
  10
0
  20
0
  30
0
  0
POLYLINE
  8
0
  62
0
  66
1
  10
0
  20
0
 40
0
 41
0
 38
0
  0
VERTEX
  8
0
  10
3
  20
0.6
  30
0
  0
VERTEX
  8
0
  10
2
  20
0.6
  30
0
  0
VERTEX
  8
0
  10
2
  20
3
  30
0
  0
VERTEX
  8
0
  10
-2
  20
3
  30
0
  0
VERTEX
  8
0
  10
-2
  20
0.6
  30
0
  0
VERTEX
  8
0
  10
-3
  20
0.6
  30
0
  0
SEQEND
  0
POLYLINE
  8
0
  62
0
  66
1
  10
0
  20
0
 40
0
 41
0
 38
0
  0
VERTEX
  8
0
  10
3
  20
-0.6
  30
0
  0
VERTEX
  8
0
  10
2
  20
-0.6
  30
0
  0
VERTEX
  8
0
  10
2
  20
-3
  30
0
  0
VERTEX
  8
0
  10
-2
  20
-3
  30
0
  0
VERTEX
  8
0
  10
-2
  20
-0.6
  30
0
  0
VERTEX
  8
0
  10
-3
  20
-0.6
  30
0
  0
SEQEND
  0
POLYLINE
  8
0
  62
0
  66
1
  10
0
  20
0
 40
0
 41
0
 38
0
  0
VERTEX
  8
0
  10
-2
  20
3
  30
0
  0
VERTEX
  8
0
  10
2
  20
-3
  30
0
  0
SEQEND
  0
ENDBLK
  0
BLOCK
  8
0
  2
SURGETANK
  70
64
  10
0
  20
0
  30
0
  0
POLYLINE
  8
0
  62
0
  66
1
  10
0
  20
0
 40
0
 41
0
 38
0
  0
VERTEX
  8
0
  10
-2.5
  20
3.25
  30
0
  0
VERTEX
  8
0
  10
-2.5
  20
-2
  30
0
  0
SEQEND
  0
POLYLINE
  8
0
  62
0
  66
1
  10
0
  20
0
 40
0
 41
0
 38
0
  0
VERTEX
  8
0
  10
2.5
  20
-2
  30
0
  0
VERTEX
  8
0
  10
2.5
  20
3.25
  30
0
  0
SEQEND
  0
POLYLINE
  8
0
  62
0
  66
1
  10
0
  20
0
  70
1
 40
0
 41
0
 38
0
  0
VERTEX
  8
0
  10
-0.833333333333333
  20
2
  30
0
  0
VERTEX
  8
0
  10
0.833333333333333
  20
2
  30
0
  0
VERTEX
  8
0
  10
0
  20
1
  30
0
  0
SEQEND
  0
POLYLINE
  8
0
  62
0
  66
1
  10
0
  20
0
 40
0
 41
0
 38
0
  0
VERTEX
  8
0
  10
-2.5
  20
1
  30
0
  0
VERTEX
  8
0
  10
2.5
  20
1
  30
0
  0
SEQEND
  0
POLYLINE
  8
0
  62
0
  66
1
  10
0
  20
0
 40
0
 41
0
 38
0
  0
VERTEX
  8
0
  10
-0.416666666666667
  20
0.8
  30
0
  0
VERTEX
  8
0
  10
0.416666666666667
  20
0.8
  30
0
  0
SEQEND
  0
POLYLINE
  8
0
  62
0
  66
1
  10
0
  20
0
 40
0
 41
0
 38
0
  0
VERTEX
  8
0
  10
-2.5
  20
3.25
  30
0
  0
VERTEX
  8
0
  10
2.5
  20
3.25
  30
0
  0
SEQEND
  0
ARC
  8
0
  62
0
  10
0
  20
-2
  40
2.5
  50
180
  51
360
  0
ENDBLK
  0
BLOCK
  8
0
  2
VALVEWITHLINEARAREACHANGE
  70
64
  10
0
  20
0
  30
0
  0
POLYLINE
  8
0
  62
0
  66
1
  10
0
  20
0
  70
1
 40
0
 41
0
 38
0
  0
VERTEX
  8
0
  10
-3
  20
3
  30
0
  0
VERTEX
  8
0
  10
-3
  20
-3
  30
0
  0
VERTEX
  8
0
  10
0
  20
0
  30
0
  0
SEQEND
  0
POLYLINE
  8
0
  62
0
  66
1
  10
0
  20
0
  70
1
 40
0
 41
0
 38
0
  0
VERTEX
  8
0
  10
0
  20
0
  30
0
  0
VERTEX
  8
0
  10
3
  20
3
  30
0
  0
VERTEX
  8
0
  10
3
  20
-3
  30
0
  0
SEQEND
  0
POLYLINE
  8
0
  62
0
  66
1
  10
0
  20
0
 40
0
 41
0
 38
0
  0
VERTEX
  8
0
  10
-0.9
  20
0.9
  30
0
  0
VERTEX
  8
0
  10
-0.9
  20
3.6
  30
0
  0
VERTEX
  8
0
  10
0.9
  20
3.6
  30
0
  0
VERTEX
  8
0
  10
0.9
  20
0.9
  30
0
  0
SEQEND
  0
ENDBLK
  0
BLOCK
  8
0
  2
HEADWALL
  70
64
  10
0
  20
0
  30
0
  0
POLYLINE
  8
0
  62
0
  66
1
  10
0
  20
0
 40
0
 41
0
 38
0
  0
VERTEX
  8
0
  10
-1.2
  20
-3
  30
0
  0
VERTEX
  8
0
  10
2
  20
-0.75
  30
0
  0
SEQEND
  0
POLYLINE
  8
0
  62
0
  66
1
  10
0
  20
0
 40
0
 41
0
 38
0
  0
VERTEX
  8
0
  10
-1.2
  20
3
  30
0
  0
VERTEX
  8
0
  10
2
  20
0.75
  30
0
  0
SEQEND
  0
POLYLINE
  8
0
  62
0
  66
1
  10
0
  20
0
 40
0
 41
0
 38
0
  0
VERTEX
  8
0
  10
2
  20
-0.75
  30
0
  0
VERTEX
  8
0
  10
2
  20
0.75
  30
0
  0
SEQEND
  0
ENDBLK
  0
BLOCK
  8
0
  2
CUSTOMER
  70
64
  10
0
  20
0
  30
0
  0
POLYLINE
  8
0
  62
0
  66
1
  10
0
  20
0
  70
1
 40
0
 41
0
 38
0
  0
VERTEX
  8
0
  10
-3.5
  20
-0.416363501240312
  30
0
  0
VERTEX
  8
0
  10
-2.86421257159897
  20
-0.416363501240312
  30
0
  0
VERTEX
  8
0
  10
-2.86421257159897
  20
-3.25
  30
0
  0
VERTEX
  8
0
  10
2.86421257159901
  20
-3.25
  30
0
  0
VERTEX
  8
0
  10
2.86421257159901
  20
-0.416363501240312
  30
0
  0
VERTEX
  8
0
  10
3.5
  20
-0.416363501240312
  30
0
  0
VERTEX
  8
0
  10
-4.44089209850063E-16
  20
3.25
  30
0
  0
VERTEX
  8
0
  10
-1.32484963526635
  20
1.86217704360794
  30
0
  0
VERTEX
  8
0
  10
-1.32484963526635
  20
2.72722580882371
  30
0
  0
VERTEX
  8
0
  10
-2.4866329834419
  20
2.72722580882371
  30
0
  0
VERTEX
  8
0
  10
-2.4866329834419
  20
0.645171311008057
  30
0
  0
VERTEX
  8
0
  10
-3.5
  20
-0.416363501240312
  30
0
  0
SEQEND
  0
ENDBLK
  0
BLOCK
  8
0
  2
SCADAELEMENT
  70
64
  10
0
  20
0
  30
0
  0
POLYLINE
  8
0
  62
0
  66
1
  10
0
  20
0
  70
1
 40
0
 41
0
 38
0
  0
VERTEX
  8
0
  10
0
  20
1.91713567364732
  30
0
  0
VERTEX
  8
0
  10
0
  20
3
  30
0
  0
VERTEX
  8
0
  10
-3
  20
3
  30
0
  0
VERTEX
  8
0
  10
-3
  20
-3
  30
0
  0
VERTEX
  8
0
  10
0
  20
-3
  30
0
  0
VERTEX
  8
0
  10
0
  20
-2.1340323576012
  30
0
  0
VERTEX
  8
0
  10
-0.0470106955888369
  20
-2.13157925918268
  30
0
  0
VERTEX
  8
0
  10
-0.0962996436561475
  20
-2.1236469929938
  30
0
  0
VERTEX
  8
0
  10
-0.157075664359468
  20
-2.1058392813787
  30
0
  0
VERTEX
  8
0
  10
-0.211430333113993
  20
-2.08148920344326
  30
0
  0
VERTEX
  8
0
  10
-0.267417489093601
  20
-2.04635717020209
  30
0
  0
VERTEX
  8
0
  10
-0.319371867148948
  20
-2.00174462783641
  30
0
  0
VERTEX
  8
0
  10
-0.364794028965477
  20
-1.9486847575277
  30
0
  0
VERTEX
  8
0
  10
-0.403455377481408
  20
-1.88540101143776
  30
0
  0
VERTEX
  8
0
  10
-0.430728785009296
  20
-1.81827472323902
  30
0
  0
VERTEX
  8
0
  10
-0.446634311574839
  20
-1.74956139057942
  30
0
  0
VERTEX
  8
0
  10
-0.451659596913739
  20
-1.68237379650271
  30
0
  0
VERTEX
  8
0
  10
-0.447433781104369
  20
-1.62073456989659
  30
0
  0
VERTEX
  8
0
  10
-0.433947779947748
  20
-1.55713131540958
  30
0
  0
VERTEX
  8
0
  10
-0.417451820945673
  20
-1.50994903665787
  30
0
  0
VERTEX
  8
0
  10
-0.381184020544528
  20
-1.44010331137
  30
0
  0
VERTEX
  8
0
  10
-0.333817041535503
  20
-1.37813321712754
  30
0
  0
VERTEX
  8
0
  10
-0.272718254106163
  20
-1.32234494396277
  30
0
  0
VERTEX
  8
0
  10
-0.199696946734622
  20
-1.27726023344212
  30
0
  0
VERTEX
  8
0
  10
-0.127801432038139
  20
-1.24917347962975
  30
0
  0
VERTEX
  8
0
  10
-0.0607889535933684
  20
-1.23482459823981
  30
0
  0
VERTEX
  8
0
  10
0
  20
-1.23071523540422
  30
0
  0
VERTEX
  8
0
  10
0
  20
-0.363822893396559
  30
0
  0
VERTEX
  8
0
  10
-0.131810444754927
  20
-0.369643186971265
  30
0
  0
VERTEX
  8
0
  10
-0.290889092899581
  20
-0.390907614678772
  30
0
  0
VERTEX
  8
0
  10
-0.429610074221232
  20
-0.422636941976737
  30
0
  0
VERTEX
  8
0
  10
-0.618129086537295
  20
-0.486914180685657
  30
0
  0
VERTEX
  8
0
  10
-0.802933831932317
  20
-0.576531309425407
  30
0
  0
VERTEX
  8
0
  10
-0.977500260864244
  20
-0.690209230456477
  30
0
  0
VERTEX
  8
0
  10
-1.16048062480929
  20
-0.848797248862784
  30
0
  0
VERTEX
  8
0
  10
-1.64221425968752
  20
-0.339889178679556
  30
0
  0
VERTEX
  8
0
  10
-1.50453897027223
  20
-0.214398379162644
  30
0
  0
VERTEX
  8
0
  10
-1.32495568844728
  20
-0.0775044464974532
  30
0
  0
VERTEX
  8
0
  10
-1.11956364660338
  20
0.0489310143144967
  30
0
  0
VERTEX
  8
0
  10
-0.881889754123368
  20
0.162072751648919
  30
0
  0
VERTEX
  8
0
  10
-0.628510132863042
  20
0.249169355825186
  30
0
  0
VERTEX
  8
0
  10
-0.416488505020075
  20
0.298277328780763
  30
0
  0
VERTEX
  8
0
  10
-0.176226244063866
  20
0.329588671143345
  30
0
  0
VERTEX
  8
0
  10
0
  20
0.336707859893276
  30
0
  0
VERTEX
  8
0
  10
0
  20
1.12849827746807
  30
0
  0
VERTEX
  8
0
  10
-0.339795421590807
  20
1.10861646787871
  30
0
  0
VERTEX
  8
0
  10
-0.649142654152356
  20
1.05786613057046
  30
0
  0
VERTEX
  8
0
  10
-1.04695817261463
  20
0.944111446587548
  30
0
  0
VERTEX
  8
0
  10
-1.37773988568312
  20
0.803576921692814
  30
0
  0
VERTEX
  8
0
  10
-1.65643212604041
  20
0.647720571557876
  30
0
  0
VERTEX
  8
0
  10
-1.92660753965681
  20
0.457498635279747
  30
0
  0
VERTEX
  8
0
  10
-2.18011264302888
  20
0.235231041324221
  30
0
  0
VERTEX
  8
0
  10
-2.72231961956566
  20
0.808023734404429
  30
0
  0
VERTEX
  8
0
  10
-2.46061081470045
  20
1.04029402313579
  30
0
  0
VERTEX
  8
0
  10
-2.21203249610563
  20
1.22606719003666
  30
0
  0
VERTEX
  8
0
  10
-1.93706445438285
  20
1.39881537457675
  30
0
  0
VERTEX
  8
0
  10
-1.51994088981423
  20
1.60562270027602
  30
0
  0
VERTEX
  8
0
  10
-1.10159414430992
  20
1.75566495410494
  30
0
  0
VERTEX
  8
0
  10
-0.73648730022736
  20
1.84496952862765
  30
0
  0
VERTEX
  8
0
  10
-0.311610069279907
  20
1.90371400005568
  30
0
  0
VERTEX
  8
0
  10
0
  20
1.91713567364732
  30
0
  0
SEQEND
  0
POLYLINE
  8
0
  62
0
  66
1
  10
0
  20
0
  70
1
 40
0
 41
0
 38
0
  0
VERTEX
  8
0
  10
0
  20
1.91713567364732
  30
0
  0
VERTEX
  8
0
  10
0
  20
3
  30
0
  0
VERTEX
  8
0
  10
3
  20
3
  30
0
  0
VERTEX
  8
0
  10
3
  20
-3
  30
0
  0
VERTEX
  8
0
  10
0
  20
-3
  30
0
  0
VERTEX
  8
0
  10
0
  20
-2.1340323576012
  30
0
  0
VERTEX
  8
0
  10
0.0470106955888369
  20
-2.13157925918268
  30
0
  0
VERTEX
  8
0
  10
0.0962996436561475
  20
-2.1236469929938
  30
0
  0
VERTEX
  8
0
  10
0.157075664359468
  20
-2.1058392813787
  30
0
  0
VERTEX
  8
0
  10
0.211430333113993
  20
-2.08148920344326
  30
0
  0
VERTEX
  8
0
  10
0.267417489093601
  20
-2.04635717020209
  30
0
  0
VERTEX
  8
0
  10
0.319371867148948
  20
-2.00174462783641
  30
0
  0
VERTEX
  8
0
  10
0.364794028965477
  20
-1.9486847575277
  30
0
  0
VERTEX
  8
0
  10
0.403455377481408
  20
-1.88540101143776
  30
0
  0
VERTEX
  8
0
  10
0.430728785009296
  20
-1.81827472323902
  30
0
  0
VERTEX
  8
0
  10
0.446634311574839
  20
-1.74956139057942
  30
0
  0
VERTEX
  8
0
  10
0.451659596913739
  20
-1.68237379650271
  30
0
  0
VERTEX
  8
0
  10
0.447433781104369
  20
-1.62073456989659
  30
0
  0
VERTEX
  8
0
  10
0.433947779947748
  20
-1.55713131540958
  30
0
  0
VERTEX
  8
0
  10
0.417451820945673
  20
-1.50994903665787
  30
0
  0
VERTEX
  8
0
  10
0.381184020544528
  20
-1.44010331137
  30
0
  0
VERTEX
  8
0
  10
0.333817041535503
  20
-1.37813321712754
  30
0
  0
VERTEX
  8
0
  10
0.272718254106163
  20
-1.32234494396277
  30
0
  0
VERTEX
  8
0
  10
0.199696946734622
  20
-1.27726023344212
  30
0
  0
VERTEX
  8
0
  10
0.127801432038139
  20
-1.24917347962975
  30
0
  0
VERTEX
  8
0
  10
0.0607889535933684
  20
-1.23482459823981
  30
0
  0
VERTEX
  8
0
  10
0
  20
-1.23071523540422
  30
0
  0
VERTEX
  8
0
  10
0
  20
-0.363822893396559
  30
0
  0
VERTEX
  8
0
  10
0.131810444754927
  20
-0.369643186971265
  30
0
  0
VERTEX
  8
0
  10
0.290889092899581
  20
-0.390907614678772
  30
0
  0
VERTEX
  8
0
  10
0.429610074221232
  20
-0.422636941976737
  30
0
  0
VERTEX
  8
0
  10
0.618129086537295
  20
-0.486914180685657
  30
0
  0
VERTEX
  8
0
  10
0.802933831932317
  20
-0.576531309425407
  30
0
  0
VERTEX
  8
0
  10
0.977500260864244
  20
-0.690209230456477
  30
0
  0
VERTEX
  8
0
  10
1.16048062480929
  20
-0.848797248862784
  30
0
  0
VERTEX
  8
0
  10
1.64221425968752
  20
-0.339889178679556
  30
0
  0
VERTEX
  8
0
  10
1.50453897027223
  20
-0.214398379162644
  30
0
  0
VERTEX
  8
0
  10
1.32495568844728
  20
-0.0775044464974532
  30
0
  0
VERTEX
  8
0
  10
1.11956364660338
  20
0.0489310143144967
  30
0
  0
VERTEX
  8
0
  10
0.881889754123368
  20
0.162072751648919
  30
0
  0
VERTEX
  8
0
  10
0.628510132863042
  20
0.249169355825186
  30
0
  0
VERTEX
  8
0
  10
0.416488505020075
  20
0.298277328780763
  30
0
  0
VERTEX
  8
0
  10
0.176226244063866
  20
0.329588671143345
  30
0
  0
VERTEX
  8
0
  10
0
  20
0.336707859893276
  30
0
  0
VERTEX
  8
0
  10
0
  20
1.12849827746807
  30
0
  0
VERTEX
  8
0
  10
0.339795421590807
  20
1.10861646787871
  30
0
  0
VERTEX
  8
0
  10
0.649142654152356
  20
1.05786613057046
  30
0
  0
VERTEX
  8
0
  10
1.04695817261463
  20
0.944111446587548
  30
0
  0
VERTEX
  8
0
  10
1.37773988568312
  20
0.803576921692814
  30
0
  0
VERTEX
  8
0
  10
1.65643212604041
  20
0.647720571557876
  30
0
  0
VERTEX
  8
0
  10
1.92660753965681
  20
0.457498635279747
  30
0
  0
VERTEX
  8
0
  10
2.18011264302888
  20
0.235231041324221
  30
0
  0
VERTEX
  8
0
  10
2.72231961956566
  20
0.808023734404429
  30
0
  0
VERTEX
  8
0
  10
2.46061081470045
  20
1.04029402313579
  30
0
  0
VERTEX
  8
0
  10
2.21203249610563
  20
1.22606719003666
  30
0
  0
VERTEX
  8
0
  10
1.93706445438285
  20
1.39881537457675
  30
0
  0
VERTEX
  8
0
  10
1.51994088981423
  20
1.60562270027602
  30
0
  0
VERTEX
  8
0
  10
1.10159414430992
  20
1.75566495410494
  30
0
  0
VERTEX
  8
0
  10
0.73648730022736
  20
1.84496952862765
  30
0
  0
VERTEX
  8
0
  10
0.311610069279907
  20
1.90371400005568
  30
0
  0
VERTEX
  8
0
  10
0
  20
1.91713567364732
  30
0
  0
SEQEND
  0
ENDBLK
  0
BLOCK
  8
0
  2
TAPNODE
  70
64
  10
0
  20
0
  30
0
  0
CIRCLE
  8
0
  62
0
  10
0
  20
0
  40
1.2
  0
ENDBLK
  0
BLOCK
  8
0
  2
FIRE
  70
64
  10
0
  20
0
  30
0
  0
POLYLINE
  8
0
  62
0
  66
1
  10
0
  20
0
  70
1
 40
0
 41
0
 38
0
  0
VERTEX
  8
0
  10
3.14
  20
0.06
  30
0
  0
VERTEX
  8
0
  10
3.1
  20
0.2
  30
0
  0
VERTEX
  8
0
  10
3.02
  20
0.46
  30
0
  0
VERTEX
  8
0
  10
2.98
  20
0.62
  30
0
  0
VERTEX
  8
0
  10
2.92
  20
0.9
  30
0
  0
VERTEX
  8
0
  10
2.86
  20
1.28
  30
0
  0
VERTEX
  8
0
  10
2.82
  20
1.56
  30
0
  0
VERTEX
  8
0
  10
2.82
  20
1.74
  30
0
  0
VERTEX
  8
0
  10
2.86
  20
2.14
  30
0
  0
VERTEX
  8
0
  10
2.94
  20
2.42
  30
0
  0
VERTEX
  8
0
  10
3
  20
2.64
  30
0
  0
VERTEX
  8
0
  10
3.12
  20
2.8
  30
0
  0
VERTEX
  8
0
  10
3.16
  20
2.84
  30
0
  0
VERTEX
  8
0
  10
2.96
  20
2.78
  30
0
  0
VERTEX
  8
0
  10
2.8
  20
2.72
  30
0
  0
VERTEX
  8
0
  10
2.46
  20
2.52
  30
0
  0
VERTEX
  8
0
  10
2.22
  20
2.34
  30
0
  0
VERTEX
  8
0
  10
2.06
  20
2.2
  30
0
  0
VERTEX
  8
0
  10
1.92
  20
2.04
  30
0
  0
VERTEX
  8
0
  10
1.66
  20
1.7
  30
0
  0
VERTEX
  8
0
  10
1.54
  20
1.5
  30
0
  0
VERTEX
  8
0
  10
1.4
  20
1.12
  30
0
  0
VERTEX
  8
0
  10
1.32
  20
0.76
  30
0
  0
VERTEX
  8
0
  10
1.32
  20
0.54
  30
0
  0
VERTEX
  8
0
  10
1.36
  20
0.38
  30
0
  0
VERTEX
  8
0
  10
1.06
  20
0.64
  30
0
  0
VERTEX
  8
0
  10
0.76
  20
0.96
  30
0
  0
VERTEX
  8
0
  10
0.44
  20
1.32
  30
0
  0
VERTEX
  8
0
  10
0.16
  20
1.7
  30
0
  0
VERTEX
  8
0
  10
0.06
  20
1.86
  30
0
  0
VERTEX
  8
0
  10
0
  20
1.96
  30
0
  0
VERTEX
  8
0
  10
-0.06
  20
2.04
  30
0
  0
VERTEX
  8
0
  10
-0.28
  20
2.52
  30
0
  0
VERTEX
  8
0
  10
-0.58
  20
3.42
  30
0
  0
VERTEX
  8
0
  10
-0.64
  20
4.26
  30
0
  0
VERTEX
  8
0
  10
-0.58
  20
4.78
  30
0
  0
VERTEX
  8
0
  10
-0.48
  20
5.22
  30
0
  0
VERTEX
  8
0
  10
-0.3
  20
5.68
  30
0
  0
VERTEX
  8
0
  10
-0.18
  20
5.98
  30
0
  0
VERTEX
  8
0
  10
-0.3
  20
5.96
  30
0
  0
VERTEX
  8
0
  10
-0.68
  20
5.76
  30
0
  0
VERTEX
  8
0
  10
-1.32
  20
5.24
  30
0
  0
VERTEX
  8
0
  10
-1.76
  20
4.68
  30
0
  0
VERTEX
  8
0
  10
-2.26
  20
3.56
  30
0
  0
VERTEX
  8
0
  10
-2.38
  20
2.8
  30
0
  0
VERTEX
  8
0
  10
-2.34
  20
1.98
  30
0
  0
VERTEX
  8
0
  10
-2.26
  20
1.64
  30
0
  0
VERTEX
  8
0
  10
-2.14
  20
1.1
  30
0
  0
VERTEX
  8
0
  10
-1.96
  20
0.48
  30
0
  0
VERTEX
  8
0
  10
-1.96
  20
0.1
  30
0
  0
VERTEX
  8
0
  10
-1.96
  20
-0.08
  30
0
  0
VERTEX
  8
0
  10
-2
  20
-0.26
  30
0
  0
VERTEX
  8
0
  10
-2.06
  20
-0.46
  30
0
  0
VERTEX
  8
0
  10
-2.1
  20
-0.62
  30
0
  0
VERTEX
  8
0
  10
-2.18
  20
-0.9
  30
0
  0
VERTEX
  8
0
  10
-2.26
  20
-1.04
  30
0
  0
VERTEX
  8
0
  10
-2.36
  20
-1.12
  30
0
  0
VERTEX
  8
0
  10
-2.46
  20
-1.18
  30
0
  0
VERTEX
  8
0
  10
-2.42
  20
-0.84
  30
0
  0
VERTEX
  8
0
  10
-2.4
  20
-0.7
  30
0
  0
VERTEX
  8
0
  10
-2.38
  20
-0.52
  30
0
  0
VERTEX
  8
0
  10
-2.38
  20
-0.34
  30
0
  0
VERTEX
  8
0
  10
-2.38
  20
-0.24
  30
0
  0
VERTEX
  8
0
  10
-2.39
  20
-0.14
  30
0
  0
VERTEX
  8
0
  10
-2.4
  20
-0.04
  30
0
  0
VERTEX
  8
0
  10
-2.42
  20
0.1
  30
0
  0
VERTEX
  8
0
  10
-2.44
  20
0.28
  30
0
  0
VERTEX
  8
0
  10
-2.46
  20
0.36
  30
0
  0
VERTEX
  8
0
  10
-2.54
  20
0.62
  30
0
  0
VERTEX
  8
0
  10
-2.62
  20
0.78
  30
0
  0
VERTEX
  8
0
  10
-2.84
  20
1.14
  30
0
  0
VERTEX
  8
0
  10
-2.9
  20
1.24
  30
0
  0
VERTEX
  8
0
  10
-3.04
  20
1.38
  30
0
  0
VERTEX
  8
0
  10
-3.3
  20
1.64
  30
0
  0
VERTEX
  8
0
  10
-3.64
  20
1.86
  30
0
  0
VERTEX
  8
0
  10
-3.74
  20
1.9
  30
0
  0
VERTEX
  8
0
  10
-3.74
  20
1.76
  30
0
  0
VERTEX
  8
0
  10
-3.7
  20
1.54
  30
0
  0
VERTEX
  8
0
  10
-3.68
  20
1.34
  30
0
  0
VERTEX
  8
0
  10
-3.64
  20
0.74
  30
0
  0
VERTEX
  8
0
  10
-3.66
  20
0.38
  30
0
  0
VERTEX
  8
0
  10
-3.7
  20
0.16
  30
0
  0
VERTEX
  8
0
  10
-3.72
  20
0.02
  30
0
  0
VERTEX
  8
0
  10
-3.76
  20
-0.16
  30
0
  0
VERTEX
  8
0
  10
-3.82
  20
-0.34
  30
0
  0
VERTEX
  8
0
  10
-3.9
  20
-0.48
  30
0
  0
VERTEX
  8
0
  10
-3.98
  20
-0.58
  30
0
  0
VERTEX
  8
0
  10
-4.04
  20
-0.64
  30
0
  0
VERTEX
  8
0
  10
-4.12
  20
-0.74
  30
0
  0
VERTEX
  8
0
  10
-4.22
  20
-0.86
  30
0
  0
VERTEX
  8
0
  10
-4.32
  20
-1.02
  30
0
  0
VERTEX
  8
0
  10
-4.38
  20
-1.1
  30
0
  0
VERTEX
  8
0
  10
-4.44
  20
-1.2
  30
0
  0
VERTEX
  8
0
  10
-4.7
  20
-1.74
  30
0
  0
VERTEX
  8
0
  10
-4.98
  20
-2.8
  30
0
  0
VERTEX
  8
0
  10
-4.96
  20
-3.26
  30
0
  0
VERTEX
  8
0
  10
-4.66
  20
-4.12
  30
0
  0
VERTEX
  8
0
  10
-4.4
  20
-4.5
  30
0
  0
VERTEX
  8
0
  10
-4.18
  20
-4.8
  30
0
  0
VERTEX
  8
0
  10
-3.94
  20
-4.96
  30
0
  0
VERTEX
  8
0
  10
-3.76
  20
-5.1
  30
0
  0
VERTEX
  8
0
  10
-3.4
  20
-5.3
  30
0
  0
VERTEX
  8
0
  10
-2.94
  20
-5.5
  30
0
  0
VERTEX
  8
0
  10
-2.36
  20
-5.7
  30
0
  0
VERTEX
  8
0
  10
-1.76
  20
-5.88
  30
0
  0
VERTEX
  8
0
  10
-0.96
  20
-6
  30
0
  0
VERTEX
  8
0
  10
-0.4
  20
-6.04
  30
0
  0
VERTEX
  8
0
  10
0
  20
-6.05
  30
0
  0
VERTEX
  8
0
  10
0.32
  20
-6
  30
0
  0
VERTEX
  8
0
  10
0.62
  20
-5.92
  30
0
  0
VERTEX
  8
0
  10
1.06
  20
-5.8
  30
0
  0
VERTEX
  8
0
  10
1.4
  20
-5.68
  30
0
  0
VERTEX
  8
0
  10
1.9
  20
-5.46
  30
0
  0
VERTEX
  8
0
  10
2.72
  20
-5.02
  30
0
  0
VERTEX
  8
0
  10
3.32
  20
-4.48
  30
0
  0
VERTEX
  8
0
  10
3.7
  20
-3.96
  30
0
  0
VERTEX
  8
0
  10
3.92
  20
-3.36
  30
0
  0
VERTEX
  8
0
  10
4.02
  20
-2.9
  30
0
  0
VERTEX
  8
0
  10
4.02
  20
-2.78
  30
0
  0
VERTEX
  8
0
  10
4
  20
-2.46
  30
0
  0
VERTEX
  8
0
  10
3.94
  20
-1.96
  30
0
  0
VERTEX
  8
0
  10
3.7
  20
-1.22
  30
0
  0
VERTEX
  8
0
  10
3.4
  20
-0.56
  30
0
  0
VERTEX
  8
0
  10
3.18
  20
-0.04
  30
0
  0
SEQEND
  0
ENDBLK
  0
BLOCK
  8
0
  2
PIPEBREAK
  70
64
  10
0
  20
0
  30
0
  0
POLYLINE
  8
0
  62
0
  66
1
  10
0
  20
0
  70
1
 40
0
 41
0
 38
0
  0
VERTEX
  8
0
  10
0.5
  20
1.5
  30
0
  0
VERTEX
  8
0
  10
3.3
  20
1.5
  30
0
  0
VERTEX
  8
0
  10
3.38
  20
1.4
  30
0
  0
VERTEX
  8
0
  10
3.46
  20
1.3
  30
0
  0
VERTEX
  8
0
  10
3.5
  20
1.2
  30
0
  0
VERTEX
  8
0
  10
3.5
  20
-1.2
  30
0
  0
VERTEX
  8
0
  10
3.46
  20
-1.3
  30
0
  0
VERTEX
  8
0
  10
3.38
  20
-1.4
  30
0
  0
VERTEX
  8
0
  10
3.3
  20
-1.5
  30
0
  0
VERTEX
  8
0
  10
0.5
  20
-1.5
  30
0
  0
SEQEND
  0
POLYLINE
  8
0
  62
0
  66
1
  10
0
  20
0
  70
1
 40
0
 41
0
 38
0
  0
VERTEX
  8
0
  10
-0.5
  20
1.5
  30
0
  0
VERTEX
  8
0
  10
-3.3
  20
1.5
  30
0
  0
VERTEX
  8
0
  10
-3.38
  20
1.4
  30
0
  0
VERTEX
  8
0
  10
-3.46
  20
1.3
  30
0
  0
VERTEX
  8
0
  10
-3.5
  20
1.2
  30
0
  0
VERTEX
  8
0
  10
-3.5
  20
-1.2
  30
0
  0
VERTEX
  8
0
  10
-3.46
  20
-1.3
  30
0
  0
VERTEX
  8
0
  10
-3.38
  20
-1.4
  30
0
  0
VERTEX
  8
0
  10
-3.3
  20
-1.5
  30
0
  0
VERTEX
  8
0
  10
-0.5
  20
-1.5
  30
0
  0
SEQEND
  0
POLYLINE
  8
0
  62
0
  66
1
  10
0
  20
0
  70
1
 40
0
 41
0
 38
0
  0
VERTEX
  8
0
  10
-0.2
  20
2
  30
0
  0
VERTEX
  8
0
  10
0.2
  20
2
  30
0
  0
VERTEX
  8
0
  10
0.2
  20
4
  30
0
  0
VERTEX
  8
0
  10
-0.2
  20
4
  30
0
  0
SEQEND
  0
POLYLINE
  8
0
  62
0
  66
1
  10
0
  20
0
  70
1
 40
0
 41
0
 38
0
  0
VERTEX
  8
0
  10
0.8
  20
2
  30
0
  0
VERTEX
  8
0
  10
1.2
  20
2
  30
0
  0
VERTEX
  8
0
  10
2.7
  20
3.8
  30
0
  0
VERTEX
  8
0
  10
2.3
  20
3.8
  30
0
  0
SEQEND
  0
POLYLINE
  8
0
  62
0
  66
1
  10
0
  20
0
  70
1
 40
0
 41
0
 38
0
  0
VERTEX
  8
0
  10
-1.2
  20
2
  30
0
  0
VERTEX
  8
0
  10
-0.8
  20
2
  30
0
  0
VERTEX
  8
0
  10
-2.3
  20
3.8
  30
0
  0
VERTEX
  8
0
  10
-2.7
  20
3.8
  30
0
  0
SEQEND
  0
POLYLINE
  8
0
  62
0
  66
1
  10
0
  20
0
  70
1
 40
0
 41
0
 38
0
  0
VERTEX
  8
0
  10
-0.2
  20
-2
  30
0
  0
VERTEX
  8
0
  10
0.2
  20
-2
  30
0
  0
VERTEX
  8
0
  10
0.2
  20
-4
  30
0
  0
VERTEX
  8
0
  10
-0.2
  20
-4
  30
0
  0
SEQEND
  0
POLYLINE
  8
0
  62
0
  66
1
  10
0
  20
0
  70
1
 40
0
 41
0
 38
0
  0
VERTEX
  8
0
  10
0.8
  20
-2
  30
0
  0
VERTEX
  8
0
  10
1.2
  20
-2
  30
0
  0
VERTEX
  8
0
  10
2.7
  20
-3.8
  30
0
  0
VERTEX
  8
0
  10
2.3
  20
-3.8
  30
0
  0
SEQEND
  0
POLYLINE
  8
0
  62
0
  66
1
  10
0
  20
0
  70
1
 40
0
 41
0
 38
0
  0
VERTEX
  8
0
  10
-1.2
  20
-2
  30
0
  0
VERTEX
  8
0
  10
-0.8
  20
-2
  30
0
  0
VERTEX
  8
0
  10
-2.3
  20
-3.8
  30
0
  0
VERTEX
  8
0
  10
-2.7
  20
-3.8
  30
0
  0
SEQEND
  0
ENDBLK
  0
BLOCK
  8
0
  2
ISOLATEBREAK
  70
64
  10
0
  20
0
  30
0
  0
POLYLINE
  8
0
  62
0
  66
1
  10
0
  20
0
  70
1
 40
0
 41
0
 38
0
  0
VERTEX
  8
0
  10
2.12132034355964
  20
2.12132034355964
  30
0
  0
VERTEX
  8
0
  10
2.28121789680009
  20
1.94834414499055
  30
0
  0
VERTEX
  8
0
  10
2.42705098312484
  20
1.76335575687742
  30
0
  0
VERTEX
  8
0
  10
2.55792049306228
  20
1.56749569414785
  30
0
  0
VERTEX
  8
0
  10
2.6730195725651
  20
1.36197149921864
  30
0
  0
VERTEX
  8
0
  10
2.77163859753386
  20
1.14805029709527
  30
0
  0
VERTEX
  8
0
  10
2.85316954888546
  20
0.927050983124842
  30
0
  0
VERTEX
  8
0
  10
2.91710976119303
  20
0.700336091567716
  30
0
  0
VERTEX
  8
0
  10
2.96306502178541
  20
0.469303395120693
  30
0
  0
VERTEX
  8
0
  10
2.99075200119938
  20
0.235377287183535
  30
0
  0
VERTEX
  8
0
  10
3
  20
1.83690953073357E-16
  30
0
  0
VERTEX
  8
0
  10
2.99075200119938
  20
-0.235377287183535
  30
0
  0
VERTEX
  8
0
  10
2.96306502178541
  20
-0.469303395120692
  30
0
  0
VERTEX
  8
0
  10
2.91710976119303
  20
-0.700336091567716
  30
0
  0
VERTEX
  8
0
  10
2.85316954888546
  20
-0.927050983124842
  30
0
  0
VERTEX
  8
0
  10
2.77163859753386
  20
-1.14805029709527
  30
0
  0
VERTEX
  8
0
  10
2.6730195725651
  20
-1.36197149921864
  30
0
  0
VERTEX
  8
0
  10
2.55792049306228
  20
-1.56749569414785
  30
0
  0
VERTEX
  8
0
  10
2.42705098312484
  20
-1.76335575687742
  30
0
  0
VERTEX
  8
0
  10
2.28121789680009
  20
-1.94834414499055
  30
0
  0
VERTEX
  8
0
  10
0
  20
0
  30
0
  0
SEQEND
  0
POLYLINE
  8
0
  62
0
  66
1
  10
0
  20
0
  70
1
 40
0
 41
0
 38
0
  0
VERTEX
  8
0
  10
-2.12132034355964
  20
2.12132034355964
  30
0
  0
VERTEX
  8
0
  10
-2.28121789680009
  20
1.94834414499055
  30
0
  0
VERTEX
  8
0
  10
-2.42705098312484
  20
1.76335575687742
  30
0
  0
VERTEX
  8
0
  10
-2.55792049306228
  20
1.56749569414785
  30
0
  0
VERTEX
  8
0
  10
-2.6730195725651
  20
1.36197149921864
  30
0
  0
VERTEX
  8
0
  10
-2.77163859753386
  20
1.14805029709527
  30
0
  0
VERTEX
  8
0
  10
-2.85316954888546
  20
0.927050983124842
  30
0
  0
VERTEX
  8
0
  10
-2.91710976119303
  20
0.700336091567716
  30
0
  0
VERTEX
  8
0
  10
-2.96306502178541
  20
0.469303395120693
  30
0
  0
VERTEX
  8
0
  10
-2.99075200119938
  20
0.235377287183535
  30
0
  0
VERTEX
  8
0
  10
-3
  20
1.83690953073357E-16
  30
0
  0
VERTEX
  8
0
  10
-2.99075200119938
  20
-0.235377287183535
  30
0
  0
VERTEX
  8
0
  10
-2.96306502178541
  20
-0.469303395120692
  30
0
  0
VERTEX
  8
0
  10
-2.91710976119303
  20
-0.700336091567716
  30
0
  0
VERTEX
  8
0
  10
-2.85316954888546
  20
-0.927050983124842
  30
0
  0
VERTEX
  8
0
  10
-2.77163859753386
  20
-1.14805029709527
  30
0
  0
VERTEX
  8
0
  10
-2.6730195725651
  20
-1.36197149921864
  30
0
  0
VERTEX
  8
0
  10
-2.55792049306228
  20
-1.56749569414785
  30
0
  0
VERTEX
  8
0
  10
-2.42705098312484
  20
-1.76335575687742
  30
0
  0
VERTEX
  8
0
  10
-2.28121789680009
  20
-1.94834414499055
  30
0
  0
VERTEX
  8
0
  10
0
  20
0
  30
0
  0
SEQEND
  0
CIRCLE
  8
0
  62
0
  10
0
  20
0
  40
3
  0
ENDBLK
  0
BLOCK
  8
0
  2
FILLED_LIGHTNINGBOLT
  70
64
  10
0
  20
0
  30
0
  0
POLYLINE
  8
0
  62
0
  66
1
  10
0
  20
0
  70
1
 40
0
 41
0
 38
0
  0
VERTEX
  8
0
  10
0.8
  20
1.5
  30
0
  0
VERTEX
  8
0
  10
-0.5
  20
-0.6
  30
0
  0
VERTEX
  8
0
  10
2
  20
-0.6
  30
0
  0
VERTEX
  8
0
  10
-0.8
  20
-3.5
  30
0
  0
VERTEX
  8
0
  10
0
  20
-1.4
  30
0
  0
VERTEX
  8
0
  10
-2
  20
-1.4
  30
0
  0
SEQEND
  0
ENDBLK
  0
BLOCK
  8
0
  2
CONTROL_STRUCTURE_START
  70
64
  10
0
  20
0
  30
0
  0
POLYLINE
  8
0
  62
0
  66
1
  10
0
  20
0
  70
1
 40
0
 41
0
 38
0
  0
VERTEX
  8
0
  10
-0.75
  20
3
  30
0
  0
VERTEX
  8
0
  10
-0.75
  20
1.5
  30
0
  0
VERTEX
  8
0
  10
0.75
  20
1.5
  30
0
  0
VERTEX
  8
0
  10
0.75
  20
3
  30
0
  0
SEQEND
  0
POLYLINE
  8
0
  62
0
  66
1
  10
0
  20
0
  70
1
 40
0
 41
0
 38
0
  0
VERTEX
  8
0
  10
-0.75
  20
-1.5
  30
0
  0
VERTEX
  8
0
  10
-0.75
  20
-3
  30
0
  0
VERTEX
  8
0
  10
0.75
  20
-3
  30
0
  0
VERTEX
  8
0
  10
0.75
  20
-1.5
  30
0
  0
SEQEND
  0
POLYLINE
  8
0
  62
0
  66
1
  10
0
  20
0
 40
0
 41
0
 38
0
  0
VERTEX
  8
0
  10
0
  20
-2.25
  30
0
  0
VERTEX
  8
0
  10
0
  20
2.25
  30
0
  0
SEQEND
  0
ENDBLK
  0
BLOCK
  8
0
  2
CONTROL_STRUCTURE_STOP
  70
64
  10
0
  20
0
  30
0
  0
POLYLINE
  8
0
  62
0
  66
1
  10
0
  20
0
  70
1
 40
0
 41
0
 38
0
  0
VERTEX
  8
0
  10
-0.75
  20
3
  30
0
  0
VERTEX
  8
0
  10
-0.75
  20
1.5
  30
0
  0
VERTEX
  8
0
  10
0.75
  20
1.5
  30
0
  0
VERTEX
  8
0
  10
0.75
  20
3
  30
0
  0
SEQEND
  0
POLYLINE
  8
0
  62
0
  66
1
  10
0
  20
0
  70
1
 40
0
 41
0
 38
0
  0
VERTEX
  8
0
  10
-0.75
  20
-1.5
  30
0
  0
VERTEX
  8
0
  10
-0.75
  20
-3
  30
0
  0
VERTEX
  8
0
  10
0.75
  20
-3
  30
0
  0
VERTEX
  8
0
  10
0.75
  20
-1.5
  30
0
  0
SEQEND
  0
POLYLINE
  8
0
  62
0
  66
1
  10
0
  20
0
 40
0
 41
0
 38
0
  0
VERTEX
  8
0
  10
0
  20
-2.25
  30
0
  0
VERTEX
  8
0
  10
0
  20
2.25
  30
0
  0
SEQEND
  0
ENDBLK
  0
BLOCK
  8
0
  2
CONTROL_STRUCTURE_FLAPGATE
  70
64
  10
0
  20
0
  30
0
  0
POLYLINE
  8
0
  62
0
  66
1
  10
0
  20
0
  70
1
 40
0
 41
0
 38
0
  0
VERTEX
  8
0
  10
0
  20
0
  30
0
  0
VERTEX
  8
0
  10
-3
  20
1.5
  30
0
  0
VERTEX
  8
0
  10
-3
  20
-1.5
  30
0
  0
SEQEND
  0
POLYLINE
  8
0
  62
0
  66
1
  10
0
  20
0
 40
0
 41
0
 38
0
  0
VERTEX
  8
0
  10
0
  20
-3
  30
0
  0
VERTEX
  8
0
  10
0
  20
3
  30
0
  0
SEQEND
  0
ENDBLK
  0
BLOCK
  8
0
  2
CONTROL_STRUCTURE_CENTER
  70
64
  10
0
  20
0
  30
0
  0
POLYLINE
  8
0
  62
0
  66
1
  10
0
  20
0
  70
1
 40
0
 41
0
 38
0
  0
VERTEX
  8
0
  10
-0.75
  20
3
  30
0
  0
VERTEX
  8
0
  10
-0.75
  20
1.5
  30
0
  0
VERTEX
  8
0
  10
0.75
  20
1.5
  30
0
  0
VERTEX
  8
0
  10
0.75
  20
3
  30
0
  0
SEQEND
  0
POLYLINE
  8
0
  62
0
  66
1
  10
0
  20
0
  70
1
 40
0
 41
0
 38
0
  0
VERTEX
  8
0
  10
-0.75
  20
-1.5
  30
0
  0
VERTEX
  8
0
  10
-0.75
  20
-3
  30
0
  0
VERTEX
  8
0
  10
0.75
  20
-3
  30
0
  0
VERTEX
  8
0
  10
0.75
  20
-1.5
  30
0
  0
SEQEND
  0
POLYLINE
  8
0
  62
0
  66
1
  10
0
  20
0
 40
0
 41
0
 38
0
  0
VERTEX
  8
0
  10
0
  20
-2.25
  30
0
  0
VERTEX
  8
0
  10
0
  20
2.25
  30
0
  0
SEQEND
  0
ENDBLK
  0
BLOCK
  8
0
  2
CONTROL_STRUCTURE_STOPFLAPGATE
  70
64
  10
0
  20
0
  30
0
  0
POLYLINE
  8
0
  62
0
  66
1
  10
0
  20
0
  70
1
 40
0
 41
0
 38
0
  0
VERTEX
  8
0
  10
-0.75
  20
3
  30
0
  0
VERTEX
  8
0
  10
-0.75
  20
1.5
  30
0
  0
VERTEX
  8
0
  10
0.75
  20
1.5
  30
0
  0
VERTEX
  8
0
  10
0.75
  20
3
  30
0
  0
SEQEND
  0
POLYLINE
  8
0
  62
0
  66
1
  10
0
  20
0
  70
1
 40
0
 41
0
 38
0
  0
VERTEX
  8
0
  10
-0.75
  20
-1.5
  30
0
  0
VERTEX
  8
0
  10
-0.75
  20
-3
  30
0
  0
VERTEX
  8
0
  10
0.75
  20
-3
  30
0
  0
VERTEX
  8
0
  10
0.75
  20
-1.5
  30
0
  0
SEQEND
  0
POLYLINE
  8
0
  62
0
  66
1
  10
0
  20
0
 40
0
 41
0
 38
0
  0
VERTEX
  8
0
  10
0
  20
-2.25
  30
0
  0
VERTEX
  8
0
  10
0
  20
2.25
  30
0
  0
SEQEND
  0
POLYLINE
  8
0
  62
0
  66
1
  10
0
  20
0
  70
1
 40
0
 41
0
 38
0
  0
VERTEX
  8
0
  10
0
  20
0
  30
0
  0
VERTEX
  8
0
  10
-3
  20
1.5
  30
0
  0
VERTEX
  8
0
  10
-3
  20
-1.5
  30
0
  0
SEQEND
  0
ENDBLK
  0
ENDSEC
  0
SECTION
  2
ENTITIES
  0
INSERT
  8
node
  2
RESERVOIR
  10
671265.131439997
  20
802526.388249519
  30
0
  50
0
  41
0.31750000000127
  42
0.31750000000127
  43
1
  62
0
  0
TEXT
  8
node
  62
0
  10
671267.569839997
  20
802528.826649519
  40
1.27000000000508
  50
0
  72
0
  73
1
  11
671267.569839997
  21
802528.826649519
  1
R-1
  0
INSERT
  8
node
  2
PUMP
  10
671268.054489742
  20
802525.317975954
  30
0
  50
339.056049768695
  41
0.31750000000127
  42
0.31750000000127
  43
1
  62
0
  0
TEXT
  8
node
  62
0
  10
671270.492889742
  20
802527.756375954
  40
1.27000000000508
  50
0
  72
0
  73
1
  11
671270.492889742
  21
802527.756375954
  1
PMP-1
  0
INSERT
  8
node
  2
FILLED_CIRCLE
  10
671353.045245726
  20
802539.045208168
  30
0
  50
0
  41
0.31750000000127
  42
0.31750000000127
  43
1
  62
0
  0
TEXT
  8
node
  62
0
  10
671355.483645726
  20
802541.483608168
  40
1.27000000000508
  50
0
  72
0
  73
1
  11
671355.483645726
  21
802541.483608168
  1
J-1
  0
INSERT
  8
node
  2
FILLED_CIRCLE
  10
671352.223057051
  20
802541.613503387
  30
0
  50
0
  41
0.31750000000127
  42
0.31750000000127
  43
1
  62
0
  0
TEXT
  8
node
  62
0
  10
671354.661457051
  20
802544.051903387
  40
1.27000000000508
  50
0
  72
0
  73
1
  11
671354.661457051
  21
802544.051903387
  1
J-2
  0
INSERT
  8
node
  2
FILLED_CIRCLE
  10
671273.997173588
  20
802523.043460922
  30
0
  50
0
  41
0.31750000000127
  42
0.31750000000127
  43
1
  62
0
  0
TEXT
  8
node
  62
0
  10
671276.435573589
  20
802525.481860922
  40
1.27000000000508
  50
0
  72
0
  73
1
  11
671276.435573589
  21
802525.481860922
  1
J-5
  0
INSERT
  8
node
  2
FILLED_CIRCLE
  10
671360.040152153
  20
802540.989601778
  30
0
  50
0
  41
0.31750000000127
  42
0.31750000000127
  43
1
  62
0
  0
TEXT
  8
node
  62
0
  10
671362.478552153
  20
802543.428001778
  40
1.27000000000508
  50
0
  72
0
  73
1
  11
671362.478552153
  21
802543.428001778
  1
J-7
  0
INSERT
  8
node
  2
FILLED_CIRCLE
  10
671443.634557586
  20
802524.007901988
  30
0
  50
0
  41
0.31750000000127
  42
0.31750000000127
  43
1
  62
0
  0
TEXT
  8
node
  62
0
  10
671446.072957586
  20
802526.446301988
  40
1.27000000000508
  50
0
  72
0
  73
1
  11
671446.072957586
  21
802526.446301988
  1
J-10
  0
INSERT
  8
node
  2
FILLED_CIRCLE
  10
671446.661532728
  20
802498.003370664
  30
0
  50
0
  41
0.31750000000127
  42
0.31750000000127
  43
1
  62
0
  0
TEXT
  8
node
  62
0
  10
671449.099932728
  20
802500.441770664
  40
1.27000000000508
  50
0
  72
0
  73
1
  11
671449.099932728
  21
802500.441770664
  1
J-11
  0
INSERT
  8
node
  2
FILLED_CIRCLE
  10
671359.668240921
  20
802542.88458492
  30
0
  50
0
  41
0.31750000000127
  42
0.31750000000127
  43
1
  62
0
  0
TEXT
  8
node
  62
0
  10
671362.106640921
  20
802545.32298492
  40
1.27000000000508
  50
0
  72
0
  73
1
  11
671362.106640921
  21
802545.32298492
  1
SP 7
  0
INSERT
  8
node
  2
FILLED_CIRCLE
  10
671253.453450277
  20
802461.974175094
  30
0
  50
0
  41
0.31750000000127
  42
0.31750000000127
  43
1
  62
0
  0
TEXT
  8
node
  62
0
  10
671255.891850277
  20
802464.412575094
  40
1.27000000000508
  50
0
  72
0
  73
1
  11
671255.891850277
  21
802464.412575094
  1
SP 9
  0
INSERT
  8
node
  2
FILLED_CIRCLE
  10
671284.977772162
  20
802425.61416869
  30
0
  50
0
  41
0.31750000000127
  42
0.31750000000127
  43
1
  62
0
  0
TEXT
  8
node
  62
0
  10
671287.416172162
  20
802428.05256869
  40
1.27000000000508
  50
0
  72
0
  73
1
  11
671287.416172162
  21
802428.05256869
  1
SP 8
  0
INSERT
  8
node
  2
FILLED_CIRCLE
  10
671254.766675113
  20
802465.568355111
  30
0
  50
0
  41
0.31750000000127
  42
0.31750000000127
  43
1
  62
0
  0
TEXT
  8
node
  62
0
  10
671257.205075113
  20
802468.006755111
  40
1.27000000000508
  50
0
  72
0
  73
1
  11
671257.205075113
  21
802468.006755111
  1
J-9
  0
INSERT
  8
node
  2
FILLED_CIRCLE
  10
671342.700107701
  20
802579.683698877
  30
0
  50
0
  41
0.31750000000127
  42
0.31750000000127
  43
1
  62
0
  0
TEXT
  8
node
  62
0
  10
671345.138507701
  20
802582.122098877
  40
1.27000000000508
  50
0
  72
0
  73
1
  11
671345.138507701
  21
802582.122098877
  1
J-15
  0
POLYLINE
  8
pipe
  62
5
  66
1
  10
671352.631449635
  20
802540.328490865
 40
0
 41
0
 38
0
  0
VERTEX
  8
pipe
  10
671353.045245726
  20
802539.045208168
  30
0
  0
VERTEX
  8
pipe
  10
671353.045245726
  20
802539.045208168
  30
0
  0
VERTEX
  8
pipe
  10
671352.969601051
  20
802539.278400205
  30
0
  0
VERTEX
  8
pipe
  10
671352.894136292
  20
802539.511650529
  30
0
  0
VERTEX
  8
pipe
  10
671352.818851493
  20
802539.744958999
  30
0
  0
VERTEX
  8
pipe
  10
671352.743746701
  20
802539.978325478
  30
0
  0
VERTEX
  8
pipe
  10
671352.668821959
  20
802540.211749826
  30
0
  0
VERTEX
  8
pipe
  10
671352.594077311
  20
802540.445231904
  30
0
  0
VERTEX
  8
pipe
  10
671352.519512803
  20
802540.678771574
  30
0
  0
VERTEX
  8
pipe
  10
671352.445128479
  20
802540.912368696
  30
0
  0
VERTEX
  8
pipe
  10
671352.370924383
  20
802541.146023132
  30
0
  0
VERTEX
  8
pipe
  10
671352.296900559
  20
802541.379734742
  30
0
  0
VERTEX
  8
pipe
  10
671352.223057051
  20
802541.613503387
  30
0
  0
VERTEX
  8
pipe
  10
671352.223057051
  20
802541.613503387
  30
0
  0
SEQEND
  0
TEXT
  8
pipe
  62
5
  10
671353.027724522
  20
802545.037751162
  40
1.27000000000508
  50
287.751434537499
  72
0
  73
1
  11
671353.027724522
  21
802545.037751162
  1
OD-110mm
  0
INSERT
  8
pipe
  2
FLOWARROW
  10
671352.631449635
  20
802540.328490865
  30
0
  50
287.751434537499
  41
0.31750000000127
  42
0.31750000000127
  43
1
  62
5
  0
POLYLINE
  8
pipe
  62
5
  66
1
  10
671346.780256558
  20
802561.005470232
 40
0
 41
0
 38
0
  0
VERTEX
  8
pipe
  10
671352.223057051
  20
802541.613503387
  30
0
  0
VERTEX
  8
pipe
  10
671352.223057051
  20
802541.613503387
  30
0
  0
VERTEX
  8
pipe
  10
671351.154846602
  20
802545.068098648
  30
0
  0
VERTEX
  8
pipe
  10
671350.126013036
  20
802548.534624788
  30
0
  0
VERTEX
  8
pipe
  10
671349.136689559
  20
802552.012632988
  30
0
  0
VERTEX
  8
pipe
  10
671348.18700426
  20
802555.501672944
  30
0
  0
VERTEX
  8
pipe
  10
671347.277080098
  20
802559.001292923
  30
0
  0
VERTEX
  8
pipe
  10
671346.407034882
  20
802562.511039823
  30
0
  0
VERTEX
  8
pipe
  10
671345.576981257
  20
802566.03045923
  30
0
  0
VERTEX
  8
pipe
  10
671344.787026694
  20
802569.559095478
  30
0
  0
VERTEX
  8
pipe
  10
671344.037273468
  20
802573.096491707
  30
0
  0
VERTEX
  8
pipe
  10
671343.327818652
  20
802576.642189924
  30
0
  0
VERTEX
  8
pipe
  10
671342.658754101
  20
802580.195731061
  30
0
  0
VERTEX
  8
pipe
  10
671342.700107701
  20
802579.683698877
  30
0
  0
SEQEND
  0
TEXT
  8
pipe
  62
5
  10
671347.490111042
  20
802565.677757996
  40
1.27000000000508
  50
283.922620621404
  72
0
  73
1
  11
671347.490111042
  21
802565.677757996
  1
OD-110mm
  0
INSERT
  8
pipe
  2
FLOWARROW
  10
671346.780256558
  20
802561.005470232
  30
0
  50
283.922620621404
  41
0.31750000000127
  42
0.31750000000127
  43
1
  62
5
  0
POLYLINE
  8
pipe
  62
214
  66
1
  10
671356.526308587
  20
802540.075901482
 40
0
 41
0
 38
0
  0
VERTEX
  8
pipe
  10
671360.040152153
  20
802540.989601778
  30
0
  0
VERTEX
  8
pipe
  10
671358.881031316
  20
802540.69819677
  30
0
  0
VERTEX
  8
pipe
  10
671358.881031316
  20
802540.69819677
  30
0
  0
VERTEX
  8
pipe
  10
671358.346560256
  20
802540.562294762
  30
0
  0
VERTEX
  8
pipe
  10
671357.812830721
  20
802540.423509125
  30
0
  0
VERTEX
  8
pipe
  10
671357.279858269
  20
802540.281843903
  30
0
  0
VERTEX
  8
pipe
  10
671356.747658435
  20
802540.137303227
  30
0
  0
VERTEX
  8
pipe
  10
671356.216246734
  20
802539.989891309
  30
0
  0
VERTEX
  8
pipe
  10
671355.685638655
  20
802539.839612447
  30
0
  0
VERTEX
  8
pipe
  10
671355.155849665
  20
802539.686471021
  30
0
  0
VERTEX
  8
pipe
  10
671354.626895208
  20
802539.530471495
  30
0
  0
VERTEX
  8
pipe
  10
671354.098790701
  20
802539.371618416
  30
0
  0
VERTEX
  8
pipe
  10
671353.57155154
  20
802539.209916415
  30
0
  0
VERTEX
  8
pipe
  10
671353.045193093
  20
802539.045370206
  30
0
  0
VERTEX
  8
pipe
  10
671353.045245726
  20
802539.045208168
  30
0
  0
SEQEND
  0
TEXT
  8
pipe
  62
214
  10
671352.288833752
  20
802540.782113975
  40
1.27000000000508
  50
15.5038454729341
  72
0
  73
1
  11
671352.288833752
  21
802540.782113975
  1
OD-63mm
  0
INSERT
  8
pipe
  2
FLOWARROW
  10
671356.526308587
  20
802540.075901482
  30
0
  50
15.5038454729341
  41
0.31750000000127
  42
0.31750000000127
  43
1
  62
214
  0
POLYLINE
  8
pipe
  62
2
  66
1
  10
671445.714819198
  20
802511.071609864
 40
0
 41
0
 38
0
  0
VERTEX
  8
pipe
  10
671443.634557586
  20
802524.007901988
  30
0
  0
VERTEX
  8
pipe
  10
671443.634557586
  20
802524.007901988
  30
0
  0
VERTEX
  8
pipe
  10
671444.098054573
  20
802521.670362059
  30
0
  0
VERTEX
  8
pipe
  10
671444.524156607
  20
802519.325717217
  30
0
  0
VERTEX
  8
pipe
  10
671444.912754976
  20
802516.974565651
  30
0
  0
VERTEX
  8
pipe
  10
671445.263750538
  20
802514.61750721
  30
0
  0
VERTEX
  8
pipe
  10
671445.577053742
  20
802512.255143249
  30
0
  0
VERTEX
  8
pipe
  10
671445.852584655
  20
802509.888076479
  30
0
  0
VERTEX
  8
pipe
  10
671446.090272983
  20
802507.516910809
  30
0
  0
VERTEX
  8
pipe
  10
671446.290058082
  20
802505.142251192
  30
0
  0
VERTEX
  8
pipe
  10
671446.451888982
  20
802502.764703477
  30
0
  0
VERTEX
  8
pipe
  10
671446.575724396
  20
802500.384874246
  30
0
  0
VERTEX
  8
pipe
  10
671446.661532728
  20
802498.003370664
  30
0
  0
VERTEX
  8
pipe
  10
671446.661532728
  20
802498.003370664
  30
0
  0
SEQEND
  0
TEXT
  8
pipe
  62
2
  10
671447.065575945
  20
802515.149646803
  40
1.27000000000508
  50
276.639454564964
  72
0
  73
1
  11
671447.065575945
  21
802515.149646803
  1
OD-90mm
  0
INSERT
  8
pipe
  2
FLOWARROW
  10
671445.714819198
  20
802511.071609864
  30
0
  50
276.639454564964
  41
0.31750000000127
  42
0.31750000000127
  43
1
  62
2
  0
POLYLINE
  8
pipe
  62
2
  66
1
  10
671358.946991753
  20
802478.49957741
 40
0
 41
0
 38
0
  0
VERTEX
  8
pipe
  10
671446.661532728
  20
802498.003370664
  30
0
  0
VERTEX
  8
pipe
  10
671435.83340485
  20
802498.029686967
  30
0
  0
VERTEX
  8
pipe
  10
671435.83340485
  20
802498.029686967
  30
0
  0
VERTEX
  8
pipe
  10
671426.367248435
  20
802497.772720108
  30
0
  0
VERTEX
  8
pipe
  10
671416.932828744
  20
802496.956708868
  30
0
  0
VERTEX
  8
pipe
  10
671407.563132402
  20
802495.584506362
  30
0
  0
VERTEX
  8
pipe
  10
671398.290919736
  20
802493.660910374
  30
0
  0
VERTEX
  8
pipe
  10
671389.148610228
  20
802491.19264659
  30
0
  0
VERTEX
  8
pipe
  10
671380.168169165
  20
802488.188345079
  30
0
  0
VERTEX
  8
pipe
  10
671371.380995877
  20
802484.65851012
  30
0
  0
VERTEX
  8
pipe
  10
671362.817813946
  20
802480.615483472
  30
0
  0
VERTEX
  8
pipe
  10
671354.508563793
  20
802476.073401224
  30
0
  0
VERTEX
  8
pipe
  10
671346.482297985
  20
802471.048144373
  30
0
  0
VERTEX
  8
pipe
  10
671338.76707966
  20
802465.557283288
  30
0
  0
VERTEX
  8
pipe
  10
671338.76707966
  20
802465.557283288
  30
0
  0
VERTEX
  8
pipe
  10
671338.76707966
  20
802465.557283288
  30
0
  0
VERTEX
  8
pipe
  10
671333.908151375
  20
802461.884556859
  30
0
  0
VERTEX
  8
pipe
  10
671329.042977862
  20
802458.220107352
  30
0
  0
VERTEX
  8
pipe
  10
671324.171573219
  20
802454.563945388
  30
0
  0
VERTEX
  8
pipe
  10
671319.293951563
  20
802450.916081563
  30
0
  0
VERTEX
  8
pipe
  10
671314.410127032
  20
802447.276526446
  30
0
  0
VERTEX
  8
pipe
  10
671309.520113777
  20
802443.645290587
  30
0
  0
VERTEX
  8
pipe
  10
671304.623925969
  20
802440.022384508
  30
0
  0
VERTEX
  8
pipe
  10
671299.721577799
  20
802436.407818709
  30
0
  0
VERTEX
  8
pipe
  10
671294.813083472
  20
802432.801603664
  30
0
  0
VERTEX
  8
pipe
  10
671289.898457214
  20
802429.203749825
  30
0
  0
VERTEX
  8
pipe
  10
671284.977713268
  20
802425.614267617
  30
0
  0
VERTEX
  8
pipe
  10
671284.977772162
  20
802425.61416869
  30
0
  0
SEQEND
  0
TEXT
  8
pipe
  62
2
  10
671354.660009566
  20
802478.222606662
  40
1.27000000000508
  50
28.6623228142755
  72
0
  73
1
  11
671354.660009566
  21
802478.222606662
  1
OD-90mm
  0
INSERT
  8
pipe
  2
FLOWARROW
  10
671358.946991753
  20
802478.49957741
  30
0
  50
208.662322814276
  41
0.31750000000127
  42
0.31750000000127
  43
1
  62
2
  0
POLYLINE
  8
pipe
  62
4
  66
1
  10
671266.59296487
  20
802525.853112737
 40
0
 41
0
 38
0
  0
VERTEX
  8
pipe
  10
671265.131439997
  20
802526.388249519
  30
0
  0
VERTEX
  8
pipe
  10
671268.054489742
  20
802525.317975954
  30
0
  0
SEQEND
  0
TEXT
  8
pipe
  62
4
  10
671263.118241855
  20
802529.056309001
  40
1.27000000000508
  50
339.889814476479
  72
0
  73
1
  11
671263.118241855
  21
802529.056309001
  1
OD-160mm
  0
INSERT
  8
pipe
  2
FLOWARROW
  10
671266.59296487
  20
802525.853112737
  30
0
  50
339.889814476479
  41
0.31750000000127
  42
0.31750000000127
  43
1
  62
4
  0
POLYLINE
  8
pipe
  62
4
  66
1
  10
671271.025831665
  20
802524.180718438
 40
0
 41
0
 38
0
  0
VERTEX
  8
pipe
  10
671268.054489742
  20
802525.317975954
  30
0
  0
VERTEX
  8
pipe
  10
671273.997173588
  20
802523.043460922
  30
0
  0
SEQEND
  0
TEXT
  8
pipe
  62
4
  10
671267.598087619
  20
802527.43413773
  40
1.27000000000508
  50
339.056049768695
  72
0
  73
1
  11
671267.598087619
  21
802527.43413773
  1
OD-160mm
  0
INSERT
  8
pipe
  2
FLOWARROW
  10
671271.025831665
  20
802524.180718438
  30
0
  50
339.056049768695
  41
0.31750000000127
  42
0.31750000000127
  43
1
  62
4
  0
POLYLINE
  8
pipe
  62
214
  66
1
  10
671359.854196537
  20
802541.937093349
 40
0
 41
0
 38
0
  0
VERTEX
  8
pipe
  10
671359.668240921
  20
802542.88458492
  30
0
  0
VERTEX
  8
pipe
  10
671360.040152153
  20
802540.989601778
  30
0
  0
SEQEND
  0
TEXT
  8
pipe
  62
214
  10
671360.883426329
  20
802546.107898439
  40
1.27000000000508
  50
281.103794217852
  72
0
  73
1
  11
671360.883426329
  21
802546.107898439
  1
OD-63mm
  0
INSERT
  8
pipe
  2
FLOWARROW
  10
671359.854196537
  20
802541.937093349
  30
0
  50
101.103794217852
  41
0.31750000000127
  42
0.31750000000127
  43
1
  62
214
  0
POLYLINE
  8
pipe
  62
2
  66
1
  10
671269.215611219
  20
802443.794171892
 40
0
 41
0
 38
0
  0
VERTEX
  8
pipe
  10
671284.977772162
  20
802425.61416869
  30
0
  0
VERTEX
  8
pipe
  10
671253.453450277
  20
802461.974175094
  30
0
  0
SEQEND
  0
TEXT
  8
pipe
  62
2
  10
671268.038963681
  20
802447.925809538
  40
1.27000000000508
  50
310.862132676075
  72
0
  73
1
  11
671268.038963681
  21
802447.925809538
  1
OD-90mm
  0
INSERT
  8
pipe
  2
FLOWARROW
  10
671269.215611219
  20
802443.794171892
  30
0
  50
310.92546459535
  41
0.31750000000127
  42
0.31750000000127
  43
1
  62
2
  0
POLYLINE
  8
pipe
  62
5
  66
1
  10
671264.144644997
  20
802494.388452867
 40
0
 41
0
 38
0
  0
VERTEX
  8
pipe
  10
671254.766675113
  20
802465.568355111
  30
0
  0
VERTEX
  8
pipe
  10
671268.40024462
  20
802507.466634892
  30
0
  0
VERTEX
  8
pipe
  10
671268.40024462
  20
802507.466634892
  30
0
  0
VERTEX
  8
pipe
  10
671268.869861992
  20
802508.896427659
  30
0
  0
VERTEX
  8
pipe
  10
671269.347363304
  20
802510.323606811
  30
0
  0
VERTEX
  8
pipe
  10
671269.832734009
  20
802511.748128876
  30
0
  0
VERTEX
  8
pipe
  10
671270.325959325
  20
802513.169950462
  30
0
  0
VERTEX
  8
pipe
  10
671270.827024226
  20
802514.589028261
  30
0
  0
VERTEX
  8
pipe
  10
671271.335913451
  20
802516.005319047
  30
0
  0
VERTEX
  8
pipe
  10
671271.852611499
  20
802517.41877968
  30
0
  0
VERTEX
  8
pipe
  10
671272.377102632
  20
802518.829367106
  30
0
  0
VERTEX
  8
pipe
  10
671272.909370872
  20
802520.237038359
  30
0
  0
VERTEX
  8
pipe
  10
671273.449400007
  20
802521.64175056
  30
0
  0
VERTEX
  8
pipe
  10
671273.997173588
  20
802523.043460922
  30
0
  0
VERTEX
  8
pipe
  10
671273.997173588
  20
802523.043460922
  30
0
  0
SEQEND
  0
TEXT
  8
pipe
  62
5
  10
671261.070015826
  20
802490.799466687
  40
1.27000000000508
  50
71.9752736641438
  72
0
  73
1
  11
671261.070015826
  21
802490.799466687
  1
OD-110mm
  0
INSERT
  8
pipe
  2
FLOWARROW
  10
671264.144644997
  20
802494.388452867
  30
0
  50
251.975273664144
  41
0.31750000000127
  42
0.31750000000127
  43
1
  62
5
  0
POLYLINE
  8
pipe
  62
5
  66
1
  10
671254.110062695
  20
802463.771265102
 40
0
 41
0
 38
0
  0
VERTEX
  8
pipe
  10
671253.453450277
  20
802461.974175094
  30
0
  0
VERTEX
  8
pipe
  10
671254.766675113
  20
802465.568355111
  30
0
  0
SEQEND
  0
TEXT
  8
pipe
  62
5
  10
671250.909240062
  20
802460.294355439
  40
1.27000000000508
  50
69.9289417061212
  72
0
  73
1
  11
671250.909240062
  21
802460.294355439
  1
OD-110mm
  0
INSERT
  8
pipe
  2
FLOWARROW
  10
671254.110062695
  20
802463.771265102
  30
0
  50
249.928941706121
  41
0.31750000000127
  42
0.31750000000127
  43
1
  62
5
  0
POLYLINE
  8
pipe
  62
2
  66
1
  10
671301.026381234
  20
802560.33805677
 40
0
 41
0
 38
0
  0
VERTEX
  8
pipe
  10
671273.997173588
  20
802523.043460922
  30
0
  0
VERTEX
  8
pipe
  10
671275.650995632
  20
802526.84955407
  30
0
  0
VERTEX
  8
pipe
  10
671275.650995632
  20
802526.84955407
  30
0
  0
VERTEX
  8
pipe
  10
671285.231222812
  20
802543.783556731
  30
0
  0
VERTEX
  8
pipe
  10
671298.197509905
  20
802558.289300351
  30
0
  0
VERTEX
  8
pipe
  10
671313.955156386
  20
802569.70147702
  30
0
  0
VERTEX
  8
pipe
  10
671331.781435651
  20
802577.496665699
  30
0
  0
VERTEX
  8
pipe
  10
671342.700107701
  20
802579.683698877
  30
0
  0
SEQEND
  0
TEXT
  8
pipe
  62
2
  10
671296.070963828
  20
802558.78158619
  40
1.27000000000508
  50
35.913222482328
  72
0
  73
1
  11
671296.070963828
  21
802558.78158619
  1
OD-90mm(1)
  0
INSERT
  8
pipe
  2
FLOWARROW
  10
671301.026381234
  20
802560.33805677
  30
0
  50
35.913222482328
  41
0.31750000000127
  42
0.31750000000127
  43
1
  62
2
  0
POLYLINE
  8
pipe
  62
2
  66
1
  10
671403.048463174
  20
802569.925673041
 40
0
 41
0
 38
0
  0
VERTEX
  8
pipe
  10
671342.700107701
  20
802579.683698877
  30
0
  0
VERTEX
  8
pipe
  10
671350.858742969
  20
802581.317338997
  30
0
  0
VERTEX
  8
pipe
  10
671370.312095039
  20
802580.988261211
  30
0
  0
VERTEX
  8
pipe
  10
671389.249261216
  20
802576.524525539
  30
0
  0
VERTEX
  8
pipe
  10
671406.80168579
  20
802568.130861827
  30
0
  0
VERTEX
  8
pipe
  10
671422.164324415
  20
802556.192246604
  30
0
  0
VERTEX
  8
pipe
  10
671434.632567576
  20
802541.256246087
  30
0
  0
VERTEX
  8
pipe
  10
671443.634557599
  20
802524.007901977
  30
0
  0
VERTEX
  8
pipe
  10
671443.634557586
  20
802524.007901988
  30
0
  0
SEQEND
  0
TEXT
  8
pipe
  62
2
  10
671399.314236313
  20
802573.535979411
  40
1.27000000000508
  50
334.442622760737
  72
0
  73
1
  11
671399.314236313
  21
802573.535979411
  1
OD-90mm(2)
  0
INSERT
  8
pipe
  2
FLOWARROW
  10
671403.048463174
  20
802569.925673041
  30
0
  50
334.442622760737
  41
0.31750000000127
  42
0.31750000000127
  43
1
  62
2
  0
ENDSEC
  0
EOF
